<svg width="181" height="105" viewBox="0 0 181 105" fill="none" xmlns="http://www.w3.org/2000/svg">
<circle cx="90.5" cy="25.5" r="25.5" fill="#FF7A00"/>
<line x1="65.7257" y1="32.6388" x2="91.7257" y2="15.5819" stroke="white"/>
<line x1="115.529" y1="34.118" x2="90.699" y2="15.3992" stroke="white"/>
<line x1="111.657" y1="39.4524" x2="90.231" y2="22.9666" stroke="white"/>
<line x1="68.2496" y1="38.4473" x2="91.5208" y2="23.2668" stroke="white"/>
<line x1="104.5" y1="26" x2="104.5" y2="18" stroke="white"/>
<line x1="100.5" y1="22" x2="100.5" y2="18" stroke="white"/>
<line x1="100" y1="17.5" x2="105" y2="17.5" stroke="white"/>
<line x1="88.5" y1="51" x2="88.5" y2="46" stroke="white"/>
<line x1="92.9926" y1="45.5694" x2="87.993" y2="45.4999" stroke="white"/>
<line x1="92.5" y1="51" x2="92.5" y2="46" stroke="white"/>
<path d="M72.9687 31.7648C73.1171 31.7648 73.233 31.7033 73.3631 31.6325C73.8598 31.3622 74.3366 31.0637 74.8164 30.7657C75.5596 30.3041 76.3791 29.9234 77.1495 29.5018C77.6139 29.2477 78.2579 29.0991 78.6417 28.7284C78.8906 28.4881 79.1647 28.2207 79.4385 28.0096C79.8484 27.6933 80.393 27.5742 80.8606 27.3738C81.3721 27.1546 81.878 26.938 82.3658 26.6705C83.7309 25.9219 85.0397 25.0472 86.256 24.0805C87.0294 23.4657 87.7462 22.6462 88.3373 21.8616C88.5553 21.5722 88.7019 21.2354 88.9913 21.0104C89.2079 20.8419 89.4057 20.6476 89.6349 20.4965C89.7729 20.4056 89.9416 20.291 90.0657 20.1799C90.2288 20.034 90.2998 20.6476 90.3253 20.7508C90.4001 21.0549 90.3095 21.4136 90.2734 21.7162C90.2619 21.8122 90.2215 21.9453 90.2993 22.0277C90.36 22.092 90.4719 22.2171 90.4862 22.1886" stroke="white" stroke-width="3" stroke-linecap="round"/>
<path d="M89.1782 23.0294C89.0644 23.2053 88.6972 23.2907 88.6176 23.4498" stroke="white" stroke-width="3" stroke-linecap="round"/>
<path d="M87.4498 21.5813C87.2079 21.5813 86.9567 21.7941 86.7491 21.8979C86.415 22.0649 86.0534 22.1712 85.7214 22.3391C85.2368 22.5842 84.8076 22.9468 84.3927 23.2863C83.7153 23.8406 82.9376 24.28 82.1712 24.7111C81.7612 24.9417 81.3833 25.2293 80.9774 25.4403C80.431 25.7245 79.8923 25.9994 79.3788 26.3461C78.0159 27.266 76.4449 27.8369 75.2317 28.988C75.0303 29.179 74.7985 29.3049 74.5673 29.4499C74.3868 29.5631 74.196 29.8065 74.0431 29.9637C73.8895 30.1217 73.7338 30.282 73.6019 30.4568C73.3814 30.749 72.9784 30.9302 72.7091 31.1809C72.3603 31.5057 72.0035 31.8765 71.6036 32.1385C71.0811 32.4808 70.4792 32.743 69.9115 32.9975C69.5421 33.1631 69.1255 33.2553 68.7645 33.3998C68.6608 33.4412 68.5812 33.5533 68.4842 33.6126C68.3581 33.6896 68.2435 33.7468 68.1105 33.8098C67.8835 33.9173 67.9151 33.6078 67.8535 33.4724C67.7758 33.3013 67.7436 33.1841 67.5499 33.1195" stroke="white" stroke-width="3" stroke-linecap="round"/>
<path d="M67.8769 32.559C68.0053 32.4539 68.1919 32.4377 68.3466 32.3929C68.5783 32.3258 68.8017 32.1908 69.0369 32.1437C69.2008 32.111 69.3285 32.0889 69.4755 31.9984C69.8804 31.7493 70.2039 31.4314 70.633 31.2043C70.9333 31.0453 71.2517 30.9065 71.5647 30.7657C71.8078 30.6563 72.0249 30.5236 72.268 30.3998C72.5913 30.235 72.9089 30.0607 73.1841 29.8262C73.4692 29.5833 73.8399 29.4455 74.1105 29.1749C74.5139 28.7715 75.1062 28.6008 75.4938 28.1939C75.771 27.9028 76.208 27.7834 76.5085 27.5243C76.6967 27.3621 76.9959 27.2412 77.217 27.1169C77.68 26.8564 78.1089 26.5827 78.5768 26.3253C78.8045 26.2001 78.9924 26.0502 79.2282 25.9257C79.4644 25.801 79.7437 25.6304 79.9549 25.4689C80.3439 25.1715 80.7853 24.9417 81.1798 24.6437C81.7177 24.2372 82.3437 23.8911 82.7785 23.3668C83.1672 22.898 83.7806 22.5649 84.2837 22.2353C84.4966 22.0958 84.7464 22.0284 84.948 21.8772C85.374 21.5577 85.914 21.3228 86.3935 21.0934C86.6115 20.9892 86.8168 20.8559 87.0294 20.7405C87.14 20.6805 87.2207 20.5686 87.3122 20.4836C87.4574 20.3488 87.6537 20.3013 87.8183 20.2007C87.9904 20.0955 88.2488 19.9359 88.3944 19.7959C88.5752 19.6221 88.81 19.5152 88.9913 19.3339C89.3671 18.9582 89.8979 18.7145 90.3227 18.3841C90.4558 18.2805 90.5736 18.2151 90.7301 18.1609C90.8907 18.1053 90.9839 17.9431 91.1401 17.891" stroke="white" stroke-width="3" stroke-linecap="round"/>
<path d="M91.5139 18.0311C91.5301 18.161 91.953 18.2843 92.0485 18.3607C92.2998 18.5618 92.5927 18.7606 92.7725 19.0303C92.9869 19.3519 93.3073 19.6533 93.616 19.8893C93.7507 19.9923 93.856 20.1262 93.9949 20.2318C94.2186 20.4022 94.4821 20.5037 94.7059 20.6678C94.9739 20.8643 95.2879 20.9989 95.5546 21.2076C96.1018 21.6359 96.6831 22.0861 97.2804 22.4274C97.344 22.4637 97.3346 22.5697 97.4231 22.609C97.5149 22.6498 97.5916 22.7343 97.68 22.7855C97.8721 22.8967 98.1007 23.0919 98.2873 23.2267C98.9287 23.69 99.6087 24.1037 100.247 24.5502C100.72 24.8819 101.238 25.1202 101.744 25.4015C101.815 25.4407 101.847 25.5187 101.923 25.5624C102.133 25.6824 102.363 25.8228 102.538 25.9932C102.708 26.1587 103.096 26.388 103.192 26.5797" stroke="white" stroke-width="3" stroke-linecap="round"/>
<path d="M102.772 27C103.142 27.1283 103.445 27.4896 103.776 27.7033C104.087 27.9037 104.402 28.0925 104.708 28.2872C104.907 28.4139 105.092 28.5487 105.284 28.6817C105.51 28.8381 105.802 28.9298 106.005 29.1125C106.232 29.3155 106.547 29.3739 106.768 29.5952C107.06 29.8873 107.415 30.0441 107.721 30.3115C107.927 30.492 108.216 30.6336 108.445 30.7942C108.75 31.0086 109.022 31.2484 109.291 31.5104C109.771 31.9784 110.279 32.476 110.806 32.8859C110.94 32.9895 111.196 33.2394 111.367 33.2596C111.478 33.2726 111.625 33.4926 111.741 33.5502C111.955 33.6573 112.121 33.8822 112.299 34.0304C112.539 34.2308 112.381 34.3807 112.768 34.3807" stroke="white" stroke-width="3" stroke-linecap="round"/>
<path d="M90.8131 20.1799C91.2741 20.3155 91.7003 20.729 92.1107 20.9689C93.1667 21.586 94.2306 22.2041 95.2457 22.8867C96.1878 23.5202 97.1188 24.1719 98.0433 24.8305C98.9205 25.4554 99.7747 26.127 100.69 26.6938C101.728 27.3364 102.74 28.0049 103.755 28.6818C104.625 29.2616 105.356 30.0354 106.112 30.7579C107.132 31.7325 108.076 32.892 109.27 33.6593C109.475 33.7909 109.734 33.7604 109.916 33.937C110.226 34.2373 110.592 34.4624 110.9 34.7545C111.114 34.9569 111.299 35.1656 111.46 35.4085" stroke="white" stroke-width="3" stroke-linecap="round"/>
<path d="M91.0934 21.5813C91.143 22.077 91.4878 22.4704 91.8979 22.7128C92.123 22.8458 92.321 23.0501 92.5519 23.1332C92.9194 23.2655 93.2644 23.4142 93.6159 23.59" stroke="white" stroke-width="3" stroke-linecap="round"/>
<path d="M92.7284 22.609C92.8888 22.8277 93.2168 22.9664 93.4369 23.1151C93.7549 23.3298 94.0705 23.5475 94.3893 23.7613C94.8182 24.0489 95.2565 24.3427 95.661 24.6644C95.886 24.8434 96.147 25.073 96.3513 25.2717C96.6255 25.5383 96.9766 25.711 97.2752 25.9776C97.7657 26.4155 98.3047 26.795 98.8219 27.1973C98.9915 27.3292 99.0983 27.5174 99.2683 27.6437C99.4281 27.7624 99.5908 27.8664 99.7354 28.007C100.072 28.3345 100.516 28.4771 100.877 28.7648C101.477 29.2421 102.228 29.4464 102.772 29.9897" stroke="white" stroke-width="3" stroke-linecap="round"/>
<path d="M100.109 28.5883C100.86 29.1822 101.603 29.7963 102.351 30.3841C102.463 30.4718 102.564 30.5686 102.678 30.654C102.795 30.7414 102.949 30.7789 103.052 30.8772C103.267 31.0813 103.595 31.1962 103.776 31.417C104.294 32.0503 105.067 32.5181 105.691 33.0468C106.312 33.5717 106.888 34.1446 107.56 34.6117C107.962 34.8916 108.351 35.1765 108.743 35.4707C109.026 35.683 109.309 36.0074 109.628 36.1558C109.867 36.2669 110.978 37.3896 111.097 37.0797C111.252 36.6765 111.455 36.2871 111.658 35.9222C111.703 35.8412 111.781 35.8013 111.858 35.7588C111.958 35.7028 111.882 35.6041 111.951 35.5485C112.044 35.4745 112.182 35.3299 112.255 35.2215" stroke="white" stroke-width="3" stroke-linecap="round"/>
<path d="M87.6366 23.6833C87.324 23.7181 86.9737 24.2318 86.7958 24.4541C86.5149 24.8053 85.9906 24.9729 85.6306 25.2249C85.1038 25.5936 84.4238 25.7679 83.8529 26.0657C83.3404 26.3331 82.9359 26.6557 82.5241 27.0675C82.1872 27.4044 81.7044 27.6097 81.2836 27.8201C81.0198 27.952 80.7899 28.1347 80.5362 28.2846C80.3554 28.3914 79.9889 28.5636 79.8848 28.7543C79.7343 29.0303 79.4068 29.197 79.1608 29.3798C78.9357 29.547 78.705 29.6744 78.4575 29.8028C78.1943 29.9392 77.9363 30.1255 77.6659 30.2414C77.4453 30.336 77.1547 30.4296 76.9652 30.5736C76.4853 30.9383 75.8324 31.0695 75.3874 31.4741C75.1454 31.6941 74.8725 31.9102 74.5673 32.045C74.3659 32.134 74.1285 32.2456 73.9964 32.4291C73.8561 32.6239 73.4859 32.7702 73.2905 32.9118C73.1122 33.041 72.9261 33.1325 72.7455 33.2596C72.5374 33.406 72.3554 33.5337 72.1174 33.6333C71.8362 33.751 71.54 33.9227 71.2714 34.0693C70.9598 34.2393 70.6173 34.4209 70.3319 34.6247C70.0508 34.8255 69.6623 34.9355 69.5223 35.2683C69.1996 36.0346 70.8154 35.1461 71.043 35.0139C71.2049 34.9199 71.327 34.763 71.4998 34.6869C71.6555 34.6184 71.6966 34.6384 71.7749 34.4949C71.8218 34.4088 72.0002 34.281 72.0811 34.2406" stroke="white" stroke-width="3" stroke-linecap="round"/>
<path d="M69.0914 34.0537C68.7888 34.0537 68.8579 34.2151 68.8579 34.4741C68.8579 34.6523 68.7656 34.9897 68.8579 35.1281" stroke="white" stroke-width="3" stroke-linecap="round"/>
<path d="M66.8872 34.0181C66.936 34.0289 66.9379 34.1325 66.9467 34.1691C66.9631 34.237 66.9949 34.308 67.0309 34.368C67.0737 34.4393 67.1152 34.5372 67.1355 34.6185C67.1471 34.665 67.1875 34.723 67.2139 34.763C67.2668 34.8432 67.296 34.9289 67.3323 35.0171C67.4624 35.3344 67.62 35.6597 67.8093 35.9436C67.9048 36.0869 68.0191 36.2208 68.0896 36.3792C68.1587 36.5349 68.2299 36.6929 68.3052 36.8468C68.3331 36.9039 68.4028 37.1234 68.4947 37.1155C68.5463 37.1111 68.6041 37.0337 68.6399 36.9979C68.6836 36.9542 68.7291 36.9124 68.7757 36.873C68.8717 36.7917 68.9681 36.7111 69.1031 36.7437C69.1441 36.7536 69.2635 36.7677 69.2658 36.8251C69.2683 36.8884 69.2323 36.8982 69.1772 36.9194C69.1383 36.9345 69.0936 36.9364 69.056 36.9528C68.9694 36.9907 68.9287 37.0924 68.8766 37.1649C68.8466 37.2066 68.8086 37.2737 68.7619 37.2992C68.7101 37.3274 68.6446 37.3509 68.6 37.3899C68.5347 37.4471 68.4617 37.4313 68.3974 37.3761C68.377 37.3587 68.3481 37.283 68.3408 37.2592C68.3166 37.1805 68.2675 37.1022 68.2275 37.0298C68.0996 36.7979 67.959 36.5743 67.8158 36.3524C67.6693 36.1253 67.4966 35.8611 67.4622 35.5864" stroke="white" stroke-linecap="round"/>
<path d="M113.662 33.6782C113.754 33.6782 113.79 33.8774 113.842 33.9425C113.857 33.9611 113.855 34.0381 113.865 34.0645C113.884 34.1168 113.903 34.1733 113.91 34.2279C113.916 34.2768 113.914 34.472 113.986 34.3317C114.009 34.2874 114.015 34.2375 114.031 34.1908C114.042 34.158 114.067 34.1254 114.067 34.0899C114.067 34.0454 114.085 33.9821 114.053 34.0594C113.939 34.3355 113.789 34.5872 113.722 34.8799C113.678 35.0702 113.617 35.2943 113.508 35.4585C113.431 35.5746 113.406 35.7222 113.314 35.8303C113.242 35.914 113.203 36.0165 113.139 36.1062C113.101 36.1609 113.055 36.2162 113.029 36.2783C112.975 36.4052 112.887 36.5099 112.8 36.6159C112.665 36.7803 112.527 36.9435 112.396 37.1111C112.308 37.2234 112.253 37.3561 112.178 37.477C112.101 37.6013 112.021 37.7231 111.963 37.8575C111.916 37.9672 111.898 38.0841 111.838 38.1864C111.773 38.2981 111.606 38.3586 111.61 38.5008C111.614 38.6189 111.739 38.6435 111.836 38.6758C111.861 38.6841 111.888 38.6885 111.912 38.6743C112.017 38.6125 112.113 38.5174 112.201 38.4354C112.483 38.1744 112.801 37.9429 113.045 37.644C113.234 37.4131 113.361 37.1447 113.499 36.8831C113.554 36.7802 113.592 36.6688 113.635 36.5607C113.673 36.4641 113.672 36.3571 113.701 36.2572C113.849 35.7594 113.923 35.2338 114.125 34.7528C114.21 34.5524 114.314 34.3697 114.355 34.156C114.381 34.021 114.39 33.8734 114.433 33.7436" stroke="white" stroke-linecap="round"/>
<path d="M111.911 38.8667C111.911 39.0214 111.877 39.2213 111.77 39.3401C111.738 39.3756 111.78 39.5071 111.715 39.5071" stroke="white" stroke-linecap="round"/>
<path d="M89.2704 46.3865C89.1523 46.1857 89.1366 46.5285 89.1276 46.6088C89.0909 46.9395 89.1469 47.3007 89.1469 47.6356C89.1469 48.033 89.2418 48.4246 89.2677 48.8189C89.2917 49.1857 89.3198 49.5519 89.3198 49.9198C89.3198 50.101 89.3198 50.2822 89.3198 50.4634C89.3198 50.5656 89.292 50.6467 89.4214 50.635C89.8013 50.6004 90.1842 50.6116 90.5662 50.6116C90.7286 50.6116 90.8871 50.5869 91.0494 50.5869C91.1902 50.5869 91.4089 50.6608 91.5381 50.5869C91.6039 50.5493 91.703 50.5902 91.7605 50.5457C91.8712 50.4599 91.7604 50.1473 91.7413 50.0406C91.7004 49.8132 91.6858 49.5831 91.6561 49.3542C91.6193 49.07 91.7187 48.7908 91.7413 48.5087C91.7709 48.1385 91.7841 47.7597 91.7605 47.3885C91.7448 47.1417 91.7907 46.8987 91.7907 46.6514C91.7907 46.4952 91.7109 46.4275 91.6424 46.3014C91.5485 46.1284 91.3665 46.2637 91.2114 46.2931C90.8531 46.3611 90.4729 46.3334 90.1201 46.4249C90.0279 46.4488 89.9348 46.4827 89.8387 46.4853C89.7938 46.4865 89.7462 46.4785 89.7042 46.4977C89.5576 46.5643 89.7231 46.9679 89.7344 47.103C89.7815 47.668 89.7438 48.2517 89.7399 48.8189C89.738 49.0902 89.6724 49.3937 89.7536 49.6603C89.8093 49.8432 89.9144 50.0526 90.0721 50.1669C90.3338 50.3566 90.649 50.0912 90.849 49.9212C91.1654 49.6522 91.1759 49.3447 91.1977 48.9534C91.229 48.3887 91.1977 47.8172 91.1977 47.2513C91.1977 47.1863 91.2538 46.5878 91.118 46.6143C90.9807 46.6412 90.8284 46.8033 90.7309 46.8944C90.6113 47.0063 90.4562 47.1887 90.3988 47.3446C90.3142 47.574 90.3292 47.8765 90.3384 48.1161C90.348 48.3687 90.3713 48.6098 90.4578 48.8477C90.5277 49.04 90.6705 49.2558 90.6541 49.4695C90.6469 49.5632 90.4131 49.5354 90.3727 49.486C90.3238 49.4263 90.3084 49.2806 90.2835 49.2087C90.2234 49.0356 90.2093 48.8665 90.2093 48.6844" stroke="white" stroke-linecap="round"/>
<path d="M100.925 22.1102C100.996 22.1894 100.994 22.3527 101.004 22.4541C101.012 22.5365 100.924 22.2986 100.852 22.2576C100.805 22.2309 100.742 22.2381 100.687 22.2166C100.641 22.1986 100.508 22.1004 100.516 22.1038C100.577 22.1288 100.619 22.2226 100.643 22.2776C100.699 22.4058 100.748 22.5305 100.814 22.6543C100.956 22.9182 101.006 23.2227 101.141 23.4895C101.195 23.5946 101.205 23.4587 101.213 23.4167C101.247 23.2397 101.267 23.0608 101.285 22.8817C101.351 22.2504 101.438 21.616 101.425 20.9801C101.421 20.7602 101.408 20.5364 101.369 20.3195C101.343 20.1743 101.35 20.6142 101.343 20.7617C101.331 21.0659 101.322 21.3727 101.37 21.6743C101.413 21.9443 101.468 22.2128 101.515 22.4823C101.531 22.5797 101.546 22.68 101.569 22.7762C101.621 22.9946 101.519 22.3299 101.497 22.1065C101.454 21.663 101.419 21.2197 101.4 20.7745C101.393 20.6241 101.396 20.4693 101.376 20.3195C101.34 20.0537 101.429 20.8536 101.465 21.1193C101.551 21.7401 101.552 22.3601 101.597 22.9836C101.598 22.9899 101.656 23.4273 101.669 23.4158C101.682 23.4044 101.69 23.3392 101.693 23.3294C101.724 23.2145 101.756 23.1002 101.787 22.9855C101.875 22.6621 101.967 22.3382 102.075 22.021C102.091 21.9753 102.116 21.8499 102.141 21.8918C102.187 21.9716 102.198 22.1315 102.213 22.2139C102.305 22.6958 102.375 23.1828 102.396 23.6733C102.403 23.8331 102.419 24.3114 102.431 24.1519C102.503 23.1809 102.538 22.2048 102.627 21.2349C102.637 21.1259 102.66 20.8036 102.681 20.9109C102.772 21.3708 102.809 21.8488 102.861 22.314C102.926 22.8929 102.971 23.4728 103.014 24.0537C103.016 24.0794 103.018 24.1052 103.019 24.131C103.023 24.1734 103.021 24.1607 103.021 24.1064C103.021 23.9129 103.02 23.7194 103.018 23.5259C103.01 22.8042 103.024 22.0876 103.08 21.3677C103.097 21.14 103.113 20.9109 103.143 20.6844C103.157 20.5792 103.173 20.5015 103.192 20.6562C103.279 21.3457 103.324 22.0441 103.387 22.7362C103.414 23.0295 103.434 23.3226 103.445 23.6169C103.448 23.6929 103.436 23.8244 103.46 23.9044C103.479 23.9687 103.463 23.7704 103.463 23.7034C103.463 23.5004 103.465 23.2976 103.471 23.0946C103.485 22.5838 103.504 22.0777 103.458 21.5679C103.392 20.8359 103.508 23.0369 103.525 23.7716C103.529 23.9076 103.533 24.3147 103.545 24.1792C103.555 24.0689 103.545 23.9507 103.538 23.8407C103.523 23.5944 103.525 23.3434 103.496 23.0983C103.487 23.0188 103.463 22.9583 103.463 23.0801C103.467 23.6092 103.616 24.1134 103.718 24.626C103.746 24.7649 103.744 24.9119 103.782 25.0472C103.806 25.1347 103.782 24.963 103.782 24.959C103.76 24.7137 103.756 24.4681 103.75 24.222C103.72 22.9694 103.794 21.7181 103.669 20.4696C103.638 20.1585 103.562 19.8695 103.562 19.5552C103.562 19.2559 103.578 18.9556 103.578 18.6581C103.578 18.5914 103.577 18.5246 103.578 18.4579C103.58 18.3783 103.627 18.303 103.627 18.2232C103.627 18.1847 103.031 18.2122 102.95 18.2122C102.644 18.2122 102.351 18.2174 102.048 18.1722C101.94 18.1562 101.187 18.0244 101.187 18.154C101.187 18.2377 101.185 18.3215 101.187 18.4051C101.189 18.4872 101.218 18.5636 101.22 18.6453C101.224 18.8514 101.207 19.0553 101.191 19.2604C101.169 19.5317 101.186 19.7939 101.207 20.0648C101.223 20.2739 101.269 20.479 101.269 20.6889C101.269 20.8354 101.303 20.9706 101.318 21.1157C101.331 21.244 101.406 20.966 101.41 20.9555C101.494 20.6959 101.557 20.4335 101.614 20.1667C101.725 19.6408 101.843 19.1063 102.005 18.5935C102.026 18.5282 102.031 18.5218 102.056 18.5953C102.113 18.767 102.138 18.9486 102.191 19.1221C102.381 19.7489 102.559 20.3786 102.723 21.0128C102.729 21.0353 102.796 21.365 102.773 21.1875C102.754 21.0452 102.699 20.9042 102.669 20.7635C102.616 20.5149 102.575 20.2617 102.565 20.0074C102.557 19.7871 102.558 19.5637 102.564 19.3432C102.566 19.2685 102.582 19.2246 102.613 19.1594C102.651 19.0775 102.683 18.9982 102.697 18.9092C102.703 18.8774 102.749 18.6554 102.779 18.7454C102.892 19.0831 102.907 19.4525 102.939 19.8045C102.969 20.1241 102.988 20.4441 103.018 20.7635C103.021 20.7983 103.015 20.9056 103.041 20.8109C103.094 20.621 103.11 20.4193 103.14 20.2249C103.214 19.7361 103.272 19.2416 103.402 18.7636C103.46 18.5474 103.541 18.3405 103.611 18.1304" stroke="white" stroke-linecap="round"/>
<path d="M102.17 20.0793C102.17 20.1977 102.163 20.3105 102.139 20.4269C102.074 20.7369 102.033 21.0447 102.006 21.3605C101.967 21.8157 101.919 22.2931 101.973 22.7489" stroke="white" stroke-linecap="round"/>
<path d="M102.792 19.2604C102.718 20.1498 102.479 21.0166 102.337 21.8954C102.253 22.4142 102.209 22.9317 102.153 23.4531" stroke="white" stroke-linecap="round"/>
<path d="M69 39L70.5 41L73 44L75 45.5L78 47.5L81 49L83.5 50L85.5 50.5H88H93.5L97 50L99.5 49L102.5 47.5L105 46L108.5 43L111.5 40" stroke="black"/>
<path d="M68.5 39C83.3 29.8 89.6667 25.5 91 24.5L111 40" stroke="black"/>
<path d="M76.0376 39.6101C76.0151 39.8127 76.5245 39.4392 76.5862 39.4008C77.2992 38.9562 78.0286 38.4707 78.8182 38.178C79.4481 37.9445 80.0465 37.6087 80.6922 37.4242C81.1959 37.2803 81.6208 37.018 82.0845 36.7835C83.0598 36.2903 83.9746 35.7374 84.7898 35.0037C85.7778 34.1145 86.4251 32.8921 87.3882 31.9803C88.2752 31.1404 89.0951 30.2656 89.9112 29.3588C90.3081 28.9179 90.7928 28.5358 91.0754 28.002C91.1067 27.9429 91.1091 27.9421 91.1298 28.0146C91.193 28.2356 91.265 28.4559 91.3643 28.6637C91.601 29.1586 91.9479 29.6015 92.2647 30.0456C93.0707 31.1755 93.9893 32.1845 95.0767 33.0544C95.7236 33.572 96.4006 34.0494 97.0469 34.5682C98.5076 35.7408 99.8073 37.1177 101.207 38.3622C101.93 39.0044 102.716 39.5929 103.374 40.3011C103.588 40.5311 103.905 40.7787 104.063 41.0528C104.08 41.0817 103.994 41.05 103.965 41.0339C103.725 40.9028 103.495 40.7557 103.253 40.6277C100.848 39.3552 98.3377 38.2686 95.8828 37.0997C94.7307 36.5511 93.5899 35.9773 92.428 35.4497C91.4615 35.0109 90.4617 34.6429 89.505 34.183C89.0296 33.9544 88.5832 33.6844 88.1566 33.3748C87.8169 33.1282 87.431 32.8698 87.1537 32.5498C86.7502 32.0843 87.1625 31.4011 87.4594 31.0087C87.7473 30.6283 87.9278 30.0899 88.4749 30.0456C89.0306 30.0005 89.4621 30.5012 89.8275 30.8412C90.3881 31.363 91.0289 31.742 91.6156 32.2232C91.7504 32.3337 91.5432 32.3862 91.4523 32.4158C90.7905 32.6312 90.0544 32.6385 89.3668 32.6587C89.1195 32.6659 85.3631 32.6269 85.3865 32.9078C85.4029 33.1048 86.4519 33.3185 86.5192 33.3371C88.215 33.8034 89.9799 34.0458 91.7161 34.3044C93.3069 34.5413 94.9016 34.7184 96.5067 34.8195C97.1235 34.8583 97.0394 34.8443 97.5453 34.8697C97.6145 34.8732 97.9447 34.891 97.5495 34.897C94.2787 34.9461 91.0263 34.8468 87.7651 35.2006C87.1187 35.2707 86.3831 35.3035 85.7592 35.5167C85.3615 35.6526 86.3645 35.8364 86.3894 35.8413C87.588 36.0751 88.8293 36.1251 90.0452 36.193C91.6014 36.28 93.1606 36.2835 94.7165 36.3689C94.8182 36.3745 96.065 36.4428 95.0453 36.461C91.9379 36.5167 88.8266 36.4729 85.7194 36.4234C85.2086 36.4152 83.6839 36.3243 84.1867 36.415C84.3564 36.4456 84.5301 36.4462 84.7018 36.461C85.5751 36.5364 86.4478 36.6187 87.3212 36.6935C89.1093 36.8465 90.8997 36.9806 92.6918 37.0787C93.7976 37.1393 94.2065 37.1523 95.3112 37.1939C96.0685 37.2224 96.8617 37.2059 97.6165 37.3111C97.6599 37.3172 97.7716 37.3659 97.7295 37.3781C97.6281 37.4076 97.2033 37.4232 97.1768 37.4242C94.9437 37.5103 92.702 37.4599 90.4682 37.464C89.4328 37.4659 87.7709 37.4671 86.6616 37.4849C86.3157 37.4905 85.9521 37.4283 85.6252 37.5415C85.5154 37.5795 85.8452 37.6212 85.9602 37.6378C86.71 37.746 87.467 37.8239 88.2194 37.91C92.0981 38.3536 96.0122 38.4386 99.8862 38.9359C99.9554 38.9448 100.16 38.9666 100.091 38.9778C99.8776 39.0125 99.6588 39.0029 99.4423 39.0071C97.2662 39.0494 95.1 38.8979 92.9326 38.7203C90.6786 38.5355 88.4309 38.3676 86.1696 38.3036C85.1707 38.2753 84.5153 38.267 83.5544 38.2575C83.345 38.2555 83.1356 38.2544 82.9263 38.2534C82.8174 38.2528 82.6867 38.188 82.5996 38.2534C82.5312 38.3047 82.7699 38.2705 82.8551 38.2785C83.166 38.3077 83.4576 38.3334 83.7722 38.3497C87.781 38.5576 91.8006 38.6881 95.8137 38.7768C96.2568 38.7866 96.704 38.8354 97.1433 38.7768C97.5425 38.7236 96.3429 38.6833 95.9414 38.6512C92.9551 38.412 89.9685 38.1693 86.9757 38.0251C84.9163 37.9259 82.8423 37.8267 80.7801 37.9037C80.6198 37.9097 79.9936 37.9364 79.7416 37.9832C79.3202 38.0616 80.5968 38.0433 81.0251 38.0607C83.0498 38.1431 85.0699 38.2958 87.0929 38.4083C89.8795 38.5633 92.6704 38.6027 95.4577 38.7391C95.966 38.764 97.4887 38.8449 96.9799 38.8543C96.5605 38.862 96.2218 38.8486 95.7718 38.8333C93.2008 38.7463 90.6315 38.6143 88.0603 38.5339C85.7046 38.4603 83.3196 38.386 80.9811 38.7496C80.8651 38.7676 80.5257 38.8278 80.6419 38.8438C81.1073 38.908 81.665 38.8298 82.1264 38.8187C83.5156 38.7853 84.9023 38.7378 86.2889 38.6428C86.4686 38.6305 88.2621 38.4963 88.4916 38.4753C88.9095 38.437 90.0587 38.3602 89.7039 38.1361C89.3904 37.9381 88.4099 37.8785 88.2173 37.8618C87.3092 37.7833 86.5059 37.7634 85.5896 37.7843C83.1058 37.841 80.6385 38.1468 78.1649 38.3497C77.7473 38.3839 77.3228 38.3664 76.9044 38.3664C76.6014 38.3664 76.2784 38.3821 75.9832 38.2994C75.7676 38.239 75.8992 38.0272 75.9894 37.9016C76.2424 37.5492 76.6366 37.3287 77.0154 37.1373C77.827 36.7274 78.69 36.4334 79.5343 36.1009C81.3728 35.3767 83.0801 34.4242 84.7751 33.4229C85.641 32.9114 86.5317 32.4104 87.3316 31.796C87.3387 31.7906 87.6374 31.5754 87.518 31.6076C87.0594 31.731 86.6086 32.049 86.1968 32.2692C83.7956 33.5531 81.3582 34.7984 79.0171 36.1888C78.2208 36.6618 77.4604 37.2214 76.6406 37.6524C76.6192 37.6637 76.5582 37.6885 76.5694 37.6671C76.6062 37.5971 76.6729 37.5473 76.7265 37.4891C77.4356 36.7188 78.2912 36.0962 79.1574 35.5146C81.3136 34.0669 83.6026 32.8349 85.8743 31.5825C86.3538 31.3181 86.963 31.0637 87.3484 30.6486C87.3849 30.6092 87.4578 30.4691 87.4154 30.502C87.0368 30.7965 86.6752 31.0903 86.2701 31.3521C84.0206 32.8061 81.6094 34.0021 79.3793 35.4853C79.0655 35.6941 78.7608 35.9203 78.4874 36.1805C78.4688 36.1982 78.4138 36.252 78.4329 36.2349C78.5566 36.1243 78.6786 36.0132 78.8056 35.9062C79.8575 35.0193 81.1644 34.3449 82.3274 33.6344C83.6064 32.8531 84.8756 32.0209 86.2303 31.3731C86.4333 31.276 86.7743 31.1725 86.9296 31.0171" stroke="black" stroke-width="3" stroke-linecap="round"/>
<path d="M92.8467 28.9066C92.9986 28.9325 93.0749 28.9795 93.1859 29.0951C93.487 29.4085 93.7456 29.7704 94.0235 30.1043C94.7017 30.9194 95.3387 31.7627 96.0922 32.5122C97.2541 33.6679 98.5426 34.7106 99.9636 35.5314C100.652 35.9288 101.37 36.2777 102.08 36.6328" stroke="black" stroke-width="3" stroke-linecap="round"/>
<path d="M95.4096 29.698C95.7321 30.1312 96.0706 30.5443 96.4272 30.9501C97.2541 31.8912 98.0351 32.8293 98.99 33.649C100.439 34.8934 102.104 35.8268 103.513 37.1227" stroke="black" stroke-width="3" stroke-linecap="round"/>
<path d="M97.1056 31.0925C97.9949 31.0925 98.7623 31.8851 99.2622 32.5456C99.4139 32.7462 99.6245 32.8996 99.8003 33.0754C100.035 33.3099 100.24 33.6109 100.516 33.8061C100.826 34.0248 101.111 34.2855 101.402 34.5306C101.55 34.6551 101.703 34.7507 101.856 34.8656C102.027 34.9938 102.261 35.1538 102.399 35.3137C102.683 35.6427 102.996 35.9653 103.303 36.2726C103.489 36.4588 103.689 36.6215 103.89 36.7919C104.135 37.0007 104.342 37.2581 104.597 37.4535C105.048 37.7986 105.445 38.2328 105.83 38.647C106.082 38.9176 106.38 39.1444 106.641 39.405C106.659 39.4235 106.861 39.5735 106.856 39.5411C106.81 39.2371 106.425 38.9437 106.249 38.7098C106.095 38.5045 105.961 38.2763 105.791 38.0838C105.554 37.8158 105.982 38.1726 106.057 38.2324C106.642 38.7044 107.369 39.057 107.903 39.5913C108.091 39.7787 108.189 39.9251 108.429 40.0415C108.533 40.0918 108.683 40.2397 108.789 40.2509C108.87 40.2594 108.937 40.2624 109.015 40.2886" stroke="black" stroke-width="3" stroke-linecap="round"/>
<path d="M108.299 40.6278C107.814 40.6762 107.512 41.2855 107.206 41.5909C106.932 41.8652 106.493 41.8985 106.189 42.1353C106.02 42.2661 105.712 42.3718 105.508 42.4368C105.155 42.5492 104.8 42.6655 104.44 42.753C104.362 42.7719 104.202 42.8344 104.178 42.7195C104.112 42.397 104.279 41.9622 104.386 41.6663C104.508 41.3282 104.671 40.9982 104.851 40.6864C104.88 40.6349 105.02 40.3883 105.02 40.4016" stroke="black" stroke-width="3" stroke-linecap="round"/>
<path d="M106.528 41.3816C106.296 42.0547 105.886 42.6587 105.519 43.2577C105.383 43.4787 105.221 43.5788 105.001 43.6974C104.878 43.764 104.606 43.9098 104.606 43.7183" stroke="black" stroke-width="3" stroke-linecap="round"/>
<path d="M107.168 41.6453C107.009 42.0921 106.635 42.6741 106.189 42.8974C106.004 42.9895 105.705 43.0579 105.5 43.0963C104.448 43.2936 103.448 42.9983 102.403 42.8514C101.275 42.6928 100.219 42.2827 99.1428 41.9238C97.3761 41.3349 95.6032 41.0677 93.7513 41.013C93.4457 41.004 92.5285 41.0046 92.8342 41.0046C93.6169 41.0046 94.4013 41.0484 95.1834 41.0339C96.0542 41.0179 96.9294 40.986 97.7986 40.9313C98.253 40.9028 97.7568 40.849 97.6751 40.8455C95.4634 40.7503 93.2599 40.5228 91.0503 40.3911C89.8833 40.3216 88.7061 40.2987 87.5368 40.3283C87.474 40.3299 87.3817 40.3317 87.3149 40.3451C87.2476 40.3585 87.3331 40.3641 87.3484 40.366C87.9402 40.44 88.5385 40.4779 89.1323 40.5314C90.0632 40.6153 92.8601 40.7744 91.9255 40.7785C88.9746 40.7914 86.0374 40.4278 83.0958 40.2404C82.4647 40.2002 82.2831 40.1914 81.7349 40.1797C81.5925 40.1766 81.4459 40.1472 81.3077 40.1818C81.2375 40.1993 81.4445 40.23 81.515 40.2467C81.8092 40.316 82.045 40.3685 82.3504 40.4309C85.4743 41.0691 88.6739 41.2416 91.8333 41.6328C92.2521 41.6846 92.6713 41.7326 93.0896 41.7877C93.2202 41.8049 93.3577 41.8035 93.4791 41.8547C93.5295 41.876 93.3705 41.8709 93.3158 41.8715C92.8733 41.8763 92.4308 41.8774 91.9883 41.8798C90.2081 41.8898 88.4288 41.887 86.6491 41.8421C85.7829 41.8203 84.907 41.8245 84.0423 41.7605C82.4542 41.6429 87.224 41.9098 88.8161 41.9406C90.1608 41.9666 91.5061 41.9701 92.8509 41.9845C93.3574 41.9899 93.6001 41.9917 94.08 42.0034C94.1952 42.0062 94.3103 42.0105 94.4255 42.0138C94.4911 42.0158 94.6664 42.0624 94.6223 42.0138C94.5099 41.8902 93.8824 41.8296 93.7555 41.8003C92.9756 41.6199 92.2013 41.5073 91.402 41.4569C90.3787 41.3923 89.3528 41.3724 88.3283 41.3354C87.1335 41.2923 85.9434 41.1987 84.75 41.1386C83.6 41.0807 82.448 41.0773 81.2973 41.0444C80.7104 41.0276 81.4236 41.0078 81.492 41.0067C82.9526 40.9835 84.4257 40.969 85.8827 41.08C86.1928 41.1036 86.5021 41.1354 86.8124 41.1554C87.227 41.1821 85.9826 41.1013 85.5707 41.0465C83.3455 40.7503 81.1819 40.2214 79.015 39.6478" stroke="black" stroke-width="3" stroke-linecap="round"/>
<path d="M81.2386 43.7182C79.8887 43.0983 78.7456 42.0723 77.6959 41.0402C77.4349 40.7836 77.1744 40.5257 76.9191 40.2634C76.8133 40.1547 76.6969 40.0523 76.6406 39.9116" stroke="black" stroke-width="3" stroke-linecap="round"/>
<path d="M77.922 42.6629C77.1537 42.1716 76.3915 41.5552 75.7528 40.9041C75.6183 40.767 75.4723 40.6035 75.4723 40.4016" stroke="black" stroke-width="3" stroke-linecap="round"/>
<path d="M80.5226 45.3388C79.2858 45.104 78.037 44.5672 76.9484 43.9465C76.5385 43.7127 76.1273 43.4608 75.7487 43.178C75.2146 42.7793 74.8467 42.2584 74.417 41.7584" stroke="black" stroke-width="3" stroke-linecap="round"/>
<path d="M77.2813 44.9997C75.7454 44.1358 74.2347 43.1123 73.1607 41.6936C72.9446 41.4081 72.7167 41.1081 72.5702 40.7786" stroke="black" stroke-width="3" stroke-linecap="round"/>
<path d="M72.5702 40.8162C72.3483 40.8162 72.1895 40.6571 72.0049 40.5545C71.8456 40.466 71.6741 40.4105 71.5715 40.2509C71.4849 40.1161 71.3995 40.0104 71.3349 39.874C71.2654 39.7272 71.2367 39.5843 71.1569 39.4406C71.0858 39.3126 70.9349 39.3922 70.8742 39.271" stroke="black" stroke-width="3" stroke-linecap="round"/>
<path d="M72.7964 39.8739C72.8145 39.3488 73.2398 39.0346 73.6967 38.8605C74.1795 38.6766 74.6987 38.608 75.2043 38.5172C75.7043 38.4273 76.1871 38.2976 76.6699 38.1403C77.485 37.8747 78.3041 37.4686 78.9815 36.9384C79.0026 36.9219 79.3277 36.5919 79.3123 36.5908C79.2358 36.5854 79.0966 36.6655 79.0297 36.6872C78.9 36.729 78.77 36.7521 78.6381 36.7835" stroke="black" stroke-width="3" stroke-linecap="round"/>
<path d="M71.628 38.5926C71.9545 38.5926 72.279 38.5917 72.6016 38.5339C72.7622 38.5052 73.0136 38.4762 73.1481 38.3685C73.253 38.2846 73.3556 38.3094 73.4748 38.2617C73.5193 38.2439 73.6079 38.2115 73.6234 38.157C73.67 37.9941 73.9697 37.8501 74.0987 37.7508C74.6182 37.3512 75.2167 37.042 75.8198 36.7835C76.1469 36.6433 76.4362 36.3583 76.6364 36.0716C76.823 35.8044 77.1134 35.7168 77.3651 35.5398C77.626 35.3561 77.8815 35.164 78.1482 34.9912C78.4679 34.784 78.8569 34.6701 79.1658 34.4384C79.5055 34.1836 79.8551 33.992 80.2169 33.7642C80.3717 33.6667 80.4946 33.5246 80.6377 33.4292C80.8075 33.316 80.9781 33.2361 81.1591 33.1361C81.5592 32.915 81.9819 32.6587 82.34 32.3739C82.6251 32.1471 82.9734 31.9697 83.2361 31.7332C83.5363 31.4631 83.9307 31.3296 84.2705 31.1134C84.7849 30.7861 85.3236 30.5687 85.8827 30.3304C86.2662 30.1669 86.6286 29.9534 87.005 29.7734C87.2602 29.6514 87.5128 29.5567 87.7567 29.4195C87.8553 29.3641 87.952 29.3195 88.0603 29.2834" stroke="black" stroke-width="3" stroke-linecap="round"/>
<path d="M85.4221 30.2634C85.4574 30.0516 85.5776 29.8935 85.7529 29.7818C86.0252 29.6083 86.3031 29.4188 86.5904 29.2751C86.7608 29.1899 86.9625 29.0764 87.1474 29.028C87.3998 28.9619 87.6754 28.7842 87.8886 28.6344C88.0278 28.5365 88.2047 28.504 88.3409 28.4083C88.5629 28.2522 88.8002 28.1069 89.0151 27.9434C89.436 27.6231 89.8835 27.3873 90.3719 27.1897C90.5289 27.1261 90.705 27.0609 90.8492 26.9761C91.0533 26.8561 90.9246 26.8224 90.9246 26.6453" stroke="black" stroke-width="3" stroke-linecap="round"/>
<path d="M91.9045 26.6075C91.7644 27.0803 92.048 27.539 92.3212 27.9078C92.6269 28.3206 93.0873 28.594 93.5084 28.8689C94.0886 29.2475 94.5288 29.8349 95.0138 30.3199C95.1821 30.4881 95.3539 30.6757 95.485 30.8747C95.6681 31.1529 95.7596 31.4748 95.9749 31.7332" stroke="black" stroke-width="3" stroke-linecap="round"/>
<path d="M95.9372 41.5322C93.814 41.6931 95.8827 44.3224 95.8995 45.3848C95.9004 45.4381 95.8927 45.8478 95.9016 45.6968C95.9434 44.9863 96.259 44.2436 96.4858 43.5758C96.5625 43.35 96.6386 43.1227 96.7035 42.8932C96.7424 42.7558 96.7515 42.7129 96.8061 42.8869C96.9829 43.4504 97.1228 44.0438 97.2479 44.6206C97.2914 44.821 97.3228 45.4347 97.3317 45.2299C97.3593 44.5954 97.7887 44.1803 98.3828 43.9611C98.9649 43.7462 99.6196 43.7082 100.234 43.691C100.566 43.6816 101.132 43.6155 101.457 43.7559C101.683 43.854 101.083 44.0945 100.853 44.1872C100.195 44.4535 99.4507 44.5663 98.7471 44.6311C98.4856 44.6551 98.2107 44.6782 97.9515 44.6206C97.6076 44.5442 98.4126 44.5473 98.4163 44.5473C99.6745 44.5389 100.931 44.4705 102.162 44.1956C102.262 44.1733 102.993 43.9533 102.968 44.1788C102.93 44.5337 102.831 44.8997 102.533 45.1127" stroke="black" stroke-width="3" stroke-linecap="round"/>
<path d="M104.681 44.3966C104.578 44.5078 104.492 44.6848 104.371 44.7735C104.255 44.8581 104.112 44.9056 104.005 44.9996C103.92 45.0734 103.85 45.1823 103.756 45.2425C103.662 45.3021 103.474 45.3419 103.362 45.3765C103.055 45.4711 102.756 45.5844 102.434 45.6403C102.207 45.6799 101.99 45.774 101.758 45.789C101.478 45.8071 101.193 45.7911 100.912 45.7911" stroke="black" stroke-width="3" stroke-linecap="round"/>
<path d="M102.005 45.0751C101.798 45.1211 101.519 45.3288 101.346 45.452C101.017 45.6853 100.665 45.8961 100.326 46.1136C99.8839 46.3969 99.354 46.5069 98.8434 46.6203C98.7371 46.6439 98.6023 46.7252 98.5084 46.7794C98.3376 46.8782 98.1549 46.9424 97.9808 47.0349C97.8159 47.1225 97.2917 47.2876 97.4783 47.282C97.696 47.2754 97.9276 47.1287 98.0855 46.9972" stroke="black" stroke-width="3" stroke-linecap="round"/>
<path d="M101.289 45.8665C101.074 45.9619 100.907 46.0897 100.77 46.281C100.663 46.43 100.63 46.5091 100.46 46.5909C100.332 46.6525 100.205 46.7015 100.083 46.7626C99.6618 46.9732 99.238 47.0301 98.7827 47.129C98.4786 47.1951 98.1859 47.2779 97.8782 47.3007C97.6359 47.3187 97.3665 47.3793 97.1432 47.4661C97.0078 47.5188 96.8885 47.5713 96.7454 47.619C96.6975 47.635 96.1995 47.7886 96.3895 47.7886" stroke="black" stroke-width="3" stroke-linecap="round"/>
<path d="M98.3116 47.1479C98.0335 47.185 97.8578 47.2889 97.6374 47.4306C97.5305 47.4993 97.478 47.6494 97.3505 47.6777C97.2297 47.7045 97.1685 47.8655 97.0804 47.8975C97.0688 47.9018 96.7324 47.9347 96.8082 48.0294C96.8287 48.055 97.2522 47.8933 97.294 47.8829C97.5158 47.8274 97.7519 47.765 97.9263 47.6086C98.0533 47.4948 98.199 47.4239 98.3493 47.3448C98.4336 47.3004 98.5126 47.2294 98.6047 47.194C98.7145 47.1518 98.7753 47.0311 98.8769 46.9972" stroke="black" stroke-width="3" stroke-linecap="round"/>
<path d="M96.8041 48.5046C97.018 48.5046 96.6981 48.6697 96.6512 48.6931C96.529 48.7542 96.2391 48.7647 96.0963 48.7224C95.8825 48.659 95.4866 48.5022 95.3342 48.7308" stroke="black" stroke-width="3" stroke-linecap="round"/>
<path d="M93.8559 49.953C93.8661 49.9065 93.8502 49.8566 93.8416 49.8111C93.8277 49.7371 93.8225 49.6637 93.8188 49.5886C93.8143 49.4973 93.8 49.4105 93.7821 49.3212C93.7743 49.2825 93.7823 49.2425 93.776 49.2035C93.7749 49.1967 93.7637 49.1284 93.7582 49.1379C93.7246 49.1956 93.7149 49.2723 93.6958 49.3355C93.6604 49.4526 93.6377 49.5755 93.6377 49.6977C93.6377 49.7379 93.6829 49.8722 93.607 49.8696C93.5918 49.869 93.5029 49.8683 93.5029 49.8471C93.5029 49.7903 93.506 49.7252 93.525 49.671C93.5427 49.6206 93.5343 49.562 93.5493 49.5116C93.5641 49.4614 93.5508 49.3993 93.5336 49.3511C93.511 49.2879 93.5157 49.2051 93.5157 49.1376C93.5157 49.083 93.5286 49.0317 93.5286 48.9768C93.5286 48.9149 93.5222 48.8532 93.5222 48.7914C93.5222 48.7529 93.5251 48.7136 93.5172 48.6759C93.5096 48.6399 93.5168 48.5996 93.5125 48.5628C93.5077 48.521 93.5083 48.4799 93.5143 48.4384C93.5334 48.3073 93.5175 48.1716 93.535 48.0405C93.541 47.9955 93.5423 47.9512 93.5414 47.9057C93.5408 47.8723 93.5286 47.8391 93.5286 47.8059C93.5286 47.6721 93.5286 47.5394 93.5286 47.4052" stroke="black" stroke-linecap="round"/>
<path d="M94.7281 49.3676C94.6667 48.9372 94.5685 48.5097 94.5072 48.0779C94.4175 47.4456 94.3591 46.8111 94.2794 46.1779C94.2274 45.7652 94.1602 45.3559 94.1869 44.938C94.2096 44.5812 94.2559 44.226 94.2559 43.8679C94.2559 43.7929 94.2559 43.7178 94.2559 43.6428C94.2559 43.4795 94.3518 43.9552 94.4092 44.1081C94.7548 45.0299 95.0791 45.9743 95.239 46.9484C95.2804 47.2006 95.3184 47.46 95.3246 47.7161C95.3252 47.7404 95.2539 47.4798 95.2418 47.4483C95.099 47.0774 94.9297 46.7172 94.7861 46.3464C94.5434 45.7196 94.3244 45.0863 94.1026 44.452C94.0633 44.3394 94.0252 44.2264 93.9825 44.115C93.9683 44.0779 93.9031 43.8871 93.919 44.046C93.9435 44.2912 93.9953 44.5374 94.0336 44.7806C94.1375 45.4408 94.1896 46.102 94.2021 46.7703C94.2097 47.1811 94.1843 47.5909 94.1565 48.0006C94.1544 48.031 94.1194 48.0256 94.1013 48.0475C94.0196 48.1461 93.8826 48.3933 93.7809 48.2408C93.4417 47.732 93.3915 47.0513 93.328 46.4679C93.2294 45.5617 93.2799 44.6623 93.2866 43.7533C93.2873 43.6543 93.2866 43.5554 93.2866 43.4564C93.2866 43.2038 93.3831 43.9523 93.4357 44.1993C93.5414 44.6953 93.69 45.1825 93.7643 45.685C93.8288 46.1205 93.8334 46.5602 93.8334 46.9995C93.8334 47.101 93.8388 47.2931 93.8279 47.0589C93.8044 46.5566 93.7941 46.0539 93.7892 45.5511C93.7829 44.8988 93.8309 44.2525 93.8527 43.6014C93.855 43.5318 93.9232 43.0229 93.803 43.0021C93.7406 42.9913 93.5731 43.0246 93.5324 43.0325C93.1936 43.0983 92.8589 43.1804 92.5189 43.241C91.1988 43.4763 89.8569 43.5325 88.5187 43.56C87.4849 43.5812 86.4518 43.5765 85.4188 43.5268C85.3982 43.5258 84.2755 43.4688 84.2755 43.4771C84.2755 43.5922 88.9671 43.5743 89.1829 43.5724C90.6148 43.5599 92.0454 43.4944 93.4771 43.4785C93.5324 43.4779 93.5876 43.4771 93.6428 43.4771C93.6982 43.4771 93.6356 43.482 93.6235 43.4826C93.0219 43.5149 92.4179 43.5242 91.816 43.5434C90.2649 43.5928 88.7147 43.6545 87.1669 43.7698C86.867 43.7922 86.5628 43.8112 86.2639 43.8486C86.2242 43.8535 86.1242 43.8586 86.1507 43.8886C86.2185 43.9655 86.3548 43.9092 86.4572 43.9148C86.8373 43.9356 87.2172 43.9556 87.5977 43.9687C89.0139 44.0175 90.4311 44.0407 91.8478 44.0681C92.425 44.0793 94.1566 44.0985 93.5793 44.0985C92.8751 44.0985 92.1709 44.0969 91.4667 44.0999C90.5968 44.1035 89.7297 44.1175 88.8639 44.2076C88.4119 44.2546 89.0425 44.2797 89.1359 44.2835C90.3471 44.3328 91.5824 44.2854 92.7895 44.1786C92.7968 44.1779 92.8986 44.173 92.8047 44.173C92.6422 44.173 92.4797 44.1751 92.3173 44.1786C91.4141 44.1981 90.5116 44.2172 89.6082 44.2283C89.1271 44.2342 88.6408 44.2655 88.1597 44.2462C87.8308 44.2331 88.8178 44.2216 89.147 44.2241C90.6603 44.2355 92.1767 44.33 93.687 44.4188C94.71 44.479 91.638 44.3344 90.6134 44.3525C90.3159 44.3578 90.021 44.3749 89.7269 44.4202C89.706 44.4234 89.4903 44.4431 89.448 44.4713C89.4078 44.4981 89.5446 44.4713 89.593 44.4713C89.9156 44.4713 90.2383 44.4718 90.5609 44.4713C91.2777 44.4703 91.9941 44.4556 92.7108 44.4478C92.8291 44.4465 93.184 44.4464 93.0657 44.4464C92.9455 44.4464 92.8254 44.4464 92.7053 44.4464C91.5681 44.4464 90.4353 44.4609 89.2989 44.492C88.4853 44.5143 90.9262 44.4464 91.7401 44.4464C92.1046 44.4464 92.4692 44.4464 92.8337 44.4464C92.935 44.4464 92.7558 44.4812 92.7453 44.4837C92.4071 44.5655 92.0128 44.5187 91.6738 44.5155C91.0837 44.5099 90.4676 44.4537 89.8788 44.5072C89.6275 44.53 90.3736 44.6101 90.6244 44.637C91.2787 44.7072 91.9413 44.7182 92.599 44.7198C92.8281 44.7204 93.0603 44.7294 93.2893 44.7184C93.3835 44.714 93.1017 44.7012 93.0077 44.695C92.6219 44.6693 92.2353 44.6719 91.8492 44.6549C91.2853 44.6302 90.7234 44.5768 90.1591 44.5597C89.443 44.5379 88.7055 44.5109 87.9885 44.55C87.1666 44.5948 86.3393 44.6701 85.5155 44.6701C83.8235 44.6701 88.8977 44.5602 90.5885 44.4961C91.5774 44.4587 92.5671 44.446 93.5558 44.4092C93.8948 44.3965 93.5331 44.3968 93.5186 44.3967C93.0269 44.3941 92.5355 44.3903 92.0439 44.3829C90.8261 44.3646 89.6141 44.3057 88.3986 44.2338C87.3282 44.1704 86.257 44.1652 85.1869 44.1123C85.0343 44.1047 84.8512 44.1024 84.7036 44.0488C84.567 43.9991 84.9773 43.9459 85.1206 43.9217C85.7634 43.8132 86.418 43.7483 87.0675 43.6925C87.1228 43.6878 87.2887 43.6764 87.2332 43.676C86.9527 43.6738 86.6729 43.6763 86.3923 43.669C85.0764 43.6349 83.7516 43.5663 82.4446 43.4053C82.2507 43.3814 82.0576 43.3518 81.8647 43.3211C81.7116 43.2967 81.2813 43.2393 81.4228 43.1761C81.5551 43.117 81.7036 43.1038 81.8453 43.0739C82.1798 43.0036 82.9578 42.8746 83.3007 42.7646C83.3749 42.7408 83.5229 42.7161 83.4995 42.6417C83.4721 42.5547 83.3273 42.5777 83.2372 42.563C83.0606 42.5343 82.8811 42.527 82.7028 42.5119C82.1547 42.4656 81.6053 42.4364 81.0555 42.4194C80.878 42.414 80.4346 42.34 80.2505 42.4208C80.2379 42.4264 80.2561 42.452 80.2685 42.4581C80.3642 42.5054 80.8693 42.6633 80.8926 42.6707C81.9818 43.0196 83.0677 43.3775 84.1402 43.7754C84.4443 43.8882 85.7583 44.1956 85.3498 44.7751C85.1085 45.1174 84.6498 45.4079 84.2645 45.5649C83.9268 45.7024 83.9939 45.3176 84.0077 45.0954C84.0376 44.6104 84.0833 44.1291 84.0905 43.6428C84.0939 43.4134 84.1009 43.1855 84.1181 42.9566C84.1245 42.8713 84.1307 42.786 84.1402 42.7011C84.1484 42.6279 84.1237 42.4534 84.1899 42.4857C84.2758 42.5276 84.2474 42.6684 84.2673 42.7619C84.3325 43.0696 84.3915 43.3718 84.4067 43.687C84.4494 44.5722 84.4473 45.4662 84.4357 46.3519C84.4332 46.5463 84.4321 46.7411 84.4136 46.9346C84.3868 47.2159 84.3326 47.0175 84.2907 46.896C83.9977 46.0447 83.8665 45.1282 83.6625 44.2531C83.4865 43.4986 83.2175 42.7369 83.1212 41.9665C83.1139 41.9083 83.1096 42.0833 83.106 42.1419C83.0807 42.5519 83.0596 42.9621 83.0356 43.3722C82.9848 44.2392 82.9429 45.106 82.903 45.9736C82.902 45.9967 82.898 46.0657 82.8975 46.0426C82.8936 45.8676 82.8902 45.6929 82.8837 45.5179C82.8722 45.2086 82.8597 44.8991 82.8423 44.59C82.8364 44.4869 82.8296 44.3838 82.8229 44.2807C82.8128 44.1232 82.74 43.9462 82.8147 43.8071C82.8266 43.7848 82.8708 43.8171 82.8837 43.8389C82.9706 43.9851 83.1507 44.5049 83.1902 44.6204C83.3393 45.056 83.4673 45.4976 83.5824 45.9432C83.6459 46.1889 83.7198 46.4427 83.7426 46.6971C83.743 46.7018 83.7773 47.0624 83.7025 47.0368C83.6009 47.0021 83.5786 46.8595 83.5368 46.7606C83.3853 46.4019 83.2966 46.024 83.2399 45.6394C83.1534 45.0517 83.0722 44.3079 83.2538 43.7284C83.3418 43.4476 83.4949 43.53 83.6556 43.6994C83.9766 44.0379 84.2193 44.4645 84.444 44.869C84.6503 45.2402 84.8664 45.6341 84.9797 46.0468C85.116 46.543 85.2023 47.0723 85.2559 47.5836C85.2914 47.922 85.1954 47.5734 85.1786 47.5118C85.0751 47.133 84.9664 46.7428 85.0212 46.3464C85.0507 46.1331 85.0984 45.9222 85.1537 45.714C85.2507 45.3492 85.5449 44.3997 85.7364 44.0543C86.1426 43.3216 86.3997 44.1396 86.5014 44.5141C86.7709 45.5071 86.8623 46.5662 86.8742 47.5919C86.8767 47.8043 86.8662 48.0173 86.8424 48.2284C86.8411 48.2401 86.837 48.5558 86.6919 48.5294C86.5516 48.5039 86.4969 48.1057 86.482 48.031C86.3904 47.5687 86.3623 47.0938 86.3495 46.6239C86.3277 45.8232 86.3592 45.0139 86.471 44.22C86.4821 44.1414 86.4955 44.0631 86.511 43.9852C86.523 43.9255 86.5193 43.8017 86.5787 43.8154C86.6602 43.8342 86.7142 44.2172 86.7195 44.2448C86.9358 45.3655 87.0133 46.5232 87.073 47.6609C87.0913 48.009 87.1127 48.3589 87.1186 48.7076C87.1198 48.7782 87.1195 48.9127 87.0758 48.7545C86.9003 48.1197 86.8301 47.4546 86.7154 46.8076C86.546 45.8525 86.3229 44.9034 86.0029 43.9866C85.9777 43.9145 85.9639 43.7476 85.8966 43.7837C85.8211 43.8241 85.8317 44.351 85.8317 44.3512C85.7957 45.1402 85.7684 45.9409 85.8082 46.7303C85.8702 47.9566 85.7789 46.0179 85.84 47.2812C85.8437 47.359 85.845 47.4368 85.8496 47.5146C85.8572 47.6399 85.8627 47.5643 85.8717 47.4787C85.9378 46.8513 85.9697 46.2268 86.0927 45.6063C86.1503 45.3153 86.3341 44.4448 86.2666 44.7336C86.1586 45.1961 86.1337 45.7182 86.0816 46.1835C86.0278 46.6647 85.9795 47.1462 85.9297 47.6278" stroke="black" stroke-linecap="round"/>
<path d="M87.1724 44.7198C87.4404 45.1969 87.421 45.7023 87.421 46.2346C87.421 46.7444 87.4145 47.2462 87.4707 47.7521" stroke="black" stroke-linecap="round"/>
<path d="M87.6695 44.5707C87.7614 45.1332 87.7781 45.6888 87.7634 46.258C87.7513 46.7274 87.678 47.1859 87.6502 47.6526C87.6161 48.2257 87.5381 48.824 87.6447 49.3924" stroke="black" stroke-linecap="round"/>
<path d="M81.6295 43.1766C81.6055 44.2757 81.545 45.3891 81.6665 46.485C81.7189 46.9581 81.8029 47.4639 82.03 47.8896C82.1556 48.1252 82.323 48.3391 82.4612 48.5673C82.5397 48.697 82.7387 48.9401 82.4674 48.8815C81.527 48.6782 80.9152 48.2746 80.2033 47.6185C79.7124 47.1661 79.234 46.7038 78.8264 46.1738C78.6778 45.9807 78.5196 45.7795 78.315 45.6409C78.188 45.5549 78.0127 45.7265 77.9023 45.7703C77.63 45.8783 77.2356 45.8723 76.9504 45.8104C76.649 45.7448 77.4231 46.6213 77.4957 46.6944C78.3181 47.5227 79.1996 48.0312 80.3635 48.213C80.7347 48.2711 81.2146 48.3768 81.5925 48.3209C81.6667 48.3099 81.4862 48.2136 81.4231 48.173C80.863 47.8125 80.9653 47.8868 80.2988 47.4491C79.587 46.9817 78.8557 46.5172 78.2257 45.9397C78.0357 45.7656 77.5341 45.193 77.7544 45.3267C77.9707 45.4581 78.1695 45.7284 78.352 45.8997C78.9268 46.4392 79.5303 46.9366 80.1417 47.4337C80.4841 47.7121 80.8125 48.0105 81.1613 48.2808C81.4379 48.4952 81.1186 48.3105 81.0134 48.2469C79.9532 47.606 78.8993 46.9431 77.8468 46.2878C77.6645 46.1743 77.108 45.8599 77.3108 45.9305C77.6709 46.0557 78.0334 46.3997 78.3304 46.6205C78.6535 46.8607 78.9881 47.1069 79.2576 47.4091C79.2671 47.4197 79.5313 47.7886 79.4301 47.7849C79.2938 47.7798 79.0664 47.5082 78.9742 47.4337C78.6508 47.1722 78.3633 46.9088 78.121 46.5681C77.5691 45.7925 79.3157 46.214 79.6057 46.2755C81.066 46.585 82.784 47.208 83.7365 48.4379C83.7655 48.4754 83.9836 48.784 83.8782 48.863C83.7854 48.9326 83.4874 48.5303 83.4654 48.5057C82.4973 47.4241 81.4797 46.3788 80.6715 45.1666C80.5971 45.055 80.3925 44.7169 80.4282 44.8462C80.5231 45.1902 80.7816 45.5185 80.9888 45.798C81.3814 46.3275 81.8379 46.7989 82.2733 47.292C82.5758 47.6347 82.9354 48.0153 83.0465 48.4749C83.215 49.1721 82.7663 48.3134 82.6399 48.1268C82.2144 47.4987 81.8465 46.7346 81.5556 46.0352C81.3106 45.4462 81.2684 46.4416 81.266 46.6451C81.2605 47.1233 81.2727 47.646 81.4324 48.1021C81.4822 48.2446 81.3991 48.1082 81.3738 48.059C81.2283 47.7757 81.1444 47.4616 81.0196 47.1688C80.943 46.989 80.8671 46.8003 80.7547 46.639C80.6388 46.4727 80.9887 46.9703 81.1151 47.1288C81.3615 47.4378 81.6055 47.7477 81.8051 48.0898C81.8338 48.1391 82.0376 48.4357 81.9961 48.5118C81.9324 48.6286 81.5578 48.3043 81.5371 48.287C81.1571 47.9693 80.8104 47.6049 80.613 47.1442C80.5113 46.907 80.3272 46.4769 80.4158 46.2077C80.523 45.8824 81.1578 45.9699 81.3892 45.989C81.8083 46.0236 82.2144 46.1197 82.6121 46.2539C82.7882 46.3134 83.1422 46.3984 83.2251 46.602C83.2939 46.7707 82.5674 46.5449 82.5167 46.5096C81.8716 46.0611 81.816 45.0745 81.879 44.3687C81.8851 44.3003 81.8987 44.0982 81.9129 44.1654C81.9655 44.4151 82.0813 44.667 82.1747 44.9016C82.3922 45.4478 82.6689 45.9548 82.9387 46.4757C83.084 46.7565 83.281 47.1135 83.3114 47.4399C83.322 47.5542 83.0863 47.3653 83.0034 47.2859C82.7217 47.0161 82.5233 46.6639 82.3626 46.3125C82.1388 45.8229 81.7539 44.2608 82.0022 44.7384C82.1765 45.0735 82.2898 45.4403 82.4581 45.7795C82.8147 46.498 83.2629 47.1637 83.681 47.8465C83.8722 48.1586 84.0589 48.4733 84.254 48.7829C84.4244 49.0533 84.1866 48.589 84.1739 48.5673C83.8704 48.0491 82.7212 46.6605 83.1358 47.0949C83.9328 47.9299 84.8681 48.6638 85.8558 49.2573C86.0675 49.3846 86.2815 49.5174 86.4965 49.6393C86.6189 49.7086 86.3587 49.3925 86.2716 49.2819C85.7687 48.6428 85.4542 47.8963 84.9686 47.2489C84.941 47.2121 84.462 46.6158 84.371 46.7067C84.1316 46.9462 85.0567 48.4231 85.1719 48.6535C85.2964 48.9025 85.4676 49.1708 85.5231 49.4483C85.5821 49.7433 85.0352 49.195 85.0118 49.171C84.6874 48.8396 84.4227 48.4517 84.1739 48.0621C84.0548 47.8756 83.8366 47.6056 83.8012 47.3752C83.7812 47.2452 84.3868 47.8877 84.4111 47.9142C84.8319 48.3755 85.3901 48.7163 85.9174 49.0417C86.252 49.2481 86.4404 49.2758 86.8415 49.2758C86.9303 49.2758 87.1439 49.2366 87.1711 49.3589C87.1875 49.4326 87.1812 49.6696 87.2851 49.6208C87.3971 49.568 87.4827 49.5377 87.6116 49.5561C87.6661 49.5639 87.8643 49.7248 87.7471 49.7625C87.4459 49.8593 87.0571 49.6592 86.7984 49.5407C86.3366 49.3292 85.8036 49.0064 85.289 48.9493C84.8993 48.906 84.5372 49.054 84.1493 49.054C84.0312 49.054 83.7084 48.9937 83.604 49.0632C83.4112 49.1918 84.1848 49.4767 84.2355 49.4976C84.6927 49.6855 85.1615 49.9541 85.6217 50.1075" stroke="black" stroke-linecap="round"/>
<path d="M82.4278 48.8211C82.8673 48.774 83.2993 49.0953 83.6748 49.2897C83.8686 49.39 84.0213 49.4758 84.0213 49.7003" stroke="black" stroke-linecap="round"/>
<line x1="92.5" y1="51" x2="92.5" y2="45" stroke="white"/>
<line x1="87.5" y1="51" x2="87.5" y2="45" stroke="white"/>
<line x1="87" y1="44.5" x2="93" y2="44.5" stroke="white"/>
<path d="M91.7968 46.1009C91.7968 45.9118 91.8013 45.7206 91.7678 45.5362C91.7304 45.3306 91.7022 45.2938 91.4823 45.3103C90.9234 45.3521 90.3522 45.2508 89.8002 45.3316C89.5766 45.3644 89.3486 45.4029 89.1225 45.4125C89.0241 45.4167 88.9241 45.4038 88.8279 45.4278C88.6885 45.4627 88.6483 45.4509 88.6036 45.585C88.5573 45.7237 88.5822 45.8966 88.5822 46.0414C88.5822 46.2426 88.4661 45.795 88.4509 45.7285C88.4294 45.6344 88.3915 45.5483 88.3349 45.469C88.3134 45.4389 88.3034 45.3681 88.2861 45.4415C88.2609 45.5487 88.2749 45.6912 88.2861 45.7987C88.3215 46.1415 88.3624 46.4687 88.3624 46.8153C88.3624 47.1029 88.283 47.3542 88.2464 47.6334C88.2198 47.836 88.238 47.9802 88.2922 48.1738C88.3267 48.2971 88.3378 48.3303 88.3288 48.1494C88.3022 47.6131 88.2836 47.0769 88.2586 46.5405C88.2479 46.3116 88.2428 46.0812 88.1838 45.8583C88.156 45.7534 88.1426 45.6785 88.1426 45.5682C88.1426 45.3606 88.0897 45.2291 88.0327 45.0294" stroke="white" stroke-linecap="round"/>
<path d="M88.0327 48.3539C87.9452 48.5071 88.0385 48.6871 88.0571 48.8408C88.0789 49.0203 88.0876 49.2221 88.0876 49.404C88.0876 49.5461 88.0899 49.6745 88.1151 49.8131C88.13 49.8947 88.1701 49.9822 88.1701 50.0634C88.1701 50.3298 88.7274 50.0531 88.8417 50.0238C89.2725 49.913 89.7627 50.1063 90.188 49.9749C90.5032 49.8775 90.838 49.7782 91.171 49.8162C91.384 49.8404 91.5934 49.8782 91.8075 49.894C91.9383 49.9037 92.0861 49.8901 91.9677 50.0085C91.8406 50.1356 91.9512 50.3909 91.7632 50.4359C91.4903 50.5011 91.3262 50.5133 91.0763 50.4145C90.9807 50.3767 90.8664 50.3716 90.7649 50.358C90.6059 50.3368 90.4531 50.2797 90.2918 50.2771C90.0054 50.2727 89.6993 50.3348 89.4187 50.3992C89.0524 50.4834 88.6915 50.4594 88.3197 50.4695C88.2837 50.4704 88.1039 50.5291 88.1624 50.5229C88.3775 50.5002 88.5868 50.4439 88.802 50.4206C89.4236 50.3534 90.0296 50.2094 90.6489 50.3535C90.7106 50.3678 90.753 50.4074 90.8123 50.4252C90.9129 50.4554 91.0204 50.4516 91.1221 50.4832C91.2461 50.5217 91.3658 50.5281 91.4946 50.5244C91.6375 50.5203 91.7894 50.4695 91.9342 50.4695" stroke="white" stroke-linecap="round"/>
<path d="M92.099 50.7443C91.7904 50.7443 91.4867 50.6804 91.1923 50.7855C91.0977 50.8193 90.938 50.8107 90.8413 50.7932C90.6792 50.7637 90.5159 50.7718 90.3513 50.7718C89.9349 50.7718 89.519 50.7993 89.1042 50.7993C88.948 50.7993 88.7034 50.8434 88.5669 50.7565C88.481 50.7018 88.2954 50.6777 88.4723 50.6069" stroke="white" stroke-linecap="round"/>
<path d="M90.5879 51.1014C90.552 51.1014 90.5475 51.103 90.5329 51.074" stroke="white" stroke-linecap="round"/>
<path d="M90.6703 51.3213C90.8165 51.2678 91.0249 51.2014 91.1099 51.074" stroke="white" stroke-linecap="round"/>
<path d="M2.85511 104.182V74.1818H7.00284V77.7188H7.35795C7.60417 77.2642 7.95928 76.7386 8.4233 76.142C8.88731 75.5455 9.53125 75.0246 10.3551 74.5795C11.179 74.125 12.268 73.8977 13.6222 73.8977C15.3835 73.8977 16.9555 74.3428 18.3381 75.233C19.7206 76.1231 20.8049 77.4062 21.5909 79.0824C22.3864 80.7585 22.7841 82.7756 22.7841 85.1335C22.7841 87.4915 22.3911 89.5133 21.6051 91.1989C20.8191 92.875 19.7396 94.1676 18.3665 95.0767C16.9934 95.9763 15.4261 96.4261 13.6648 96.4261C12.339 96.4261 11.2547 96.2036 10.4119 95.7585C9.5786 95.3134 8.92519 94.7926 8.4517 94.196C7.97822 93.5994 7.61364 93.0691 7.35795 92.6051H7.10227V104.182H2.85511ZM7.01705 85.0909C7.01705 86.625 7.23958 87.9697 7.68466 89.125C8.12974 90.2803 8.77367 91.1847 9.61648 91.8381C10.4593 92.482 11.4915 92.804 12.7131 92.804C13.982 92.804 15.0426 92.4678 15.8949 91.7955C16.7472 91.1136 17.3911 90.1903 17.8267 89.0256C18.2718 87.8608 18.4943 86.5492 18.4943 85.0909C18.4943 83.6515 18.2765 82.3589 17.8409 81.2131C17.4148 80.0672 16.7708 79.1629 15.9091 78.5C15.0568 77.8371 13.9915 77.5057 12.7131 77.5057C11.482 77.5057 10.4403 77.8229 9.58807 78.4574C8.74527 79.0919 8.10606 79.9773 7.67045 81.1136C7.23485 82.25 7.01705 83.5758 7.01705 85.0909ZM36.733 96.4403C34.6875 96.4403 32.9025 95.9716 31.3778 95.0341C29.8532 94.0966 28.6695 92.785 27.8267 91.0994C26.9839 89.4138 26.5625 87.4441 26.5625 85.1903C26.5625 82.9271 26.9839 80.9479 27.8267 79.2528C28.6695 77.5578 29.8532 76.2415 31.3778 75.304C32.9025 74.3665 34.6875 73.8977 36.733 73.8977C38.7784 73.8977 40.5634 74.3665 42.0881 75.304C43.6127 76.2415 44.7964 77.5578 45.6392 79.2528C46.482 80.9479 46.9034 82.9271 46.9034 85.1903C46.9034 87.4441 46.482 89.4138 45.6392 91.0994C44.7964 92.785 43.6127 94.0966 42.0881 95.0341C40.5634 95.9716 38.7784 96.4403 36.733 96.4403ZM36.7472 92.875C38.0729 92.875 39.1714 92.5246 40.0426 91.8239C40.9138 91.1231 41.5578 90.1903 41.9744 89.0256C42.4006 87.8608 42.6136 86.5777 42.6136 85.1761C42.6136 83.7841 42.4006 82.5057 41.9744 81.3409C41.5578 80.1667 40.9138 79.2244 40.0426 78.5142C39.1714 77.804 38.0729 77.4489 36.7472 77.4489C35.4119 77.4489 34.304 77.804 33.4233 78.5142C32.5521 79.2244 31.9034 80.1667 31.4773 81.3409C31.0606 82.5057 30.8523 83.7841 30.8523 85.1761C30.8523 86.5777 31.0606 87.8608 31.4773 89.0256C31.9034 90.1903 32.5521 91.1231 33.4233 91.8239C34.304 92.5246 35.4119 92.875 36.7472 92.875ZM65.4652 86.9517V74.1818H69.7266V96H65.5504V92.2216H65.3232C64.8213 93.3864 64.0163 94.357 62.9084 95.1335C61.8099 95.9006 60.4415 96.2841 58.8033 96.2841C57.4018 96.2841 56.1612 95.9763 55.0817 95.3608C54.0116 94.7358 53.1688 93.8125 52.5533 92.5909C51.9472 91.3693 51.6442 89.8589 51.6442 88.0597V74.1818H55.8913V87.5483C55.8913 89.035 56.3033 90.2187 57.1271 91.0994C57.951 91.9801 59.0211 92.4205 60.3374 92.4205C61.1328 92.4205 61.9235 92.2216 62.7095 91.8239C63.505 91.4261 64.1631 90.8248 64.6839 90.0199C65.2143 89.215 65.4747 88.1922 65.4652 86.9517ZM74.7656 90.3182V86.767L87.3366 66.9091H90.1349V72.1364H88.3594L79.3679 86.3693V86.5966H96.598V90.3182H74.7656ZM88.5582 96V89.2386L88.5866 87.6193V66.9091H92.7486V96H88.5582ZM105.852 83.0455V96H101.605V66.9091H105.795V77.733H106.065C106.577 76.5587 107.358 75.6259 108.409 74.9347C109.46 74.2434 110.833 73.8977 112.528 73.8977C114.025 73.8977 115.331 74.2055 116.449 74.821C117.576 75.4366 118.447 76.3551 119.062 77.5767C119.688 78.7888 120 80.304 120 82.1222V96H115.753V82.6335C115.753 81.0331 115.341 79.7926 114.517 78.9119C113.693 78.0218 112.547 77.5767 111.08 77.5767C110.076 77.5767 109.176 77.7898 108.381 78.2159C107.595 78.642 106.974 79.267 106.52 80.0909C106.075 80.9053 105.852 81.8902 105.852 83.0455ZM135.071 96.4403C132.921 96.4403 131.07 95.9811 129.517 95.0625C127.973 94.1345 126.78 92.8324 125.938 91.1562C125.104 89.4706 124.688 87.4962 124.688 85.233C124.688 82.9981 125.104 81.0284 125.938 79.3239C126.78 77.6193 127.955 76.2888 129.46 75.3324C130.975 74.3759 132.746 73.8977 134.773 73.8977C136.004 73.8977 137.197 74.1013 138.352 74.5085C139.508 74.9157 140.545 75.5549 141.463 76.4261C142.382 77.2973 143.106 78.429 143.636 79.821C144.167 81.2036 144.432 82.8845 144.432 84.8636V86.3693H127.088V83.1875H140.27C140.27 82.0701 140.043 81.0805 139.588 80.2188C139.134 79.3475 138.494 78.661 137.67 78.1591C136.856 77.6572 135.9 77.4062 134.801 77.4062C133.608 77.4062 132.566 77.6998 131.676 78.2869C130.795 78.8646 130.114 79.6222 129.631 80.5597C129.157 81.4877 128.92 82.4962 128.92 83.5852V86.071C128.92 87.5294 129.176 88.7699 129.688 89.7926C130.208 90.8153 130.933 91.5966 131.861 92.1364C132.789 92.6667 133.873 92.9318 135.114 92.9318C135.919 92.9318 136.652 92.8182 137.315 92.5909C137.978 92.3542 138.551 92.0038 139.034 91.5398C139.517 91.0758 139.886 90.5028 140.142 89.821L144.162 90.5455C143.84 91.7292 143.262 92.7661 142.429 93.6562C141.605 94.5369 140.568 95.2235 139.318 95.7159C138.078 96.1989 136.662 96.4403 135.071 96.4403ZM153.391 66.9091V96H149.144V66.9091H153.391ZM159.105 104.182V74.1818H163.253V77.7188H163.608C163.854 77.2642 164.209 76.7386 164.673 76.142C165.137 75.5455 165.781 75.0246 166.605 74.5795C167.429 74.125 168.518 73.8977 169.872 73.8977C171.634 73.8977 173.205 74.3428 174.588 75.233C175.971 76.1231 177.055 77.4062 177.841 79.0824C178.636 80.7585 179.034 82.7756 179.034 85.1335C179.034 87.4915 178.641 89.5133 177.855 91.1989C177.069 92.875 175.99 94.1676 174.616 95.0767C173.243 95.9763 171.676 96.4261 169.915 96.4261C168.589 96.4261 167.505 96.2036 166.662 95.7585C165.829 95.3134 165.175 94.7926 164.702 94.196C164.228 93.5994 163.864 93.0691 163.608 92.6051H163.352V104.182H159.105ZM163.267 85.0909C163.267 86.625 163.49 87.9697 163.935 89.125C164.38 90.2803 165.024 91.1847 165.866 91.8381C166.709 92.482 167.741 92.804 168.963 92.804C170.232 92.804 171.293 92.4678 172.145 91.7955C172.997 91.1136 173.641 90.1903 174.077 89.0256C174.522 87.8608 174.744 86.5492 174.744 85.0909C174.744 83.6515 174.527 82.3589 174.091 81.2131C173.665 80.0672 173.021 79.1629 172.159 78.5C171.307 77.8371 170.241 77.5057 168.963 77.5057C167.732 77.5057 166.69 77.8229 165.838 78.4574C164.995 79.0919 164.356 79.9773 163.92 81.1136C163.485 82.25 163.267 83.5758 163.267 85.0909Z" fill="black"/>
</svg>
