<svg width="253" height="58" viewBox="0 0 253 58" fill="none" xmlns="http://www.w3.org/2000/svg">
<circle cx="25.5" cy="26.5" r="25.5" fill="#FF7A00"/>
<line x1="0.725735" y1="33.6388" x2="26.7257" y2="16.5819" stroke="white"/>
<line x1="50.5293" y1="35.118" x2="25.699" y2="16.3992" stroke="white"/>
<line x1="46.6571" y1="40.4524" x2="25.231" y2="23.9666" stroke="white"/>
<line x1="3.24956" y1="39.4473" x2="26.5208" y2="24.2668" stroke="white"/>
<line x1="39.5" y1="27" x2="39.5" y2="19" stroke="white"/>
<line x1="35.5" y1="23" x2="35.5" y2="19" stroke="white"/>
<line x1="35" y1="18.5" x2="40" y2="18.5" stroke="white"/>
<line x1="23.5" y1="52" x2="23.5" y2="47" stroke="white"/>
<line x1="27.9926" y1="46.5694" x2="22.9931" y2="46.4999" stroke="white"/>
<line x1="27.5" y1="52" x2="27.5" y2="47" stroke="white"/>
<path d="M7.96865 32.7648C8.11712 32.7648 8.23295 32.7033 8.36312 32.6325C8.85979 32.3622 9.33658 32.0637 9.81643 31.7657C10.5596 31.3041 11.3791 30.9234 12.1495 30.5018C12.6139 30.2477 13.2578 30.0991 13.6417 29.7284C13.8906 29.4881 14.1647 29.2207 14.4385 29.0096C14.8484 28.6933 15.393 28.5742 15.8606 28.3738C16.3721 28.1546 16.878 27.938 17.3658 27.6705C18.7309 26.9219 20.0397 26.0472 21.256 25.0805C22.0294 24.4657 22.7462 23.6462 23.3373 22.8616C23.5553 22.5722 23.7019 22.2354 23.9913 22.0104C24.2079 21.8419 24.4057 21.6476 24.6349 21.4965C24.7729 21.4056 24.9416 21.291 25.0657 21.1799C25.2288 21.034 25.2998 21.6476 25.3253 21.7508C25.4001 22.0549 25.3095 22.4136 25.2733 22.7162C25.2619 22.8122 25.2215 22.9453 25.2993 23.0277C25.36 23.092 25.4719 23.2171 25.4862 23.1886" stroke="white" stroke-width="3" stroke-linecap="round"/>
<path d="M24.1782 24.0294C24.0644 24.2053 23.6972 24.2907 23.6176 24.4498" stroke="white" stroke-width="3" stroke-linecap="round"/>
<path d="M22.4498 22.5813C22.2079 22.5813 21.9567 22.7941 21.7491 22.8979C21.415 23.0649 21.0534 23.1712 20.7214 23.3391C20.2368 23.5842 19.8076 23.9468 19.3927 24.2863C18.7153 24.8406 17.9376 25.28 17.1712 25.7111C16.7612 25.9417 16.3833 26.2293 15.9774 26.4403C15.431 26.7245 14.8923 26.9994 14.3788 27.3461C13.0159 28.266 11.4449 28.8369 10.2317 29.988C10.0303 30.179 9.79848 30.3049 9.56729 30.4499C9.38679 30.5631 9.19598 30.8065 9.04306 30.9637C8.88952 31.1217 8.73383 31.282 8.60188 31.4568C8.38137 31.749 7.9784 31.9302 7.70914 32.1809C7.36029 32.5057 7.00354 32.8765 6.60359 33.1385C6.08109 33.4808 5.47924 33.743 4.91153 33.9975C4.54214 34.1631 4.12554 34.2553 3.76445 34.3998C3.66081 34.4412 3.5812 34.5533 3.48417 34.6126C3.3581 34.6896 3.24352 34.7468 3.11047 34.8098C2.88347 34.9173 2.91509 34.6078 2.85354 34.4724C2.77577 34.3013 2.7436 34.1841 2.54991 34.1195" stroke="white" stroke-width="3" stroke-linecap="round"/>
<path d="M2.8769 33.559C3.00534 33.4539 3.19191 33.4377 3.34663 33.3929C3.57826 33.3258 3.80169 33.1908 4.03695 33.1437C4.20083 33.111 4.32854 33.0889 4.47554 32.9984C4.88043 32.7493 5.20391 32.4314 5.63299 32.2043C5.93334 32.0453 6.25174 31.9065 6.56466 31.7657C6.80781 31.6563 7.02489 31.5236 7.26795 31.3998C7.59132 31.235 7.90887 31.0607 8.18405 30.8262C8.46923 30.5833 8.83992 30.4455 9.11054 30.1749C9.51392 29.7715 10.1062 29.6008 10.4938 29.1939C10.771 28.9028 11.208 28.7834 11.5085 28.5243C11.6967 28.3621 11.996 28.2412 12.217 28.1169C12.68 27.8564 13.1089 27.5827 13.5768 27.3253C13.8045 27.2001 13.9924 27.0502 14.2282 26.9257C14.4644 26.801 14.7437 26.6304 14.9549 26.4689C15.3439 26.1715 15.7853 25.9417 16.1798 25.6437C16.7177 25.2372 17.3437 24.8911 17.7785 24.3668C18.1672 23.898 18.7806 23.5649 19.2837 23.2353C19.4966 23.0958 19.7464 23.0284 19.948 22.8772C20.374 22.5577 20.914 22.3228 21.3935 22.0934C21.6115 21.9892 21.8168 21.8559 22.0294 21.7405C22.14 21.6805 22.2207 21.5686 22.3122 21.4836C22.4574 21.3488 22.6537 21.3013 22.8183 21.2007C22.9904 21.0955 23.2488 20.9359 23.3944 20.7959C23.5752 20.6221 23.81 20.5152 23.9913 20.3339C24.3671 19.9582 24.8979 19.7145 25.3227 19.3841C25.4558 19.2805 25.5736 19.2151 25.7301 19.1609C25.8907 19.1053 25.9839 18.9431 26.1401 18.891" stroke="white" stroke-width="3" stroke-linecap="round"/>
<path d="M26.5138 19.0311C26.5301 19.161 26.953 19.2843 27.0485 19.3607C27.2998 19.5618 27.5927 19.7606 27.7725 20.0303C27.9869 20.3519 28.3073 20.6533 28.6159 20.8893C28.7507 20.9923 28.856 21.1262 28.9948 21.2318C29.2186 21.4022 29.4821 21.5037 29.7059 21.6678C29.9739 21.8643 30.2879 21.9989 30.5546 22.2076C31.1018 22.6359 31.6831 23.0861 32.2803 23.4274C32.344 23.4637 32.3346 23.5697 32.4231 23.609C32.5148 23.6498 32.5915 23.7343 32.68 23.7855C32.8721 23.8967 33.1007 24.0919 33.2873 24.2267C33.9287 24.69 34.6087 25.1037 35.2466 25.5502C35.7204 25.8819 36.2379 26.1202 36.7441 26.4015C36.8147 26.4407 36.8467 26.5187 36.9231 26.5624C37.1331 26.6824 37.363 26.8228 37.5382 26.9932C37.7085 27.1587 38.0964 27.388 38.1922 27.5797" stroke="white" stroke-width="3" stroke-linecap="round"/>
<path d="M37.7718 28C38.1424 28.1283 38.4449 28.4896 38.7761 28.7033C39.0868 28.9037 39.4017 29.0925 39.7078 29.2872C39.9068 29.4139 40.0919 29.5487 40.2839 29.6817C40.5099 29.8381 40.8016 29.9298 41.0054 30.1125C41.2318 30.3155 41.547 30.3739 41.7683 30.5952C42.0605 30.8873 42.4152 31.0441 42.7208 31.3115C42.9271 31.492 43.2163 31.6336 43.4448 31.7942C43.75 32.0086 44.0217 32.2484 44.2909 32.5104C44.7714 32.9784 45.2794 33.476 45.8065 33.8859C45.9397 33.9895 46.1957 34.2394 46.367 34.2596C46.4778 34.2726 46.6255 34.4926 46.7407 34.5502C46.9548 34.6573 47.1209 34.8822 47.2987 35.0304C47.5393 35.2308 47.381 35.3807 47.7684 35.3807" stroke="white" stroke-width="3" stroke-linecap="round"/>
<path d="M25.8131 21.1799C26.2741 21.3155 26.7003 21.729 27.1107 21.9689C28.1667 22.586 29.2306 23.2041 30.2457 23.8867C31.1878 24.5202 32.1188 25.1719 33.0433 25.8305C33.9205 26.4554 34.7747 27.127 35.6904 27.6938C36.7285 28.3364 37.7401 29.0049 38.7553 29.6818C39.6251 30.2616 40.3556 31.0354 41.1118 31.7579C42.1317 32.7325 43.0765 33.892 44.2701 34.6593C44.4748 34.7909 44.7342 34.7604 44.9163 34.937C45.226 35.2373 45.5916 35.4624 45.8999 35.7545C46.1135 35.9569 46.2985 36.1656 46.4604 36.4085" stroke="white" stroke-width="3" stroke-linecap="round"/>
<path d="M26.0934 22.5813C26.143 23.077 26.4878 23.4704 26.8979 23.7128C27.123 23.8458 27.321 24.0501 27.5519 24.1332C27.9194 24.2655 28.2644 24.4142 28.6159 24.59" stroke="white" stroke-width="3" stroke-linecap="round"/>
<path d="M27.7284 23.609C27.8888 23.8277 28.2168 23.9664 28.4369 24.1151C28.7549 24.3298 29.0705 24.5475 29.3893 24.7613C29.8182 25.0489 30.2565 25.3427 30.661 25.6644C30.886 25.8434 31.147 26.073 31.3513 26.2717C31.6255 26.5383 31.9766 26.711 32.2752 26.9776C32.7657 27.4155 33.3047 27.795 33.8219 28.1973C33.9915 28.3292 34.0983 28.5174 34.2683 28.6437C34.4281 28.7624 34.5908 28.8664 34.7354 29.007C35.0722 29.3345 35.516 29.4771 35.8773 29.7648C36.4767 30.2421 37.2284 30.4464 37.7718 30.9897" stroke="white" stroke-width="3" stroke-linecap="round"/>
<path d="M35.1091 29.5883C35.8603 30.1822 36.6032 30.7963 37.3513 31.3841C37.4629 31.4718 37.5644 31.5686 37.6783 31.654C37.7948 31.7414 37.9485 31.7789 38.052 31.8772C38.2669 32.0813 38.5955 32.1962 38.7761 32.417C39.2942 33.0503 40.0665 33.5181 40.6913 34.0468C41.3117 34.5717 41.8885 35.1446 42.5599 35.6117C42.9623 35.8916 43.3511 36.1765 43.7433 36.4707C44.0263 36.683 44.3092 37.0074 44.6282 37.1558C44.8671 37.2669 45.9779 38.3896 46.0971 38.0797C46.2522 37.6765 46.455 37.2871 46.6577 36.9222C46.7027 36.8412 46.781 36.8013 46.8575 36.7588C46.9583 36.7028 46.8815 36.6041 46.9509 36.5485C47.0435 36.4745 47.1824 36.3299 47.2546 36.2215" stroke="white" stroke-width="3" stroke-linecap="round"/>
<path d="M22.6366 24.6833C22.324 24.7181 21.9737 25.2318 21.7958 25.4541C21.5149 25.8053 20.9906 25.9729 20.6306 26.2249C20.1038 26.5936 19.4238 26.7679 18.8529 27.0657C18.3404 27.3331 17.9358 27.6557 17.5241 28.0675C17.1872 28.4044 16.7044 28.6097 16.2836 28.8201C16.0198 28.952 15.7899 29.1347 15.5362 29.2846C15.3554 29.3914 14.9889 29.5636 14.8848 29.7543C14.7343 30.0303 14.4068 30.197 14.1608 30.3798C13.9357 30.547 13.705 30.6744 13.4575 30.8028C13.1943 30.9392 12.9363 31.1255 12.6659 31.2414C12.4453 31.336 12.1547 31.4296 11.9652 31.5736C11.4853 31.9383 10.8324 32.0695 10.3874 32.4741C10.1454 32.6941 9.87248 32.9102 9.56729 33.045C9.36594 33.134 9.12851 33.2456 8.99635 33.4291C8.85609 33.6239 8.48592 33.7702 8.29046 33.9118C8.11219 34.041 7.92606 34.1325 7.74547 34.2596C7.53741 34.406 7.35544 34.5337 7.11743 34.6333C6.83621 34.751 6.54004 34.9227 6.2714 35.0693C5.95978 35.2393 5.61726 35.4209 5.33195 35.6247C5.05077 35.8255 4.66234 35.9355 4.52225 36.2683C4.19959 37.0346 5.81539 36.1461 6.04303 36.0139C6.20493 35.9199 6.32699 35.763 6.49978 35.6869C6.65547 35.6184 6.69659 35.6384 6.77487 35.4949C6.82181 35.4088 7.00023 35.281 7.0811 35.2406" stroke="white" stroke-width="3" stroke-linecap="round"/>
<path d="M4.09145 35.0537C3.78877 35.0537 3.85788 35.2151 3.85788 35.4741C3.85788 35.6523 3.76557 35.9897 3.85788 36.1281" stroke="white" stroke-width="3" stroke-linecap="round"/>
<path d="M1.88718 35.0181C1.93602 35.0289 1.93789 35.1325 1.94672 35.1691C1.9631 35.237 1.99491 35.308 2.03094 35.368C2.0737 35.4393 2.11517 35.5372 2.1355 35.6185C2.14712 35.665 2.18752 35.723 2.21391 35.763C2.26684 35.8432 2.29605 35.9289 2.33226 36.0171C2.46241 36.3344 2.62002 36.6597 2.80929 36.9436C2.90479 37.0869 3.01914 37.2208 3.08955 37.3792C3.15875 37.5349 3.22989 37.6929 3.3052 37.8468C3.3331 37.9039 3.40278 38.1234 3.4947 38.1155C3.54632 38.1111 3.60412 38.0337 3.63992 37.9979C3.6836 37.9542 3.72912 37.9124 3.77569 37.873C3.87172 37.7917 3.96809 37.7111 4.10315 37.7437C4.14411 37.7536 4.26349 37.7677 4.26579 37.8251C4.26832 37.8884 4.23228 37.8982 4.17721 37.9194C4.13826 37.9345 4.09363 37.9364 4.05595 37.9528C3.96941 37.9907 3.92867 38.0924 3.87661 38.1649C3.84662 38.2066 3.80859 38.2737 3.7619 38.2992C3.71011 38.3274 3.64463 38.3509 3.59998 38.3899C3.53466 38.4471 3.46172 38.4313 3.39741 38.3761C3.37703 38.3587 3.34809 38.283 3.34077 38.2592C3.31656 38.1805 3.26746 38.1022 3.22751 38.0298C3.09961 37.7979 2.959 37.5743 2.81583 37.3524C2.66933 37.1253 2.49657 36.8611 2.46223 36.5864" stroke="white" stroke-linecap="round"/>
<path d="M48.6621 34.6782C48.7536 34.6782 48.7901 34.8774 48.8422 34.9425C48.857 34.9611 48.8552 35.0381 48.8647 35.0645C48.8835 35.1168 48.9029 35.1733 48.9097 35.2279C48.9158 35.2768 48.9144 35.472 48.986 35.3317C49.0085 35.2874 49.0152 35.2375 49.031 35.1908C49.0421 35.158 49.0673 35.1254 49.0673 35.0899C49.0673 35.0454 49.0846 34.9821 49.0528 35.0594C48.9391 35.3355 48.7887 35.5872 48.7217 35.8799C48.678 36.0702 48.6169 36.2943 48.5082 36.4585C48.4314 36.5746 48.4059 36.7222 48.3136 36.8303C48.2422 36.914 48.2025 37.0165 48.1394 37.1062C48.1008 37.1609 48.0553 37.2162 48.029 37.2783C47.9753 37.4052 47.8866 37.5099 47.7996 37.6159C47.6645 37.7803 47.5269 37.9435 47.3959 38.1111C47.3081 38.2234 47.2527 38.3561 47.178 38.477C47.1014 38.6013 47.0212 38.7231 46.9631 38.8575C46.9158 38.9672 46.8979 39.0841 46.8382 39.1864C46.7731 39.2981 46.6062 39.3586 46.6103 39.5008C46.6136 39.6189 46.7392 39.6435 46.8361 39.6758C46.8611 39.6841 46.8882 39.6885 46.9123 39.6743C47.017 39.6125 47.1129 39.5174 47.2013 39.4354C47.4826 39.1744 47.8008 38.9429 48.045 38.644C48.2337 38.4131 48.361 38.1447 48.4995 37.8831C48.5539 37.7802 48.592 37.6688 48.6345 37.5607C48.6725 37.4641 48.6717 37.3571 48.7013 37.2572C48.849 36.7594 48.9233 36.2338 49.1254 35.7528C49.2095 35.5524 49.3135 35.3697 49.3548 35.156C49.3809 35.021 49.3899 34.8734 49.4332 34.7436" stroke="white" stroke-linecap="round"/>
<path d="M46.9108 39.8667C46.9108 40.0214 46.8769 40.2213 46.77 40.3401C46.738 40.3756 46.7802 40.5071 46.7148 40.5071" stroke="white" stroke-linecap="round"/>
<path d="M24.2704 47.3865C24.1523 47.1857 24.1366 47.5285 24.1276 47.6088C24.0909 47.9395 24.1469 48.3007 24.1469 48.6356C24.1469 49.033 24.2418 49.4246 24.2677 49.8189C24.2917 50.1857 24.3198 50.5519 24.3198 50.9198C24.3198 51.101 24.3198 51.2822 24.3198 51.4634C24.3198 51.5656 24.292 51.6467 24.4214 51.635C24.8013 51.6004 25.1842 51.6116 25.5662 51.6116C25.7286 51.6116 25.8871 51.5869 26.0494 51.5869C26.1902 51.5869 26.4089 51.6608 26.5381 51.5869C26.6039 51.5493 26.703 51.5902 26.7605 51.5457C26.8712 51.4599 26.7604 51.1473 26.7413 51.0406C26.7004 50.8132 26.6858 50.5831 26.6561 50.3542C26.6193 50.07 26.7187 49.7908 26.7413 49.5087C26.7709 49.1385 26.7841 48.7597 26.7605 48.3885C26.7448 48.1417 26.7907 47.8987 26.7907 47.6514C26.7907 47.4952 26.7109 47.4275 26.6424 47.3014C26.5485 47.1284 26.3666 47.2637 26.2114 47.2931C25.8531 47.3611 25.4729 47.3334 25.1201 47.4249C25.0279 47.4488 24.9348 47.4827 24.8387 47.4853C24.7938 47.4865 24.7462 47.4785 24.7042 47.4977C24.5576 47.5643 24.7231 47.9679 24.7344 48.103C24.7815 48.668 24.7438 49.2517 24.7399 49.8189C24.738 50.0902 24.6724 50.3937 24.7536 50.6603C24.8093 50.8432 24.9144 51.0526 25.0721 51.1669C25.3338 51.3566 25.649 51.0912 25.849 50.9212C26.1654 50.6522 26.1759 50.3447 26.1977 49.9534C26.229 49.3887 26.1977 48.8172 26.1977 48.2513C26.1977 48.1863 26.2538 47.5878 26.1181 47.6143C25.9807 47.6412 25.8284 47.8033 25.731 47.8944C25.6113 48.0063 25.4562 48.1887 25.3988 48.3446C25.3143 48.574 25.3292 48.8765 25.3384 49.1161C25.348 49.3687 25.3713 49.6098 25.4578 49.8477C25.5277 50.04 25.6705 50.2558 25.6541 50.4695C25.6469 50.5632 25.4131 50.5354 25.3727 50.486C25.3238 50.4263 25.3084 50.2806 25.2835 50.2087C25.2234 50.0356 25.2093 49.8665 25.2093 49.6844" stroke="white" stroke-linecap="round"/>
<path d="M35.9249 23.1102C35.9958 23.1894 35.9944 23.3527 36.0041 23.4541C36.0119 23.5365 35.924 23.2986 35.8521 23.2576C35.8055 23.2309 35.7424 23.2381 35.6875 23.2166C35.6415 23.1986 35.5083 23.1004 35.5164 23.1038C35.5765 23.1288 35.6189 23.2226 35.6429 23.2776C35.6987 23.4058 35.7475 23.5305 35.8139 23.6543C35.9555 23.9182 36.0065 24.2227 36.1415 24.4895C36.1946 24.5946 36.2054 24.4587 36.2134 24.4167C36.2467 24.2397 36.2666 24.0608 36.2852 23.8817C36.3509 23.2504 36.4383 22.616 36.4254 21.9801C36.4209 21.7602 36.4084 21.5364 36.369 21.3195C36.3425 21.1743 36.3495 21.6142 36.3435 21.7617C36.331 22.0659 36.3217 22.3727 36.3699 22.6743C36.4129 22.9443 36.4682 23.2128 36.5145 23.4823C36.5313 23.5797 36.5462 23.68 36.5691 23.7762C36.6213 23.9946 36.5192 23.3299 36.4972 23.1065C36.4536 22.663 36.4192 22.2197 36.3999 21.7745C36.3934 21.6241 36.3964 21.4693 36.3762 21.3195C36.3404 21.0537 36.4289 21.8536 36.4654 22.1193C36.5508 22.7401 36.5524 23.3601 36.5973 23.9836C36.5978 23.9899 36.6558 24.4273 36.6692 24.4158C36.6825 24.4044 36.6902 24.3392 36.6929 24.3294C36.7236 24.2145 36.7565 24.1002 36.7875 23.9855C36.8748 23.6621 36.9674 23.3382 37.075 23.021C37.0905 22.9753 37.1164 22.8499 37.1405 22.8918C37.1865 22.9716 37.1976 23.1315 37.2133 23.2139C37.3055 23.6958 37.3748 24.1828 37.3962 24.6733C37.4032 24.8331 37.419 25.3114 37.4308 25.1519C37.5027 24.1809 37.5379 23.2048 37.6273 22.2349C37.6374 22.1259 37.6598 21.8036 37.681 21.9109C37.7718 22.3708 37.809 22.8488 37.8612 23.314C37.926 23.8929 37.9713 24.4728 38.014 25.0537C38.0159 25.0794 38.0176 25.1052 38.0195 25.131C38.0225 25.1734 38.0213 25.1607 38.0213 25.1064C38.0213 24.9129 38.0198 24.7194 38.0176 24.5259C38.0096 23.8042 38.0241 23.0876 38.0795 22.3677C38.0971 22.14 38.1131 21.9109 38.1432 21.6844C38.1572 21.5792 38.1729 21.5015 38.1923 21.6562C38.2788 22.3457 38.3236 23.0441 38.3871 23.7362C38.414 24.0295 38.4341 24.3226 38.4453 24.6169C38.4482 24.6929 38.4361 24.8244 38.4598 24.9044C38.4789 24.9687 38.4635 24.7704 38.4635 24.7034C38.4635 24.5004 38.4651 24.2976 38.4708 24.0946C38.4849 23.5838 38.504 23.0777 38.458 22.5679C38.392 21.8359 38.5077 24.0369 38.5254 24.7716C38.5286 24.9076 38.5331 25.3147 38.5454 25.1792C38.5554 25.0689 38.5449 24.9507 38.5381 24.8407C38.5228 24.5944 38.525 24.3434 38.4962 24.0983C38.4869 24.0188 38.4626 23.9583 38.4635 24.0801C38.4671 24.6092 38.6157 25.1134 38.7183 25.626C38.746 25.7649 38.7441 25.9119 38.7819 26.0472C38.8064 26.1347 38.7823 25.963 38.7819 25.959C38.7596 25.7137 38.7561 25.4681 38.7501 25.222C38.7195 23.9694 38.794 22.7181 38.6691 21.4696C38.638 21.1585 38.5618 20.8695 38.5618 20.5552C38.5618 20.2559 38.5781 19.9556 38.5781 19.6581C38.5781 19.5914 38.5769 19.5246 38.5781 19.4579C38.5797 19.3783 38.6273 19.303 38.6273 19.2232C38.6273 19.1847 38.0307 19.2122 37.9503 19.2122C37.6438 19.2122 37.3509 19.2174 37.0477 19.1722C36.9402 19.1562 36.187 19.0244 36.187 19.154C36.187 19.2377 36.1853 19.3215 36.187 19.4051C36.1886 19.4872 36.2179 19.5636 36.2197 19.6453C36.2243 19.8514 36.2072 20.0553 36.1906 20.2604C36.1686 20.5317 36.1862 20.7939 36.207 21.0648C36.2231 21.2739 36.2689 21.479 36.2689 21.6889C36.2689 21.8354 36.3031 21.9706 36.318 22.1157C36.3312 22.244 36.4065 21.966 36.4099 21.9555C36.4942 21.6959 36.5571 21.4335 36.6137 21.1667C36.7253 20.6408 36.843 20.1063 37.005 19.5935C37.0256 19.5282 37.0314 19.5218 37.0559 19.5953C37.1132 19.767 37.1379 19.9486 37.1906 20.1221C37.381 20.7489 37.5587 21.3786 37.7228 22.0128C37.7287 22.0353 37.796 22.365 37.7729 22.1875C37.7543 22.0452 37.6991 21.9042 37.6692 21.7635C37.6162 21.5149 37.575 21.2617 37.5654 21.0074C37.5571 20.7871 37.5576 20.5637 37.5636 20.3432C37.5657 20.2685 37.5821 20.2246 37.6128 20.1594C37.6513 20.0775 37.683 19.9982 37.6974 19.9092C37.7025 19.8774 37.7493 19.6554 37.7793 19.7454C37.8918 20.0831 37.9066 20.4525 37.9394 20.8045C37.9692 21.1241 37.9877 21.4441 38.0176 21.7635C38.0209 21.7983 38.0148 21.9056 38.0413 21.8109C38.0944 21.621 38.11 21.4193 38.1396 21.2249C38.2139 20.7361 38.272 20.2416 38.4016 19.7636C38.4602 19.5474 38.5408 19.3405 38.6109 19.1304" stroke="white" stroke-linecap="round"/>
<path d="M37.1696 21.0793C37.1696 21.1977 37.1632 21.3105 37.1387 21.4269C37.0736 21.7369 37.033 22.0447 37.0059 22.3605C36.9667 22.8157 36.9195 23.2931 36.9731 23.7489" stroke="white" stroke-linecap="round"/>
<path d="M37.792 20.2604C37.7179 21.1498 37.4787 22.0166 37.3371 22.8954C37.2534 23.4142 37.2091 23.9317 37.1533 24.4531" stroke="white" stroke-linecap="round"/>
<path d="M4 40L5.5 42L8 45L10 46.5L13 48.5L16 50L18.5 51L20.5 51.5H23H28.5L32 51L34.5 50L37.5 48.5L40 47L43.5 44L46.5 41" stroke="black"/>
<path d="M3.5 40C18.3 30.8 24.6667 26.5 26 25.5L46 41" stroke="black"/>
<path d="M11.0376 40.6101C11.0151 40.8127 11.5245 40.4392 11.5862 40.4008C12.2992 39.9562 13.0286 39.4707 13.8182 39.178C14.4481 38.9445 15.0465 38.6087 15.6921 38.4242C16.1959 38.2803 16.6208 38.018 17.0845 37.7835C18.0598 37.2903 18.9746 36.7374 19.7897 36.0037C20.7778 35.1145 21.4251 33.8921 22.3882 32.9803C23.2752 32.1404 24.0951 31.2656 24.9112 30.3588C25.3081 29.9179 25.7928 29.5358 26.0754 29.002C26.1067 28.9429 26.1091 28.9421 26.1298 29.0146C26.193 29.2356 26.265 29.4559 26.3643 29.6637C26.601 30.1586 26.9479 30.6015 27.2647 31.0456C28.0707 32.1755 28.9893 33.1845 30.0767 34.0544C30.7236 34.572 31.4006 35.0494 32.0469 35.5682C33.5075 36.7408 34.8072 38.1177 36.2073 39.3622C36.9298 40.0044 37.7156 40.5929 38.3744 41.3011C38.5884 41.5311 38.9052 41.7787 39.0633 42.0528C39.08 42.0817 38.9942 42.05 38.9649 42.0339C38.7251 41.9028 38.4949 41.7557 38.253 41.6277C35.8485 40.3552 33.3377 39.2686 30.8828 38.0997C29.7307 37.5511 28.5899 36.9773 27.428 36.4497C26.4614 36.0109 25.4617 35.6429 24.505 35.183C24.0296 34.9544 23.5832 34.6844 23.1566 34.3748C22.8169 34.1282 22.431 33.8698 22.1537 33.5498C21.7502 33.0843 22.1625 32.4011 22.4594 32.0087C22.7472 31.6283 22.9278 31.0899 23.4749 31.0456C24.0306 31.0005 24.4621 31.5012 24.8275 31.8412C25.3881 32.363 26.0288 32.742 26.6156 33.2232C26.7504 33.3337 26.5432 33.3862 26.4523 33.4158C25.7905 33.6312 25.0544 33.6385 24.3668 33.6587C24.1195 33.6659 20.3631 33.6269 20.3865 33.9078C20.4029 34.1048 21.4519 34.3185 21.5192 34.3371C23.215 34.8034 24.9799 35.0458 26.7161 35.3044C28.3069 35.5413 29.9016 35.7184 31.5067 35.8195C32.1235 35.8583 32.0394 35.8443 32.5453 35.8697C32.6145 35.8732 32.9447 35.891 32.5495 35.897C29.2786 35.9461 26.0263 35.8468 22.7651 36.2006C22.1187 36.2707 21.3831 36.3035 20.7592 36.5167C20.3615 36.6526 21.3645 36.8364 21.3894 36.8413C22.588 37.0751 23.8293 37.1251 25.0452 37.193C26.6014 37.28 28.1606 37.2835 29.7165 37.3689C29.8182 37.3745 31.065 37.4428 30.0453 37.461C26.9378 37.5167 23.8266 37.4729 20.7194 37.4234C20.2086 37.4152 18.6839 37.3243 19.1867 37.415C19.3564 37.4456 19.5301 37.4462 19.7018 37.461C20.5751 37.5364 21.4478 37.6187 22.3212 37.6935C24.1093 37.8465 25.8997 37.9806 27.6918 38.0787C28.7976 38.1393 29.2065 38.1523 30.3112 38.1939C31.0685 38.2224 31.8616 38.2059 32.6165 38.3111C32.6598 38.3172 32.7716 38.3659 32.7295 38.3781C32.6281 38.4076 32.2033 38.4232 32.1768 38.4242C29.9436 38.5103 27.702 38.4599 25.4682 38.464C24.4328 38.4659 22.7708 38.4671 21.6616 38.4849C21.3157 38.4905 20.9521 38.4283 20.6252 38.5415C20.5154 38.5795 20.8452 38.6212 20.9602 38.6378C21.71 38.746 22.467 38.8239 23.2194 38.91C27.0981 39.3536 31.0122 39.4386 34.8862 39.9359C34.9554 39.9448 35.1602 39.9666 35.0913 39.9778C34.8776 40.0125 34.6588 40.0029 34.4423 40.0071C32.2662 40.0494 30.1 39.8979 27.9326 39.7203C25.6786 39.5355 23.4309 39.3676 21.1696 39.3036C20.1707 39.2753 19.5153 39.267 18.5544 39.2575C18.345 39.2555 18.1356 39.2544 17.9262 39.2534C17.8174 39.2528 17.6867 39.188 17.5996 39.2534C17.5312 39.3047 17.7699 39.2705 17.8551 39.2785C18.166 39.3077 18.4576 39.3334 18.7721 39.3497C22.781 39.5576 26.8006 39.6881 30.8137 39.7768C31.2568 39.7866 31.704 39.8354 32.1433 39.7768C32.5425 39.7236 31.3429 39.6833 30.9414 39.6512C27.9551 39.412 24.9684 39.1693 21.9757 39.0251C19.9163 38.9259 17.8423 38.8267 15.7801 38.9037C15.6198 38.9097 14.9936 38.9364 14.7416 38.9832C14.3202 39.0616 15.5968 39.0433 16.0251 39.0607C18.0498 39.1431 20.0699 39.2958 22.0929 39.4083C24.8795 39.5633 27.6704 39.6027 30.4577 39.7391C30.966 39.764 32.4887 39.8449 31.9799 39.8543C31.5605 39.862 31.2218 39.8486 30.7718 39.8333C28.2008 39.7463 25.6315 39.6143 23.0603 39.5339C20.7046 39.4603 18.3196 39.386 15.9811 39.7496C15.8651 39.7676 15.5256 39.8278 15.6419 39.8438C16.1073 39.908 16.665 39.8298 17.1264 39.8187C18.5156 39.7853 19.9023 39.7378 21.2889 39.6428C21.4686 39.6305 23.2621 39.4963 23.4916 39.4753C23.9095 39.437 25.0587 39.3602 24.7039 39.1361C24.3904 38.9381 23.4099 38.8785 23.2173 38.8618C22.3092 38.7833 21.5059 38.7634 20.5896 38.7843C18.1058 38.841 15.6385 39.1468 13.1649 39.3497C12.7473 39.3839 12.3228 39.3664 11.9044 39.3664C11.6014 39.3664 11.2784 39.3821 10.9832 39.2994C10.7676 39.239 10.8992 39.0272 10.9894 38.9016C11.2424 38.5492 11.6366 38.3287 12.0154 38.1373C12.8269 37.7274 13.69 37.4334 14.5343 37.1009C16.3728 36.3767 18.0801 35.4242 19.7751 34.4229C20.641 33.9114 21.5317 33.4104 22.3316 32.796C22.3387 32.7906 22.6374 32.5754 22.518 32.6076C22.0594 32.731 21.6086 33.049 21.1968 33.2692C18.7956 34.5531 16.3582 35.7984 14.0171 37.1888C13.2207 37.6618 12.4604 38.2214 11.6406 38.6524C11.6192 38.6637 11.5582 38.6885 11.5694 38.6671C11.6062 38.5971 11.6729 38.5473 11.7265 38.4891C12.4356 37.7188 13.2912 37.0962 14.1574 36.5146C16.3136 35.0669 18.6026 33.8349 20.8743 32.5825C21.3538 32.3181 21.963 32.0637 22.3484 31.6486C22.3849 31.6092 22.4578 31.4691 22.4154 31.502C22.0368 31.7965 21.6752 32.0903 21.2701 32.3521C19.0206 33.8061 16.6094 35.0021 14.3793 36.4853C14.0654 36.6941 13.7608 36.9203 13.4874 37.1805C13.4688 37.1982 13.4138 37.252 13.4329 37.2349C13.5566 37.1243 13.6786 37.0132 13.8056 36.9062C14.8574 36.0193 16.1644 35.3449 17.3274 34.6344C18.6064 33.8531 19.8756 33.0209 21.2303 32.3731C21.4333 32.276 21.7743 32.1725 21.9296 32.0171" stroke="black" stroke-width="3" stroke-linecap="round"/>
<path d="M27.8467 29.9066C27.9986 29.9325 28.0749 29.9795 28.1859 30.0951C28.487 30.4085 28.7456 30.7704 29.0235 31.1043C29.7017 31.9194 30.3387 32.7627 31.0922 33.5122C32.2541 34.6679 33.5426 35.7106 34.9636 36.5314C35.6515 36.9288 36.3703 37.2777 37.0805 37.6328" stroke="black" stroke-width="3" stroke-linecap="round"/>
<path d="M30.4096 30.698C30.7321 31.1312 31.0706 31.5443 31.4272 31.9501C32.2541 32.8912 33.0351 33.8293 33.99 34.649C35.4395 35.8934 37.1041 36.8268 38.5126 38.1227" stroke="black" stroke-width="3" stroke-linecap="round"/>
<path d="M32.1056 32.0925C32.9949 32.0925 33.7623 32.8851 34.2622 33.5456C34.4139 33.7462 34.6245 33.8996 34.8003 34.0754C35.0349 34.3099 35.2398 34.6109 35.5164 34.8061C35.8262 35.0248 36.1114 35.2855 36.4021 35.5306C36.5497 35.6551 36.7032 35.7507 36.8564 35.8656C37.0273 35.9938 37.2606 36.1538 37.3987 36.3137C37.6829 36.6427 37.9959 36.9653 38.3033 37.2726C38.4894 37.4588 38.6895 37.6215 38.8895 37.7919C39.1347 38.0007 39.342 38.2581 39.5972 38.4535C40.048 38.7986 40.4448 39.2328 40.8305 39.647C41.0824 39.9176 41.3803 40.1444 41.6408 40.405C41.6593 40.4235 41.8615 40.5735 41.8565 40.5411C41.8097 40.2371 41.4247 39.9437 41.2493 39.7098C41.0953 39.5045 40.9606 39.2763 40.7907 39.0838C40.5543 38.8158 40.9824 39.1726 41.0566 39.2324C41.6418 39.7044 42.3691 40.057 42.9034 40.5913C43.0908 40.7787 43.1892 40.9251 43.4289 41.0415C43.5325 41.0918 43.6827 41.2397 43.7891 41.2509C43.8704 41.2594 43.9368 41.2624 44.0152 41.2886" stroke="black" stroke-width="3" stroke-linecap="round"/>
<path d="M43.2991 41.6278C42.8145 41.6762 42.5116 42.2855 42.2061 42.5909C41.9318 42.8652 41.493 42.8985 41.1885 43.1353C41.0204 43.2661 40.7124 43.3718 40.508 43.4368C40.155 43.5492 39.7998 43.6655 39.4402 43.753C39.3623 43.7719 39.2021 43.8344 39.1785 43.7195C39.1121 43.397 39.2787 42.9622 39.3858 42.6663C39.5081 42.3282 39.6715 41.9982 39.8506 41.6864C39.8802 41.6349 40.0202 41.3883 40.0202 41.4016" stroke="black" stroke-width="3" stroke-linecap="round"/>
<path d="M41.5277 42.3816C41.2956 43.0547 40.8861 43.6587 40.5185 44.2577C40.3829 44.4787 40.2214 44.5788 40.0013 44.6974C39.8775 44.764 39.6056 44.9098 39.6056 44.7183" stroke="black" stroke-width="3" stroke-linecap="round"/>
<path d="M42.1684 42.6453C42.0089 43.0921 41.6351 43.6741 41.1885 43.8974C41.0043 43.9895 40.7047 44.0579 40.4997 44.0963C39.4478 44.2936 38.4476 43.9983 37.4029 43.8514C36.2755 43.6928 35.2194 43.2827 34.1428 42.9238C32.3761 42.3349 30.6032 42.0677 28.7513 42.013C28.4457 42.004 27.5285 42.0046 27.8342 42.0046C28.6169 42.0046 29.4013 42.0484 30.1834 42.0339C31.0542 42.0179 31.9294 41.986 32.7986 41.9313C33.253 41.9028 32.7568 41.849 32.6751 41.8455C30.4634 41.7503 28.2599 41.5228 26.0503 41.3911C24.8833 41.3216 23.7061 41.2987 22.5368 41.3283C22.474 41.3299 22.3817 41.3317 22.3149 41.3451C22.2476 41.3585 22.3331 41.3641 22.3484 41.366C22.9402 41.44 23.5385 41.4779 24.1323 41.5314C25.0632 41.6153 27.8601 41.7744 26.9255 41.7785C23.9746 41.7914 21.0374 41.4278 18.0958 41.2404C17.4647 41.2002 17.2831 41.1914 16.7349 41.1797C16.5925 41.1766 16.4459 41.1472 16.3077 41.1818C16.2375 41.1993 16.4445 41.23 16.515 41.2467C16.8092 41.316 17.045 41.3685 17.3504 41.4309C20.4743 42.0691 23.6739 42.2416 26.8333 42.6328C27.2521 42.6846 27.6713 42.7326 28.0896 42.7877C28.2202 42.8049 28.3577 42.8035 28.4791 42.8547C28.5295 42.876 28.3705 42.8709 28.3158 42.8715C27.8733 42.8763 27.4308 42.8774 26.9883 42.8798C25.2081 42.8898 23.4288 42.887 21.6491 42.8421C20.7829 42.8203 19.907 42.8245 19.0423 42.7605C17.4542 42.6429 22.224 42.9098 23.8162 42.9406C25.1608 42.9666 26.5061 42.9701 27.8509 42.9845C28.3574 42.9899 28.6001 42.9917 29.08 43.0034C29.1952 43.0062 29.3103 43.0105 29.4255 43.0138C29.4911 43.0158 29.6664 43.0624 29.6223 43.0138C29.5099 42.8902 28.8824 42.8296 28.7555 42.8003C27.9756 42.6199 27.2013 42.5073 26.402 42.4569C25.3787 42.3923 24.3528 42.3724 23.3283 42.3354C22.1335 42.2923 20.9434 42.1987 19.75 42.1386C18.6 42.0807 17.448 42.0773 16.2973 42.0444C15.7104 42.0276 16.4236 42.0078 16.492 42.0067C17.9526 41.9835 19.4257 41.969 20.8827 42.08C21.1928 42.1036 21.5021 42.1354 21.8124 42.1554C22.227 42.1821 20.9826 42.1013 20.5707 42.0465C18.3455 41.7503 16.1819 41.2214 14.015 40.6478" stroke="black" stroke-width="3" stroke-linecap="round"/>
<path d="M16.2386 44.7182C14.8887 44.0983 13.7456 43.0723 12.6959 42.0402C12.4349 41.7836 12.1744 41.5257 11.9191 41.2634C11.8133 41.1547 11.6969 41.0523 11.6406 40.9116" stroke="black" stroke-width="3" stroke-linecap="round"/>
<path d="M12.922 43.6629C12.1538 43.1716 11.3915 42.5552 10.7528 41.9041C10.6183 41.767 10.4723 41.6035 10.4723 41.4016" stroke="black" stroke-width="3" stroke-linecap="round"/>
<path d="M15.5225 46.3388C14.2858 46.104 13.037 45.5672 11.9484 44.9465C11.5385 44.7127 11.1273 44.4608 10.7486 44.178C10.2146 43.7793 9.84667 43.2584 9.41698 42.7584" stroke="black" stroke-width="3" stroke-linecap="round"/>
<path d="M12.2813 45.9997C10.7454 45.1358 9.23475 44.1123 8.16069 42.6936C7.94455 42.4081 7.71668 42.1081 7.57024 41.7786" stroke="black" stroke-width="3" stroke-linecap="round"/>
<path d="M7.57024 41.8162C7.34827 41.8162 7.18949 41.6571 7.00491 41.5545C6.84564 41.466 6.67408 41.4105 6.57149 41.2509C6.48485 41.1161 6.39947 41.0104 6.33489 40.874C6.26535 40.7272 6.23673 40.5843 6.15691 40.4406C6.0858 40.3126 5.93487 40.3922 5.87425 40.271" stroke="black" stroke-width="3" stroke-linecap="round"/>
<path d="M7.79637 40.8739C7.81448 40.3488 8.23977 40.0346 8.69671 39.8605C9.17951 39.6766 9.69869 39.608 10.2043 39.5172C10.7043 39.4273 11.1871 39.2976 11.6699 39.1403C12.485 38.8747 13.3041 38.4686 13.9815 37.9384C14.0026 37.9219 14.3277 37.5919 14.3123 37.5908C14.2358 37.5854 14.0966 37.6655 14.0297 37.6872C13.9 37.729 13.77 37.7521 13.6381 37.7835" stroke="black" stroke-width="3" stroke-linecap="round"/>
<path d="M6.62802 39.5926C6.9545 39.5926 7.27895 39.5917 7.60164 39.5339C7.76218 39.5052 8.01357 39.4762 8.14813 39.3685C8.25303 39.2846 8.3556 39.3094 8.47476 39.2617C8.51929 39.2439 8.60785 39.2115 8.62343 39.157C8.66999 38.9941 8.9697 38.8501 9.09872 38.7508C9.61823 38.3512 10.2167 38.042 10.8198 37.7835C11.1469 37.6433 11.4362 37.3583 11.6364 37.0716C11.823 36.8044 12.1134 36.7168 12.3651 36.5398C12.626 36.3561 12.8815 36.164 13.1482 35.9912C13.4679 35.784 13.8569 35.6701 14.1658 35.4384C14.5055 35.1836 14.855 34.992 15.2169 34.7642C15.3717 34.6667 15.4946 34.5246 15.6377 34.4292C15.8075 34.316 15.9781 34.2361 16.1591 34.1361C16.5592 33.915 16.9819 33.6587 17.34 33.3739C17.6251 33.1471 17.9734 32.9697 18.2361 32.7332C18.5363 32.4631 18.9307 32.3296 19.2705 32.1134C19.7849 31.7861 20.3236 31.5687 20.8827 31.3304C21.2662 31.1669 21.6286 30.9534 22.005 30.7734C22.2602 30.6514 22.5128 30.5567 22.7567 30.4195C22.8553 30.3641 22.952 30.3195 23.0603 30.2834" stroke="black" stroke-width="3" stroke-linecap="round"/>
<path d="M20.4221 31.2634C20.4574 31.0516 20.5776 30.8935 20.7529 30.7818C21.0252 30.6083 21.3031 30.4188 21.5904 30.2751C21.7608 30.1899 21.9625 30.0764 22.1474 30.028C22.3998 29.9619 22.6754 29.7842 22.8886 29.6344C23.0278 29.5365 23.2047 29.504 23.3409 29.4083C23.5629 29.2522 23.8002 29.1069 24.0151 28.9434C24.4361 28.6231 24.8835 28.3873 25.3719 28.1897C25.5289 28.1261 25.705 28.0609 25.8492 27.9761C26.0533 27.8561 25.9246 27.8224 25.9246 27.6453" stroke="black" stroke-width="3" stroke-linecap="round"/>
<path d="M26.9045 27.6075C26.7644 28.0803 27.048 28.539 27.3212 28.9078C27.6269 29.3206 28.0873 29.594 28.5084 29.8689C29.0886 30.2475 29.5288 30.8349 30.0138 31.3199C30.1821 31.4881 30.3539 31.6757 30.485 31.8747C30.6681 32.1529 30.7596 32.4748 30.9749 32.7332" stroke="black" stroke-width="3" stroke-linecap="round"/>
<path d="M30.9372 42.5322C28.814 42.6931 30.8827 45.3224 30.8995 46.3848C30.9004 46.4381 30.8927 46.8478 30.9016 46.6968C30.9434 45.9863 31.259 45.2436 31.4858 44.5758C31.5625 44.35 31.6386 44.1227 31.7036 43.8932C31.7424 43.7558 31.7515 43.7129 31.8062 43.8869C31.9829 44.4504 32.1229 45.0438 32.2479 45.6206C32.2914 45.821 32.3228 46.4347 32.3317 46.2299C32.3593 45.5954 32.7887 45.1803 33.3828 44.9611C33.9649 44.7462 34.6196 44.7082 35.2337 44.691C35.5663 44.6816 36.1322 44.6155 36.4565 44.7559C36.6833 44.854 36.0826 45.0945 35.8535 45.1872C35.1951 45.4535 34.4507 45.5663 33.7471 45.6311C33.4856 45.6551 33.2107 45.6782 32.9515 45.6206C32.6076 45.5442 33.4126 45.5473 33.4163 45.5473C34.6745 45.5389 35.9306 45.4705 37.1621 45.1956C37.2618 45.1733 37.9926 44.9533 37.9682 45.1788C37.93 45.5337 37.8308 45.8997 37.5327 46.1127" stroke="black" stroke-width="3" stroke-linecap="round"/>
<path d="M39.681 45.3966C39.5784 45.5078 39.4924 45.6848 39.3711 45.7735C39.2553 45.8581 39.1121 45.9056 39.0047 45.9996C38.9204 46.0734 38.8502 46.1823 38.7555 46.2425C38.6619 46.3021 38.4743 46.3419 38.3619 46.3765C38.0546 46.4711 37.7557 46.5844 37.4343 46.6403C37.207 46.6799 36.9899 46.774 36.758 46.789C36.4779 46.8071 36.193 46.7911 35.9121 46.7911" stroke="black" stroke-width="3" stroke-linecap="round"/>
<path d="M37.0051 46.0751C36.7982 46.1211 36.5188 46.3288 36.3455 46.452C36.0174 46.6853 35.6652 46.8961 35.3259 47.1136C34.8839 47.3969 34.354 47.5069 33.8434 47.6203C33.7371 47.6439 33.6023 47.7252 33.5084 47.7794C33.3376 47.8782 33.1549 47.9424 32.9808 48.0349C32.8159 48.1225 32.2917 48.2876 32.4783 48.282C32.696 48.2754 32.9277 48.1287 33.0855 47.9972" stroke="black" stroke-width="3" stroke-linecap="round"/>
<path d="M36.289 46.8665C36.0742 46.9619 35.9071 47.0897 35.7697 47.281C35.6628 47.43 35.63 47.5091 35.4599 47.5909C35.3317 47.6525 35.2051 47.7015 35.083 47.7626C34.6618 47.9732 34.238 48.0301 33.7827 48.129C33.4786 48.1951 33.1859 48.2779 32.8782 48.3007C32.6359 48.3187 32.3665 48.3793 32.1433 48.4661C32.0078 48.5188 31.8885 48.5713 31.7454 48.619C31.6975 48.635 31.1995 48.7886 31.3895 48.7886" stroke="black" stroke-width="3" stroke-linecap="round"/>
<path d="M33.3116 48.1479C33.0335 48.185 32.8578 48.2889 32.6374 48.4306C32.5305 48.4993 32.478 48.6494 32.3505 48.6777C32.2297 48.7045 32.1685 48.8655 32.0804 48.8975C32.0688 48.9018 31.7324 48.9347 31.8082 49.0294C31.8287 49.055 32.2522 48.8933 32.294 48.8829C32.5158 48.8274 32.7519 48.765 32.9263 48.6086C33.0533 48.4948 33.199 48.4239 33.3493 48.3448C33.4336 48.3004 33.5126 48.2294 33.6047 48.194C33.7145 48.1518 33.7753 48.0311 33.8769 47.9972" stroke="black" stroke-width="3" stroke-linecap="round"/>
<path d="M31.8041 49.5046C32.018 49.5046 31.6981 49.6697 31.6512 49.6931C31.529 49.7542 31.2391 49.7647 31.0963 49.7224C30.8825 49.659 30.4866 49.5022 30.3342 49.7308" stroke="black" stroke-width="3" stroke-linecap="round"/>
<path d="M28.8559 50.953C28.866 50.9065 28.8502 50.8566 28.8416 50.8111C28.8277 50.7371 28.8225 50.6637 28.8188 50.5886C28.8143 50.4973 28.8 50.4105 28.7821 50.3212C28.7743 50.2825 28.7823 50.2425 28.776 50.2035C28.7749 50.1967 28.7637 50.1284 28.7582 50.1379C28.7246 50.1956 28.7149 50.2723 28.6958 50.3355C28.6604 50.4526 28.6377 50.5755 28.6377 50.6977C28.6377 50.7379 28.6829 50.8722 28.607 50.8696C28.5917 50.869 28.5029 50.8683 28.5029 50.8471C28.5029 50.7903 28.506 50.7252 28.525 50.671C28.5426 50.6206 28.5343 50.562 28.5493 50.5116C28.5641 50.4614 28.5508 50.3993 28.5336 50.3511C28.511 50.2879 28.5157 50.2051 28.5157 50.1376C28.5157 50.083 28.5286 50.0317 28.5286 49.9768C28.5286 49.9149 28.5222 49.8532 28.5222 49.7914C28.5222 49.7529 28.5251 49.7136 28.5172 49.6759C28.5096 49.6399 28.5168 49.5996 28.5125 49.5628C28.5077 49.521 28.5083 49.4799 28.5143 49.4384C28.5334 49.3073 28.5175 49.1716 28.535 49.0405C28.541 48.9955 28.5423 48.9512 28.5414 48.9057C28.5408 48.8723 28.5286 48.8391 28.5286 48.8059C28.5286 48.6721 28.5286 48.5394 28.5286 48.4052" stroke="black" stroke-linecap="round"/>
<path d="M29.7281 50.3676C29.6667 49.9372 29.5685 49.5097 29.5072 49.0779C29.4175 48.4456 29.3591 47.8111 29.2794 47.1779C29.2274 46.7652 29.1602 46.3559 29.1869 45.938C29.2096 45.5812 29.2559 45.226 29.2559 44.8679C29.2559 44.7929 29.2559 44.7178 29.2559 44.6428C29.2559 44.4795 29.3518 44.9552 29.4092 45.1081C29.7548 46.0299 30.0791 46.9743 30.239 47.9484C30.2805 48.2006 30.3184 48.46 30.3246 48.7161C30.3252 48.7404 30.2539 48.4798 30.2418 48.4483C30.099 48.0774 29.9297 47.7172 29.7861 47.3464C29.5434 46.7196 29.3244 46.0863 29.1026 45.452C29.0633 45.3394 29.0252 45.2264 28.9825 45.115C28.9683 45.0779 28.9031 44.8871 28.919 45.046C28.9435 45.2912 28.9953 45.5374 29.0336 45.7806C29.1375 46.4408 29.1896 47.102 29.2021 47.7703C29.2097 48.1811 29.1843 48.5909 29.1565 49.0006C29.1544 49.031 29.1194 49.0256 29.1013 49.0475C29.0196 49.1461 28.8826 49.3933 28.7809 49.2408C28.4417 48.732 28.3915 48.0513 28.328 47.4679C28.2294 46.5617 28.2799 45.6623 28.2866 44.7533C28.2873 44.6543 28.2866 44.5554 28.2866 44.4564C28.2866 44.2038 28.3831 44.9523 28.4357 45.1993C28.5414 45.6953 28.69 46.1825 28.7643 46.685C28.8288 47.1205 28.8334 47.5602 28.8334 47.9995C28.8334 48.101 28.8388 48.2931 28.8279 48.0589C28.8044 47.5566 28.7941 47.0539 28.7892 46.5511C28.7829 45.8988 28.8309 45.2525 28.8527 44.6014C28.8551 44.5318 28.9232 44.0229 28.803 44.0021C28.7406 43.9913 28.5731 44.0246 28.5324 44.0325C28.1936 44.0983 27.8589 44.1804 27.5189 44.241C26.1988 44.4763 24.8569 44.5325 23.5187 44.56C22.4849 44.5812 21.4518 44.5765 20.4188 44.5268C20.3982 44.5258 19.2755 44.4688 19.2755 44.4771C19.2755 44.5922 23.9671 44.5743 24.1829 44.5724C25.6148 44.5599 27.0454 44.4944 28.4771 44.4785C28.5324 44.4779 28.5876 44.4771 28.6428 44.4771C28.6982 44.4771 28.6357 44.482 28.6235 44.4826C28.0219 44.5149 27.4179 44.5242 26.816 44.5434C25.2649 44.5928 23.7148 44.6545 22.1669 44.7698C21.867 44.7922 21.5628 44.8112 21.2639 44.8486C21.2242 44.8535 21.1242 44.8586 21.1507 44.8886C21.2185 44.9655 21.3548 44.9092 21.4572 44.9148C21.8373 44.9356 22.2172 44.9556 22.5977 44.9687C24.0139 45.0175 25.4311 45.0407 26.8478 45.0681C27.425 45.0793 29.1566 45.0985 28.5793 45.0985C27.8751 45.0985 27.1709 45.0969 26.4667 45.0999C25.5968 45.1035 24.7297 45.1175 23.8639 45.2076C23.4119 45.2546 24.0425 45.2797 24.1359 45.2835C25.3471 45.3328 26.5824 45.2854 27.7895 45.1786C27.7968 45.1779 27.8986 45.173 27.8047 45.173C27.6422 45.173 27.4797 45.1751 27.3173 45.1786C26.4141 45.1981 25.5116 45.2172 24.6082 45.2283C24.1271 45.2342 23.6408 45.2655 23.1597 45.2462C22.8308 45.2331 23.8178 45.2216 24.147 45.2241C25.6603 45.2355 27.1768 45.33 28.687 45.4188C29.71 45.479 26.638 45.3344 25.6134 45.3525C25.3159 45.3578 25.021 45.3749 24.7269 45.4202C24.706 45.4234 24.4903 45.4431 24.448 45.4713C24.4078 45.4981 24.5446 45.4713 24.593 45.4713C24.9156 45.4713 25.2383 45.4718 25.5609 45.4713C26.2777 45.4703 26.9941 45.4556 27.7108 45.4478C27.8291 45.4465 28.184 45.4464 28.0657 45.4464C27.9455 45.4464 27.8254 45.4464 27.7053 45.4464C26.5681 45.4464 25.4353 45.4609 24.2989 45.492C23.4853 45.5143 25.9262 45.4464 26.7401 45.4464C27.1046 45.4464 27.4692 45.4464 27.8337 45.4464C27.935 45.4464 27.7558 45.4812 27.7453 45.4837C27.4071 45.5655 27.0128 45.5187 26.6738 45.5155C26.0837 45.5099 25.4676 45.4537 24.8788 45.5072C24.6276 45.53 25.3736 45.6101 25.6244 45.637C26.2787 45.7072 26.9413 45.7182 27.599 45.7198C27.8281 45.7204 28.0603 45.7294 28.2894 45.7184C28.3835 45.714 28.1017 45.7012 28.0077 45.695C27.6219 45.6693 27.2353 45.6719 26.8492 45.6549C26.2853 45.6302 25.7234 45.5768 25.1591 45.5597C24.443 45.5379 23.7055 45.5109 22.9885 45.55C22.1666 45.5948 21.3393 45.6701 20.5155 45.6701C18.8235 45.6701 23.8977 45.5602 25.5885 45.4961C26.5774 45.4587 27.5671 45.446 28.5558 45.4092C28.8948 45.3965 28.5331 45.3968 28.5186 45.3967C28.0269 45.3941 27.5355 45.3903 27.0439 45.3829C25.8261 45.3646 24.6141 45.3057 23.3986 45.2338C22.3282 45.1704 21.257 45.1652 20.1869 45.1123C20.0343 45.1047 19.8512 45.1024 19.7036 45.0488C19.567 44.9991 19.9773 44.9459 20.1206 44.9217C20.7634 44.8132 21.418 44.7483 22.0675 44.6925C22.1228 44.6878 22.2887 44.6764 22.2332 44.676C21.9527 44.6738 21.6729 44.6763 21.3923 44.669C20.0764 44.6349 18.7516 44.5663 17.4446 44.4053C17.2507 44.3814 17.0576 44.3518 16.8647 44.3211C16.7116 44.2967 16.2813 44.2393 16.4228 44.1761C16.5551 44.117 16.7036 44.1038 16.8453 44.0739C17.1798 44.0036 17.9578 43.8746 18.3007 43.7646C18.3749 43.7408 18.523 43.7161 18.4995 43.6417C18.4721 43.5547 18.3273 43.5777 18.2372 43.563C18.0606 43.5343 17.8811 43.527 17.7028 43.5119C17.1547 43.4656 16.6053 43.4364 16.0555 43.4194C15.878 43.414 15.4346 43.34 15.2505 43.4208C15.2379 43.4264 15.2561 43.452 15.2685 43.4581C15.3642 43.5054 15.8693 43.6633 15.8926 43.6707C16.9818 44.0196 18.0677 44.3775 19.1402 44.7754C19.4443 44.8882 20.7583 45.1956 20.3498 45.7751C20.1085 46.1174 19.6498 46.4079 19.2645 46.5649C18.9268 46.7024 18.9939 46.3176 19.0077 46.0954C19.0376 45.6104 19.0833 45.1291 19.0905 44.6428C19.0939 44.4134 19.1009 44.1855 19.1181 43.9566C19.1245 43.8713 19.1307 43.786 19.1402 43.7011C19.1484 43.6279 19.1237 43.4534 19.1899 43.4857C19.2759 43.5276 19.2474 43.6684 19.2673 43.7619C19.3325 44.0696 19.3915 44.3718 19.4067 44.687C19.4494 45.5722 19.4473 46.4662 19.4357 47.3519C19.4332 47.5463 19.4321 47.7411 19.4136 47.9346C19.3868 48.2159 19.3326 48.0175 19.2907 47.896C18.9977 47.0447 18.8665 46.1282 18.6625 45.2531C18.4865 44.4986 18.2175 43.7369 18.1212 42.9665C18.1139 42.9083 18.1096 43.0833 18.106 43.1419C18.0807 43.5519 18.0596 43.9621 18.0356 44.3722C17.9848 45.2392 17.9429 46.106 17.903 46.9736C17.902 46.9967 17.898 47.0657 17.8975 47.0426C17.8936 46.8676 17.8902 46.6929 17.8837 46.5179C17.8722 46.2086 17.8598 45.8991 17.8423 45.59C17.8365 45.4869 17.8296 45.3838 17.823 45.2807C17.8128 45.1232 17.74 44.9462 17.8147 44.8071C17.8267 44.7848 17.8708 44.8171 17.8837 44.8389C17.9706 44.9851 18.1507 45.5049 18.1902 45.6204C18.3393 46.056 18.4673 46.4976 18.5824 46.9432C18.6459 47.1889 18.7198 47.4427 18.7426 47.6971C18.743 47.7018 18.7773 48.0624 18.7025 48.0368C18.6009 48.0021 18.5786 47.8595 18.5368 47.7606C18.3853 47.4019 18.2966 47.024 18.2399 46.6394C18.1534 46.0517 18.0722 45.3079 18.2538 44.7284C18.3418 44.4476 18.4949 44.53 18.6556 44.6994C18.9766 45.0379 19.2193 45.4645 19.444 45.869C19.6503 46.2402 19.8664 46.6341 19.9797 47.0468C20.116 47.543 20.2023 48.0723 20.2559 48.5836C20.2914 48.922 20.1954 48.5734 20.1786 48.5118C20.0751 48.133 19.9664 47.7428 20.0212 47.3464C20.0507 47.1331 20.0984 46.9222 20.1537 46.714C20.2507 46.3492 20.5449 45.3997 20.7364 45.0543C21.1426 44.3216 21.3997 45.1396 21.5014 45.5141C21.7709 46.5071 21.8623 47.5662 21.8742 48.5919C21.8767 48.8043 21.8662 49.0173 21.8424 49.2284C21.8411 49.2401 21.837 49.5558 21.6919 49.5294C21.5516 49.5039 21.4969 49.1057 21.482 49.031C21.3904 48.5687 21.3623 48.0938 21.3495 47.6239C21.3277 46.8232 21.3592 46.0139 21.471 45.22C21.4821 45.1414 21.4955 45.0631 21.511 44.9852C21.523 44.9255 21.5193 44.8017 21.5787 44.8154C21.6603 44.8342 21.7142 45.2172 21.7195 45.2448C21.9358 46.3655 22.0133 47.5232 22.073 48.6609C22.0913 49.009 22.1127 49.3589 22.1186 49.7076C22.1198 49.7782 22.1195 49.9127 22.0758 49.7545C21.9003 49.1197 21.8301 48.4546 21.7154 47.8076C21.546 46.8525 21.3229 45.9034 21.0029 44.9866C20.9777 44.9145 20.9639 44.7476 20.8966 44.7837C20.8211 44.8241 20.8317 45.351 20.8317 45.3512C20.7957 46.1402 20.7684 46.9409 20.8082 47.7303C20.8702 48.9566 20.7789 47.0179 20.84 48.2812C20.8437 48.359 20.845 48.4368 20.8496 48.5146C20.8572 48.6399 20.8627 48.5643 20.8717 48.4787C20.9378 47.8513 20.9697 47.2268 21.0927 46.6063C21.1503 46.3153 21.3341 45.4448 21.2666 45.7336C21.1586 46.1961 21.1337 46.7182 21.0816 47.1835C21.0278 47.6647 20.9796 48.1462 20.9297 48.6278" stroke="black" stroke-linecap="round"/>
<path d="M22.1724 45.7198C22.4404 46.1969 22.421 46.7023 22.421 47.2346C22.421 47.7444 22.4145 48.2462 22.4707 48.7521" stroke="black" stroke-linecap="round"/>
<path d="M22.6695 45.5707C22.7614 46.1332 22.7781 46.6888 22.7634 47.258C22.7513 47.7274 22.678 48.1859 22.6502 48.6526C22.6161 49.2257 22.5381 49.824 22.6447 50.3924" stroke="black" stroke-linecap="round"/>
<path d="M16.6295 44.1766C16.6055 45.2757 16.545 46.3891 16.6665 47.485C16.7189 47.9581 16.8029 48.4639 17.03 48.8896C17.1556 49.1252 17.323 49.3391 17.4612 49.5673C17.5397 49.697 17.7387 49.9401 17.4674 49.8815C16.527 49.6782 15.9152 49.2746 15.2033 48.6185C14.7124 48.1661 14.234 47.7038 13.8264 47.1738C13.6778 46.9807 13.5196 46.7795 13.315 46.6409C13.188 46.5549 13.0127 46.7265 12.9023 46.7703C12.63 46.8783 12.2356 46.8723 11.9504 46.8104C11.649 46.7448 12.4231 47.6213 12.4957 47.6944C13.3181 48.5227 14.1996 49.0312 15.3635 49.213C15.7347 49.2711 16.2146 49.3768 16.5925 49.3209C16.6667 49.3099 16.4862 49.2136 16.4231 49.173C15.863 48.8125 15.9653 48.8868 15.2988 48.4491C14.587 47.9817 13.8557 47.5172 13.2257 46.9397C13.0357 46.7656 12.5341 46.193 12.7544 46.3267C12.9707 46.4581 13.1695 46.7284 13.352 46.8997C13.9268 47.4392 14.5303 47.9366 15.1417 48.4337C15.4841 48.7121 15.8125 49.0105 16.1613 49.2808C16.4379 49.4952 16.1186 49.3105 16.0134 49.2469C14.9532 48.606 13.8993 47.9431 12.8468 47.2878C12.6645 47.1743 12.108 46.8599 12.3108 46.9305C12.6709 47.0557 13.0334 47.3997 13.3304 47.6205C13.6535 47.8607 13.9881 48.1069 14.2576 48.4091C14.2671 48.4197 14.5313 48.7886 14.4301 48.7849C14.2938 48.7798 14.0664 48.5082 13.9742 48.4337C13.6508 48.1722 13.3633 47.9088 13.121 47.5681C12.5691 46.7925 14.3157 47.214 14.6057 47.2755C16.066 47.585 17.784 48.208 18.7365 49.4379C18.7655 49.4754 18.9836 49.784 18.8782 49.863C18.7854 49.9326 18.4874 49.5303 18.4654 49.5057C17.4973 48.4241 16.4797 47.3788 15.6715 46.1666C15.5971 46.055 15.3925 45.7169 15.4282 45.8462C15.5231 46.1902 15.7816 46.5185 15.9888 46.798C16.3814 47.3275 16.8379 47.7989 17.2733 48.292C17.5758 48.6347 17.9354 49.0153 18.0465 49.4749C18.215 50.1721 17.7663 49.3134 17.6399 49.1268C17.2144 48.4987 16.8465 47.7346 16.5556 47.0352C16.3106 46.4462 16.2684 47.4416 16.266 47.6451C16.2605 48.1233 16.2727 48.646 16.4324 49.1021C16.4822 49.2446 16.3991 49.1082 16.3738 49.059C16.2283 48.7757 16.1444 48.4616 16.0196 48.1688C15.943 47.989 15.8671 47.8003 15.7547 47.639C15.6388 47.4727 15.9887 47.9703 16.1151 48.1288C16.3615 48.4378 16.6055 48.7477 16.8051 49.0898C16.8338 49.1391 17.0376 49.4357 16.9961 49.5118C16.9324 49.6286 16.5578 49.3043 16.5371 49.287C16.1571 48.9693 15.8104 48.6049 15.613 48.1442C15.5113 47.907 15.3272 47.4769 15.4158 47.2077C15.523 46.8824 16.1578 46.9699 16.3892 46.989C16.8083 47.0236 17.2144 47.1197 17.6121 47.2539C17.7882 47.3134 18.1422 47.3984 18.2251 47.602C18.2939 47.7707 17.5674 47.5449 17.5167 47.5096C16.8716 47.0611 16.816 46.0745 16.879 45.3687C16.8851 45.3003 16.8987 45.0982 16.9129 45.1654C16.9655 45.4151 17.0813 45.667 17.1747 45.9016C17.3922 46.4478 17.6689 46.9548 17.9387 47.4757C18.084 47.7565 18.281 48.1135 18.3114 48.4399C18.322 48.5542 18.0863 48.3653 18.0034 48.2859C17.7217 48.0161 17.5233 47.6639 17.3626 47.3125C17.1388 46.8229 16.7539 45.2608 17.0022 45.7384C17.1765 46.0735 17.2898 46.4403 17.4581 46.7795C17.8147 47.498 18.2629 48.1637 18.681 48.8465C18.8722 49.1586 19.0589 49.4733 19.254 49.7829C19.4244 50.0533 19.1866 49.589 19.1739 49.5673C18.8704 49.0491 17.7212 47.6605 18.1358 48.0949C18.9328 48.9299 19.8681 49.6638 20.8558 50.2573C21.0675 50.3846 21.2815 50.5174 21.4965 50.6393C21.6189 50.7086 21.3587 50.3925 21.2716 50.2819C20.7687 49.6428 20.4542 48.8963 19.9686 48.2489C19.941 48.2121 19.462 47.6158 19.371 47.7067C19.1316 47.9462 20.0567 49.4231 20.1719 49.6535C20.2964 49.9025 20.4676 50.1708 20.5231 50.4483C20.5821 50.7433 20.0352 50.195 20.0118 50.171C19.6874 49.8396 19.4227 49.4517 19.1739 49.0621C19.0548 48.8756 18.8366 48.6056 18.8012 48.3752C18.7812 48.2452 19.3868 48.8877 19.4111 48.9142C19.8319 49.3755 20.3901 49.7163 20.9174 50.0417C21.252 50.2481 21.4404 50.2758 21.8415 50.2758C21.9303 50.2758 22.1439 50.2366 22.1711 50.3589C22.1875 50.4326 22.1812 50.6696 22.2851 50.6208C22.3971 50.568 22.4827 50.5377 22.6116 50.5561C22.6661 50.5639 22.8643 50.7248 22.7471 50.7625C22.4459 50.8593 22.0571 50.6592 21.7984 50.5407C21.3366 50.3292 20.8036 50.0064 20.289 49.9493C19.8993 49.906 19.5372 50.054 19.1493 50.054C19.0312 50.054 18.7084 49.9937 18.604 50.0632C18.4112 50.1918 19.1848 50.4767 19.2355 50.4976C19.6927 50.6855 20.1615 50.9541 20.6217 51.1075" stroke="black" stroke-linecap="round"/>
<path d="M17.4278 49.8211C17.8673 49.774 18.2993 50.0953 18.6748 50.2897C18.8686 50.39 19.0213 50.4758 19.0213 50.7003" stroke="black" stroke-linecap="round"/>
<line x1="27.5" y1="52" x2="27.5" y2="46" stroke="white"/>
<line x1="22.5" y1="52" x2="22.5" y2="46" stroke="white"/>
<line x1="22" y1="45.5" x2="28" y2="45.5" stroke="white"/>
<path d="M26.7968 47.1009C26.7968 46.9118 26.8013 46.7206 26.7678 46.5362C26.7304 46.3306 26.7022 46.2938 26.4823 46.3103C25.9234 46.3521 25.3522 46.2508 24.8003 46.3316C24.5766 46.3644 24.3486 46.4029 24.1225 46.4125C24.0241 46.4167 23.9241 46.4038 23.8279 46.4278C23.6885 46.4627 23.6483 46.4509 23.6036 46.585C23.5573 46.7237 23.5822 46.8966 23.5822 47.0414C23.5822 47.2426 23.4661 46.795 23.4509 46.7285C23.4294 46.6344 23.3915 46.5483 23.3349 46.469C23.3134 46.4389 23.3034 46.3681 23.2861 46.4415C23.2609 46.5487 23.2749 46.6912 23.2861 46.7987C23.3215 47.1415 23.3624 47.4687 23.3624 47.8153C23.3624 48.1029 23.283 48.3542 23.2464 48.6334C23.2198 48.836 23.238 48.9802 23.2922 49.1738C23.3267 49.2971 23.3378 49.3303 23.3288 49.1494C23.3022 48.6131 23.2836 48.0769 23.2586 47.5405C23.2479 47.3116 23.2428 47.0812 23.1838 46.8583C23.156 46.7534 23.1426 46.6785 23.1426 46.5682C23.1426 46.3606 23.0897 46.2291 23.0327 46.0294" stroke="white" stroke-linecap="round"/>
<path d="M23.0327 49.3539C22.9452 49.5071 23.0385 49.6871 23.0571 49.8408C23.0789 50.0203 23.0876 50.2221 23.0876 50.404C23.0876 50.5461 23.0899 50.6745 23.1151 50.8131C23.13 50.8947 23.1701 50.9822 23.1701 51.0634C23.1701 51.3298 23.7274 51.0531 23.8417 51.0238C24.2725 50.913 24.7627 51.1063 25.188 50.9749C25.5032 50.8775 25.838 50.7782 26.171 50.8162C26.384 50.8404 26.5934 50.8782 26.8075 50.894C26.9383 50.9037 27.0861 50.8901 26.9677 51.0085C26.8406 51.1356 26.9512 51.3909 26.7632 51.4359C26.4903 51.5011 26.3262 51.5133 26.0763 51.4145C25.9807 51.3767 25.8664 51.3716 25.7649 51.358C25.6059 51.3368 25.4531 51.2797 25.2918 51.2771C25.0054 51.2727 24.6993 51.3348 24.4187 51.3992C24.0524 51.4834 23.6915 51.4594 23.3197 51.4695C23.2837 51.4704 23.1038 51.5291 23.1624 51.5229C23.3775 51.5002 23.5868 51.4439 23.802 51.4206C24.4236 51.3534 25.0296 51.2094 25.6489 51.3535C25.7106 51.3678 25.753 51.4074 25.8123 51.4252C25.9129 51.4554 26.0204 51.4516 26.1221 51.4832C26.2461 51.5217 26.3657 51.5281 26.4946 51.5244C26.6375 51.5203 26.7894 51.4695 26.9342 51.4695" stroke="white" stroke-linecap="round"/>
<path d="M27.099 51.7443C26.7903 51.7443 26.4867 51.6804 26.1923 51.7855C26.0977 51.8193 25.938 51.8107 25.8413 51.7932C25.6792 51.7637 25.5159 51.7718 25.3513 51.7718C24.9349 51.7718 24.519 51.7993 24.1042 51.7993C23.948 51.7993 23.7034 51.8434 23.5669 51.7565C23.481 51.7018 23.2954 51.6777 23.4723 51.6069" stroke="white" stroke-linecap="round"/>
<path d="M25.5879 52.1014C25.552 52.1014 25.5475 52.103 25.5329 52.074" stroke="white" stroke-linecap="round"/>
<path d="M25.6703 52.3213C25.8165 52.2678 26.0249 52.2014 26.1099 52.074" stroke="white" stroke-linecap="round"/>
<line x1="58.5" y1="58" x2="58.5" stroke="black"/>
<path d="M68.4276 28.0909V13.0909H70.5014V14.8594H70.679C70.8021 14.6321 70.9796 14.3693 71.2116 14.071C71.4437 13.7727 71.7656 13.5123 72.1776 13.2898C72.5895 13.0625 73.134 12.9489 73.8111 12.9489C74.6918 12.9489 75.4777 13.1714 76.169 13.6165C76.8603 14.0616 77.4025 14.7031 77.7955 15.5412C78.1932 16.3793 78.392 17.3878 78.392 18.5668C78.392 19.7457 78.1955 20.7566 77.8026 21.5994C77.4096 22.4375 76.8698 23.0838 76.1832 23.5384C75.4967 23.9882 74.7131 24.2131 73.8324 24.2131C73.1695 24.2131 72.6274 24.1018 72.206 23.8793C71.7893 23.6567 71.4626 23.3963 71.2259 23.098C70.9891 22.7997 70.8068 22.5346 70.679 22.3026H70.5511V28.0909H68.4276ZM70.5085 18.5455C70.5085 19.3125 70.6198 19.9848 70.8423 20.5625C71.0649 21.1402 71.3868 21.5923 71.8082 21.919C72.2296 22.241 72.7457 22.402 73.3565 22.402C73.991 22.402 74.5213 22.2339 74.9474 21.8977C75.3736 21.5568 75.6955 21.0952 75.9134 20.5128C76.1359 19.9304 76.2472 19.2746 76.2472 18.5455C76.2472 17.8258 76.1383 17.1795 75.9205 16.6065C75.7074 16.0336 75.3854 15.5814 74.9545 15.25C74.5284 14.9186 73.9957 14.7528 73.3565 14.7528C72.741 14.7528 72.2202 14.9115 71.794 15.2287C71.3726 15.5459 71.053 15.9886 70.8352 16.5568C70.6174 17.125 70.5085 17.7879 70.5085 18.5455ZM85.3665 24.2202C84.3438 24.2202 83.4512 23.9858 82.6889 23.517C81.9266 23.0483 81.3348 22.3925 80.9134 21.5497C80.492 20.7069 80.2812 19.7221 80.2812 18.5952C80.2812 17.4635 80.492 16.474 80.9134 15.6264C81.3348 14.7789 81.9266 14.1207 82.6889 13.652C83.4512 13.1832 84.3438 12.9489 85.3665 12.9489C86.3892 12.9489 87.2817 13.1832 88.044 13.652C88.8063 14.1207 89.3982 14.7789 89.8196 15.6264C90.241 16.474 90.4517 17.4635 90.4517 18.5952C90.4517 19.7221 90.241 20.7069 89.8196 21.5497C89.3982 22.3925 88.8063 23.0483 88.044 23.517C87.2817 23.9858 86.3892 24.2202 85.3665 24.2202ZM85.3736 22.4375C86.0365 22.4375 86.5857 22.2623 87.0213 21.9119C87.4569 21.5616 87.7789 21.0952 87.9872 20.5128C88.2003 19.9304 88.3068 19.2888 88.3068 18.5881C88.3068 17.892 88.2003 17.2528 87.9872 16.6705C87.7789 16.0833 87.4569 15.6122 87.0213 15.2571C86.5857 14.902 86.0365 14.7244 85.3736 14.7244C84.706 14.7244 84.152 14.902 83.7116 15.2571C83.276 15.6122 82.9517 16.0833 82.7386 16.6705C82.5303 17.2528 82.4261 17.892 82.4261 18.5881C82.4261 19.2888 82.5303 19.9304 82.7386 20.5128C82.9517 21.0952 83.276 21.5616 83.7116 21.9119C84.152 22.2623 84.706 22.4375 85.3736 22.4375ZM99.7326 19.4759V13.0909H101.863V24H99.7752V22.1108H99.6616C99.4106 22.6932 99.0082 23.1785 98.4542 23.5668C97.9049 23.9503 97.2208 24.142 96.4016 24.142C95.7009 24.142 95.0806 23.9882 94.5408 23.6804C94.0058 23.3679 93.5844 22.9062 93.2766 22.2955C92.9736 21.6847 92.8221 20.9295 92.8221 20.0298V13.0909H94.9457V19.7741C94.9457 20.5175 95.1516 21.1094 95.5636 21.5497C95.9755 21.9901 96.5105 22.2102 97.1687 22.2102C97.5664 22.2102 97.9618 22.1108 98.3548 21.9119C98.7525 21.7131 99.0816 21.4124 99.342 21.0099C99.6071 20.6075 99.7373 20.0961 99.7326 19.4759ZM104.383 21.1591V19.3835L110.668 9.45455H112.067V12.0682H111.18L106.684 19.1847V19.2983H115.299V21.1591H104.383ZM111.279 24V20.6193L111.293 19.8097V9.45455H113.374V24H111.279ZM119.926 17.5227V24H117.803V9.45455H119.898V14.8665H120.033C120.288 14.2794 120.679 13.813 121.205 13.4673C121.73 13.1217 122.417 12.9489 123.264 12.9489C124.012 12.9489 124.666 13.1027 125.224 13.4105C125.788 13.7183 126.223 14.1776 126.531 14.7884C126.844 15.3944 127 16.152 127 17.0611V24H124.876V17.3168C124.876 16.5166 124.67 15.8963 124.259 15.456C123.847 15.0109 123.274 14.7884 122.54 14.7884C122.038 14.7884 121.588 14.8949 121.19 15.108C120.797 15.321 120.487 15.6335 120.26 16.0455C120.037 16.4527 119.926 16.9451 119.926 17.5227ZM134.536 24.2202C133.461 24.2202 132.535 23.9905 131.759 23.5312C130.987 23.0672 130.39 22.4162 129.969 21.5781C129.552 20.7353 129.344 19.7481 129.344 18.6165C129.344 17.4991 129.552 16.5142 129.969 15.6619C130.39 14.8097 130.977 14.1444 131.73 13.6662C132.488 13.188 133.373 12.9489 134.386 12.9489C135.002 12.9489 135.598 13.0507 136.176 13.2543C136.754 13.4579 137.272 13.7775 137.732 14.2131C138.191 14.6487 138.553 15.2145 138.818 15.9105C139.083 16.6018 139.216 17.4422 139.216 18.4318V19.1847H130.544V17.5938H137.135C137.135 17.035 137.021 16.5402 136.794 16.1094C136.567 15.6738 136.247 15.3305 135.835 15.0795C135.428 14.8286 134.95 14.7031 134.401 14.7031C133.804 14.7031 133.283 14.8499 132.838 15.1435C132.398 15.4323 132.057 15.8111 131.815 16.2798C131.579 16.7438 131.46 17.2481 131.46 17.7926V19.0355C131.46 19.7647 131.588 20.3849 131.844 20.8963C132.104 21.4077 132.466 21.7983 132.93 22.0682C133.394 22.3333 133.937 22.4659 134.557 22.4659C134.959 22.4659 135.326 22.4091 135.658 22.2955C135.989 22.1771 136.276 22.0019 136.517 21.7699C136.759 21.5379 136.943 21.2514 137.071 20.9105L139.081 21.2727C138.92 21.8646 138.631 22.383 138.214 22.8281C137.803 23.2685 137.284 23.6117 136.659 23.858C136.039 24.0994 135.331 24.2202 134.536 24.2202ZM143.696 9.45455V24H141.572V9.45455H143.696ZM146.553 28.0909V13.0909H148.626V14.8594H148.804C148.927 14.6321 149.105 14.3693 149.337 14.071C149.569 13.7727 149.891 13.5123 150.303 13.2898C150.714 13.0625 151.259 12.9489 151.936 12.9489C152.817 12.9489 153.603 13.1714 154.294 13.6165C154.985 14.0616 155.527 14.7031 155.92 15.5412C156.318 16.3793 156.517 17.3878 156.517 18.5668C156.517 19.7457 156.321 20.7566 155.928 21.5994C155.535 22.4375 154.995 23.0838 154.308 23.5384C153.622 23.9882 152.838 24.2131 151.957 24.2131C151.295 24.2131 150.752 24.1018 150.331 23.8793C149.914 23.6567 149.588 23.3963 149.351 23.098C149.114 22.7997 148.932 22.5346 148.804 22.3026H148.676V28.0909H146.553ZM148.634 18.5455C148.634 19.3125 148.745 19.9848 148.967 20.5625C149.19 21.1402 149.512 21.5923 149.933 21.919C150.355 22.241 150.871 22.402 151.482 22.402C152.116 22.402 152.646 22.2339 153.072 21.8977C153.499 21.5568 153.821 21.0952 154.038 20.5128C154.261 19.9304 154.372 19.2746 154.372 18.5455C154.372 17.8258 154.263 17.1795 154.045 16.6065C153.832 16.0336 153.51 15.5814 153.08 15.25C152.653 14.9186 152.121 14.7528 151.482 14.7528C150.866 14.7528 150.345 14.9115 149.919 15.2287C149.498 15.5459 149.178 15.9886 148.96 16.5568C148.742 17.125 148.634 17.7879 148.634 18.5455Z" fill="black"/>
<path d="M76.0781 35.8182V46H74.5469V37.1307H69.7543V46H68.223V35.8182H76.0781ZM81.5245 46.1541C80.8086 46.1541 80.1838 45.9901 79.6502 45.6619C79.1166 45.3338 78.7023 44.8748 78.4073 44.2848C78.1123 43.6948 77.9648 43.0054 77.9648 42.2166C77.9648 41.4245 78.1123 40.7318 78.4073 40.1385C78.7023 39.5452 79.1166 39.0845 79.6502 38.7564C80.1838 38.4283 80.8086 38.2642 81.5245 38.2642C82.2404 38.2642 82.8652 38.4283 83.3988 38.7564C83.9324 39.0845 84.3467 39.5452 84.6417 40.1385C84.9367 40.7318 85.0842 41.4245 85.0842 42.2166C85.0842 43.0054 84.9367 43.6948 84.6417 44.2848C84.3467 44.8748 83.9324 45.3338 83.3988 45.6619C82.8652 45.9901 82.2404 46.1541 81.5245 46.1541ZM81.5295 44.9062C81.9935 44.9062 82.378 44.7836 82.6829 44.5384C82.9878 44.2931 83.2132 43.9666 83.359 43.5589C83.5082 43.1513 83.5827 42.7022 83.5827 42.2116C83.5827 41.7244 83.5082 41.277 83.359 40.8693C83.2132 40.4583 82.9878 40.1286 82.6829 39.88C82.378 39.6314 81.9935 39.5071 81.5295 39.5071C81.0621 39.5071 80.6744 39.6314 80.3661 39.88C80.0612 40.1286 79.8342 40.4583 79.685 40.8693C79.5392 41.277 79.4663 41.7244 79.4663 42.2116C79.4663 42.7022 79.5392 43.1513 79.685 43.5589C79.8342 43.9666 80.0612 44.2931 80.3661 44.5384C80.6744 44.7836 81.0621 44.9062 81.5295 44.9062ZM86.7434 38.3636H88.2001V44.7124H90.84V38.3636H92.2967V44.7124H94.9366V38.3636H96.3933V46H86.7434V38.3636ZM99.0444 48.8636C98.8223 48.8636 98.6201 48.8454 98.4379 48.8089C98.2556 48.7758 98.1197 48.7393 98.0302 48.6996L98.3881 47.4815C98.6599 47.5545 98.9019 47.5859 99.114 47.576C99.3261 47.5661 99.5134 47.4865 99.6758 47.3374C99.8415 47.1882 99.9873 46.9446 100.113 46.6065L100.297 46.0994L97.5032 38.3636H99.0941L101.028 44.2898H101.108L103.042 38.3636H104.637L101.49 47.0192C101.345 47.4169 101.159 47.7533 100.934 48.0284C100.708 48.3068 100.44 48.5156 100.128 48.6548C99.8166 48.794 99.4554 48.8636 99.0444 48.8636ZM106.034 46V38.3636H107.521V41.5653H108.237L110.757 38.3636H112.597L109.639 42.0774L112.632 46H110.787L108.485 42.9474H107.521V46H106.034ZM117.491 46V38.3636H123.721V46H122.264V39.6463H118.938V46H117.491ZM125.708 48.8636V38.3636H127.16V39.6016H127.284C127.37 39.4425 127.495 39.2585 127.657 39.0497C127.82 38.8409 128.045 38.6586 128.333 38.5028C128.622 38.3438 129.003 38.2642 129.477 38.2642C130.093 38.2642 130.643 38.42 131.127 38.7315C131.611 39.0431 131.991 39.4922 132.266 40.0788C132.544 40.6655 132.683 41.3714 132.683 42.1967C132.683 43.022 132.546 43.7296 132.271 44.3196C131.996 44.9062 131.618 45.3587 131.137 45.6768C130.657 45.9917 130.108 46.1491 129.492 46.1491C129.028 46.1491 128.648 46.0713 128.353 45.9155C128.061 45.7597 127.833 45.5774 127.667 45.3686C127.501 45.1598 127.374 44.9742 127.284 44.8118H127.195V48.8636H125.708ZM127.165 42.1818C127.165 42.7187 127.243 43.1894 127.399 43.5938C127.554 43.9981 127.78 44.3146 128.075 44.5433C128.37 44.7687 128.731 44.8814 129.159 44.8814C129.603 44.8814 129.974 44.7637 130.272 44.5284C130.57 44.2898 130.796 43.9666 130.948 43.5589C131.104 43.1513 131.182 42.6922 131.182 42.1818C131.182 41.678 131.106 41.2256 130.953 40.8246C130.804 40.4235 130.579 40.107 130.277 39.875C129.979 39.643 129.606 39.527 129.159 39.527C128.728 39.527 128.363 39.638 128.065 39.8601C127.77 40.0821 127.546 40.392 127.394 40.7898C127.241 41.1875 127.165 41.6515 127.165 42.1818ZM135.806 43.9169L139.171 38.3636H140.772V46H139.316V40.4418L135.965 46H134.349V38.3636H135.806V43.9169ZM143.944 38.3636L145.629 41.3366L147.33 38.3636H148.955L146.574 42.1818L148.975 46H147.35L145.629 43.1463L143.914 46H142.284L144.66 42.1818L142.313 38.3636H143.944ZM151.938 43.9169L155.304 38.3636H156.905V46H155.448V40.4418L152.097 46H150.482V38.3636H151.938V43.9169ZM162.12 46.1541C161.381 46.1541 160.745 45.9867 160.211 45.652C159.681 45.3139 159.273 44.8482 158.988 44.255C158.703 43.6617 158.561 42.9822 158.561 42.2166C158.561 41.4411 158.706 40.7566 158.998 40.1634C159.29 39.5668 159.701 39.1011 160.231 38.7663C160.761 38.4316 161.386 38.2642 162.105 38.2642C162.685 38.2642 163.202 38.3719 163.656 38.5874C164.11 38.7995 164.477 39.0978 164.755 39.4822C165.037 39.8667 165.204 40.3158 165.257 40.8295H163.811C163.731 40.4716 163.549 40.1634 163.264 39.9048C162.982 39.6463 162.604 39.517 162.13 39.517C161.716 39.517 161.353 39.6264 161.041 39.8452C160.733 40.0606 160.493 40.3688 160.32 40.7699C160.148 41.1676 160.062 41.6383 160.062 42.1818C160.062 42.7386 160.146 43.2192 160.316 43.6236C160.485 44.0279 160.723 44.3411 161.031 44.5632C161.343 44.7853 161.709 44.8963 162.13 44.8963C162.412 44.8963 162.667 44.8449 162.896 44.7422C163.128 44.6361 163.322 44.4853 163.477 44.2898C163.637 44.0942 163.748 43.8589 163.811 43.5838H165.257C165.204 44.0777 165.044 44.5185 164.775 44.9062C164.507 45.294 164.147 45.599 163.696 45.821C163.249 46.0431 162.723 46.1541 162.12 46.1541ZM166.269 39.6463V38.3636H172.712V39.6463H170.221V46H168.77V39.6463H166.269ZM174.284 46V38.3636H175.771V41.5653H176.487L179.007 38.3636H180.847L177.889 42.0774L180.882 46H179.037L176.735 42.9474H175.771V46H174.284ZM183.017 48.8636C182.795 48.8636 182.593 48.8454 182.411 48.8089C182.228 48.7758 182.092 48.7393 182.003 48.6996L182.361 47.4815C182.633 47.5545 182.875 47.5859 183.087 47.576C183.299 47.5661 183.486 47.4865 183.648 47.3374C183.814 47.1882 183.96 46.9446 184.086 46.6065L184.27 46.0994L181.476 38.3636H183.067L185.001 44.2898H185.08L187.014 38.3636H188.61L185.463 47.0192C185.317 47.4169 185.132 47.7533 184.906 48.0284C184.681 48.3068 184.412 48.5156 184.101 48.6548C183.789 48.794 183.428 48.8636 183.017 48.8636ZM193.712 46V38.3636H196.879C197.741 38.3636 198.424 38.5476 198.927 38.9155C199.431 39.2801 199.683 39.7756 199.683 40.402C199.683 40.8494 199.541 41.2041 199.256 41.4659C198.97 41.7277 198.593 41.9034 198.122 41.9929C198.463 42.0327 198.777 42.1354 199.062 42.3011C199.347 42.4635 199.575 42.6823 199.748 42.9574C199.923 43.2325 200.011 43.5606 200.011 43.9418C200.011 44.3461 199.907 44.7041 199.698 45.0156C199.489 45.3239 199.186 45.5658 198.788 45.7415C198.394 45.9138 197.918 46 197.361 46H193.712ZM195.109 44.7571H197.361C197.729 44.7571 198.018 44.6693 198.226 44.4936C198.435 44.3179 198.54 44.0793 198.54 43.7777C198.54 43.4231 198.435 43.1446 198.226 42.9425C198.018 42.737 197.729 42.6342 197.361 42.6342H195.109V44.7571ZM195.109 41.5455H196.894C197.172 41.5455 197.411 41.5057 197.61 41.4261C197.812 41.3466 197.966 41.2339 198.072 41.0881C198.182 40.9389 198.236 40.7633 198.236 40.5611C198.236 40.2661 198.115 40.0357 197.873 39.87C197.631 39.7043 197.3 39.6214 196.879 39.6214H195.109V41.5455ZM206.187 46.1392V44.7869H206.799C207.054 44.7869 207.264 44.7438 207.43 44.6577C207.599 44.5715 207.737 44.4555 207.843 44.3097C207.952 44.1605 208.043 43.9981 208.116 43.8224L208.26 43.4595L204.681 35.8182H206.311L208.981 41.7045L211.358 35.8182H212.968L209.449 44.2351C209.299 44.5732 209.127 44.8864 208.931 45.1747C208.739 45.4631 208.482 45.6967 208.161 45.8757C207.839 46.0514 207.413 46.1392 206.883 46.1392H206.187ZM213.741 46V38.3636H215.228V41.5653H215.944L218.464 38.3636H220.304L217.346 42.0774L220.339 46H218.494L216.192 42.9474H215.228V46H213.741ZM221.493 48.8636V38.3636H222.945V39.6016H223.069C223.156 39.4425 223.28 39.2585 223.442 39.0497C223.605 38.8409 223.83 38.6586 224.118 38.5028C224.407 38.3438 224.788 38.2642 225.262 38.2642C225.878 38.2642 226.429 38.42 226.912 38.7315C227.396 39.0431 227.776 39.4922 228.051 40.0788C228.329 40.6655 228.469 41.3714 228.469 42.1967C228.469 43.022 228.331 43.7296 228.056 44.3196C227.781 44.9062 227.403 45.3587 226.922 45.6768C226.442 45.9917 225.893 46.1491 225.277 46.1491C224.813 46.1491 224.433 46.0713 224.138 45.9155C223.847 45.7597 223.618 45.5774 223.452 45.3686C223.287 45.1598 223.159 44.9742 223.069 44.8118H222.98V48.8636H221.493ZM222.95 42.1818C222.95 42.7187 223.028 43.1894 223.184 43.5938C223.34 43.9981 223.565 44.3146 223.86 44.5433C224.155 44.7687 224.516 44.8814 224.944 44.8814C225.388 44.8814 225.759 44.7637 226.057 44.5284C226.356 44.2898 226.581 43.9666 226.733 43.5589C226.889 43.1513 226.967 42.6922 226.967 42.1818C226.967 41.678 226.891 41.2256 226.738 40.8246C226.589 40.4235 226.364 40.107 226.062 39.875C225.764 39.643 225.391 39.527 224.944 39.527C224.513 39.527 224.148 39.638 223.85 39.8601C223.555 40.0821 223.331 40.392 223.179 40.7898C223.026 41.1875 222.95 41.6515 222.95 42.1818ZM232.356 46.169C231.872 46.169 231.435 46.0795 231.044 45.9006C230.653 45.7183 230.343 45.4548 230.114 45.1101C229.889 44.7654 229.776 44.3428 229.776 43.8423C229.776 43.4115 229.859 43.0568 230.025 42.7784C230.19 42.5 230.414 42.2796 230.696 42.1172C230.978 41.9548 231.292 41.8321 231.64 41.7493C231.988 41.6664 232.343 41.6035 232.704 41.5604C233.162 41.5073 233.533 41.4643 233.818 41.4311C234.103 41.3946 234.31 41.3366 234.439 41.2571C234.569 41.1776 234.633 41.0483 234.633 40.8693V40.8345C234.633 40.4003 234.511 40.0639 234.265 39.8253C234.023 39.5866 233.662 39.4673 233.182 39.4673C232.681 39.4673 232.287 39.5784 231.998 39.8004C231.713 40.0192 231.516 40.2628 231.407 40.5312L230.01 40.2131C230.175 39.7491 230.417 39.3745 230.736 39.0895C231.057 38.8011 231.427 38.5923 231.844 38.4631C232.262 38.3305 232.701 38.2642 233.162 38.2642C233.467 38.2642 233.79 38.3007 234.131 38.3736C234.476 38.4432 234.797 38.5724 235.096 38.7614C235.397 38.9503 235.644 39.2204 235.836 39.5717C236.029 39.9197 236.125 40.3722 236.125 40.929V46H234.673V44.956H234.613C234.517 45.1482 234.373 45.3371 234.181 45.5227C233.989 45.7083 233.742 45.8625 233.44 45.9851C233.139 46.1077 232.777 46.169 232.356 46.169ZM232.68 44.9759C233.09 44.9759 233.442 44.8946 233.733 44.7322C234.028 44.5698 234.252 44.3577 234.405 44.0959C234.56 43.8307 234.638 43.5473 234.638 43.2457V42.2614C234.585 42.3144 234.483 42.3641 234.33 42.4105C234.181 42.4536 234.01 42.4917 233.818 42.5249C233.626 42.5547 233.439 42.5829 233.256 42.6094C233.074 42.6326 232.921 42.6525 232.799 42.669C232.51 42.7055 232.247 42.7668 232.008 42.853C231.773 42.9392 231.584 43.0634 231.442 43.2259C231.302 43.3849 231.233 43.5971 231.233 43.8622C231.233 44.2301 231.369 44.5085 231.64 44.6974C231.912 44.883 232.259 44.9759 232.68 44.9759ZM238.105 46V38.3636H239.591V46H238.105ZM237.394 37.1655C237.162 37.1655 236.958 37.0793 236.782 36.907C236.607 36.7313 236.519 36.5291 236.519 36.3004C236.519 36.0518 236.607 35.8447 236.782 35.679C236.958 35.5133 237.162 35.4304 237.394 35.4304C237.642 35.4304 237.85 35.5133 238.015 35.679C238.184 35.8447 238.269 36.0518 238.269 36.3004C238.269 36.5291 238.184 36.7313 238.015 36.907C237.85 37.0793 237.642 37.1655 237.394 37.1655ZM240.317 37.1655C240.085 37.1655 239.881 37.0793 239.706 36.907C239.53 36.7313 239.442 36.5291 239.442 36.3004C239.442 36.0518 239.53 35.8447 239.706 35.679C239.881 35.5133 240.085 35.4304 240.317 35.4304C240.566 35.4304 240.773 35.5133 240.939 35.679C241.108 35.8447 241.192 36.0518 241.192 36.3004C241.192 36.5291 241.108 36.7313 240.939 36.907C240.773 37.0793 240.566 37.1655 240.317 37.1655ZM246.767 41.5405V42.8281H242.63V41.5405H246.767ZM243.048 38.3636V46H241.591V38.3636H243.048ZM247.806 38.3636V46H246.354V38.3636H247.806ZM249.794 46V38.3636H251.281V46H249.794ZM250.545 37.1854C250.286 37.1854 250.064 37.0992 249.879 36.9268C249.696 36.7512 249.605 36.5424 249.605 36.3004C249.605 36.0552 249.696 35.8464 249.879 35.674C250.064 35.4983 250.286 35.4105 250.545 35.4105C250.803 35.4105 251.024 35.4983 251.206 35.674C251.392 35.8464 251.485 36.0552 251.485 36.3004C251.485 36.5424 251.392 36.7512 251.206 36.9268C251.024 37.0992 250.803 37.1854 250.545 37.1854Z" fill="#FF7A00"/>
</svg>
