<svg width="450" height="146" viewBox="0 0 450 146" fill="none" xmlns="http://www.w3.org/2000/svg">
<circle cx="224.5" cy="25.5" r="25.5" fill="#FF7A00"/>
<line x1="199.726" y1="32.6388" x2="225.726" y2="15.5819" stroke="white"/>
<line x1="249.529" y1="34.118" x2="224.699" y2="15.3992" stroke="white"/>
<line x1="245.657" y1="39.4524" x2="224.231" y2="22.9666" stroke="white"/>
<line x1="202.25" y1="38.4473" x2="225.521" y2="23.2668" stroke="white"/>
<line x1="238.5" y1="26" x2="238.5" y2="18" stroke="white"/>
<line x1="234.5" y1="22" x2="234.5" y2="18" stroke="white"/>
<line x1="234" y1="17.5" x2="239" y2="17.5" stroke="white"/>
<line x1="222.5" y1="51" x2="222.5" y2="46" stroke="white"/>
<line x1="226.993" y1="45.5694" x2="221.993" y2="45.4999" stroke="white"/>
<line x1="226.5" y1="51" x2="226.5" y2="46" stroke="white"/>
<path d="M206.969 31.7648C207.117 31.7648 207.233 31.7033 207.363 31.6325C207.86 31.3622 208.337 31.0637 208.816 30.7657C209.56 30.3041 210.379 29.9234 211.15 29.5018C211.614 29.2477 212.258 29.0991 212.642 28.7284C212.891 28.4881 213.165 28.2207 213.438 28.0096C213.848 27.6933 214.393 27.5742 214.861 27.3738C215.372 27.1546 215.878 26.938 216.366 26.6705C217.731 25.9219 219.04 25.0472 220.256 24.0805C221.029 23.4657 221.746 22.6462 222.337 21.8616C222.555 21.5722 222.702 21.2354 222.991 21.0104C223.208 20.8419 223.406 20.6476 223.635 20.4965C223.773 20.4056 223.942 20.291 224.066 20.1799C224.229 20.034 224.3 20.6476 224.325 20.7508C224.4 21.0549 224.309 21.4136 224.273 21.7162C224.262 21.8122 224.221 21.9453 224.299 22.0277C224.36 22.092 224.472 22.2171 224.486 22.1886" stroke="white" stroke-width="3" stroke-linecap="round"/>
<path d="M223.178 23.0294C223.064 23.2053 222.697 23.2907 222.618 23.4498" stroke="white" stroke-width="3" stroke-linecap="round"/>
<path d="M221.45 21.5813C221.208 21.5813 220.957 21.7941 220.749 21.8979C220.415 22.0649 220.053 22.1712 219.721 22.3391C219.237 22.5842 218.808 22.9468 218.393 23.2863C217.715 23.8406 216.938 24.28 216.171 24.7111C215.761 24.9417 215.383 25.2293 214.977 25.4403C214.431 25.7245 213.892 25.9994 213.379 26.3461C212.016 27.266 210.445 27.8369 209.232 28.988C209.03 29.179 208.798 29.3049 208.567 29.4499C208.387 29.5631 208.196 29.8065 208.043 29.9637C207.89 30.1217 207.734 30.282 207.602 30.4568C207.381 30.749 206.978 30.9302 206.709 31.1809C206.36 31.5057 206.004 31.8765 205.604 32.1385C205.081 32.4808 204.479 32.743 203.912 32.9975C203.542 33.1631 203.126 33.2553 202.764 33.3998C202.661 33.4412 202.581 33.5533 202.484 33.6126C202.358 33.6896 202.244 33.7468 202.11 33.8098C201.883 33.9173 201.915 33.6078 201.854 33.4724C201.776 33.3013 201.744 33.1841 201.55 33.1195" stroke="white" stroke-width="3" stroke-linecap="round"/>
<path d="M201.877 32.559C202.005 32.4539 202.192 32.4377 202.347 32.3929C202.578 32.3258 202.802 32.1908 203.037 32.1437C203.201 32.111 203.329 32.0889 203.476 31.9984C203.88 31.7493 204.204 31.4314 204.633 31.2043C204.933 31.0453 205.252 30.9065 205.565 30.7657C205.808 30.6563 206.025 30.5236 206.268 30.3998C206.591 30.235 206.909 30.0607 207.184 29.8262C207.469 29.5833 207.84 29.4455 208.111 29.1749C208.514 28.7715 209.106 28.6008 209.494 28.1939C209.771 27.9028 210.208 27.7834 210.508 27.5243C210.697 27.3621 210.996 27.2412 211.217 27.1169C211.68 26.8564 212.109 26.5827 212.577 26.3253C212.805 26.2001 212.992 26.0502 213.228 25.9257C213.464 25.801 213.744 25.6304 213.955 25.4689C214.344 25.1715 214.785 24.9417 215.18 24.6437C215.718 24.2372 216.344 23.8911 216.778 23.3668C217.167 22.898 217.781 22.5649 218.284 22.2353C218.497 22.0958 218.746 22.0284 218.948 21.8772C219.374 21.5577 219.914 21.3228 220.394 21.0934C220.611 20.9892 220.817 20.8559 221.029 20.7405C221.14 20.6805 221.221 20.5686 221.312 20.4836C221.457 20.3488 221.654 20.3013 221.818 20.2007C221.99 20.0955 222.249 19.9359 222.394 19.7959C222.575 19.6221 222.81 19.5152 222.991 19.3339C223.367 18.9582 223.898 18.7145 224.323 18.3841C224.456 18.2805 224.574 18.2151 224.73 18.1609C224.891 18.1053 224.984 17.9431 225.14 17.891" stroke="white" stroke-width="3" stroke-linecap="round"/>
<path d="M225.514 18.0311C225.53 18.161 225.953 18.2843 226.048 18.3607C226.3 18.5618 226.593 18.7606 226.773 19.0303C226.987 19.3519 227.307 19.6533 227.616 19.8893C227.751 19.9923 227.856 20.1262 227.995 20.2318C228.219 20.4022 228.482 20.5037 228.706 20.6678C228.974 20.8643 229.288 20.9989 229.555 21.2076C230.102 21.6359 230.683 22.0861 231.28 22.4274C231.344 22.4637 231.335 22.5697 231.423 22.609C231.515 22.6498 231.592 22.7343 231.68 22.7855C231.872 22.8967 232.101 23.0919 232.287 23.2267C232.929 23.69 233.609 24.1037 234.247 24.5502C234.72 24.8819 235.238 25.1202 235.744 25.4015C235.815 25.4407 235.847 25.5187 235.923 25.5624C236.133 25.6824 236.363 25.8228 236.538 25.9932C236.708 26.1587 237.096 26.388 237.192 26.5797" stroke="white" stroke-width="3" stroke-linecap="round"/>
<path d="M236.772 27C237.142 27.1283 237.445 27.4896 237.776 27.7033C238.087 27.9037 238.402 28.0925 238.708 28.2872C238.907 28.4139 239.092 28.5487 239.284 28.6817C239.51 28.8381 239.802 28.9298 240.005 29.1125C240.232 29.3155 240.547 29.3739 240.768 29.5952C241.06 29.8873 241.415 30.0441 241.721 30.3115C241.927 30.492 242.216 30.6336 242.445 30.7942C242.75 31.0086 243.022 31.2484 243.291 31.5104C243.771 31.9784 244.279 32.476 244.806 32.8859C244.94 32.9895 245.196 33.2394 245.367 33.2596C245.478 33.2726 245.625 33.4926 245.741 33.5502C245.955 33.6573 246.121 33.8822 246.299 34.0304C246.539 34.2308 246.381 34.3807 246.768 34.3807" stroke="white" stroke-width="3" stroke-linecap="round"/>
<path d="M224.813 20.1799C225.274 20.3155 225.7 20.729 226.111 20.9689C227.167 21.586 228.231 22.2041 229.246 22.8867C230.188 23.5202 231.119 24.1719 232.043 24.8305C232.92 25.4554 233.775 26.127 234.69 26.6938C235.728 27.3364 236.74 28.0049 237.755 28.6818C238.625 29.2616 239.356 30.0354 240.112 30.7579C241.132 31.7325 242.076 32.892 243.27 33.6593C243.475 33.7909 243.734 33.7604 243.916 33.937C244.226 34.2373 244.592 34.4624 244.9 34.7545C245.114 34.9569 245.299 35.1656 245.46 35.4085" stroke="white" stroke-width="3" stroke-linecap="round"/>
<path d="M225.093 21.5813C225.143 22.077 225.488 22.4704 225.898 22.7128C226.123 22.8458 226.321 23.0501 226.552 23.1332C226.919 23.2655 227.264 23.4142 227.616 23.59" stroke="white" stroke-width="3" stroke-linecap="round"/>
<path d="M226.728 22.609C226.889 22.8277 227.217 22.9664 227.437 23.1151C227.755 23.3298 228.071 23.5475 228.389 23.7613C228.818 24.0489 229.257 24.3427 229.661 24.6644C229.886 24.8434 230.147 25.073 230.351 25.2717C230.626 25.5383 230.977 25.711 231.275 25.9776C231.766 26.4155 232.305 26.795 232.822 27.1973C232.991 27.3292 233.098 27.5174 233.268 27.6437C233.428 27.7624 233.591 27.8664 233.735 28.007C234.072 28.3345 234.516 28.4771 234.877 28.7648C235.477 29.2421 236.228 29.4464 236.772 29.9897" stroke="white" stroke-width="3" stroke-linecap="round"/>
<path d="M234.109 28.5883C234.86 29.1822 235.603 29.7963 236.351 30.3841C236.463 30.4718 236.564 30.5686 236.678 30.654C236.795 30.7414 236.949 30.7789 237.052 30.8772C237.267 31.0813 237.595 31.1962 237.776 31.417C238.294 32.0503 239.067 32.5181 239.691 33.0468C240.312 33.5717 240.888 34.1446 241.56 34.6117C241.962 34.8916 242.351 35.1765 242.743 35.4707C243.026 35.683 243.309 36.0074 243.628 36.1558C243.867 36.2669 244.978 37.3896 245.097 37.0797C245.252 36.6765 245.455 36.2871 245.658 35.9222C245.703 35.8412 245.781 35.8013 245.858 35.7588C245.958 35.7028 245.882 35.6041 245.951 35.5485C246.044 35.4745 246.182 35.3299 246.255 35.2215" stroke="white" stroke-width="3" stroke-linecap="round"/>
<path d="M221.637 23.6833C221.324 23.7181 220.974 24.2318 220.796 24.4541C220.515 24.8053 219.991 24.9729 219.631 25.2249C219.104 25.5936 218.424 25.7679 217.853 26.0657C217.34 26.3331 216.936 26.6557 216.524 27.0675C216.187 27.4044 215.704 27.6097 215.284 27.8201C215.02 27.952 214.79 28.1347 214.536 28.2846C214.355 28.3914 213.989 28.5636 213.885 28.7543C213.734 29.0303 213.407 29.197 213.161 29.3798C212.936 29.547 212.705 29.6744 212.457 29.8028C212.194 29.9392 211.936 30.1255 211.666 30.2414C211.445 30.336 211.155 30.4296 210.965 30.5736C210.485 30.9383 209.832 31.0695 209.387 31.4741C209.145 31.6941 208.872 31.9102 208.567 32.045C208.366 32.134 208.129 32.2456 207.996 32.4291C207.856 32.6239 207.486 32.7702 207.29 32.9118C207.112 33.041 206.926 33.1325 206.745 33.2596C206.537 33.406 206.355 33.5337 206.117 33.6333C205.836 33.751 205.54 33.9227 205.271 34.0693C204.96 34.2393 204.617 34.4209 204.332 34.6247C204.051 34.8255 203.662 34.9355 203.522 35.2683C203.2 36.0346 204.815 35.1461 205.043 35.0139C205.205 34.9199 205.327 34.763 205.5 34.6869C205.655 34.6184 205.697 34.6384 205.775 34.4949C205.822 34.4088 206 34.281 206.081 34.2406" stroke="white" stroke-width="3" stroke-linecap="round"/>
<path d="M203.091 34.0537C202.789 34.0537 202.858 34.2151 202.858 34.4741C202.858 34.6523 202.766 34.9897 202.858 35.1281" stroke="white" stroke-width="3" stroke-linecap="round"/>
<path d="M200.887 34.0181C200.936 34.0289 200.938 34.1325 200.947 34.1691C200.963 34.237 200.995 34.308 201.031 34.368C201.074 34.4393 201.115 34.5372 201.135 34.6185C201.147 34.665 201.188 34.723 201.214 34.763C201.267 34.8432 201.296 34.9289 201.332 35.0171C201.462 35.3344 201.62 35.6597 201.809 35.9436C201.905 36.0869 202.019 36.2208 202.09 36.3792C202.159 36.5349 202.23 36.6929 202.305 36.8468C202.333 36.9039 202.403 37.1234 202.495 37.1155C202.546 37.1111 202.604 37.0337 202.64 36.9979C202.684 36.9542 202.729 36.9124 202.776 36.873C202.872 36.7917 202.968 36.7111 203.103 36.7437C203.144 36.7536 203.263 36.7677 203.266 36.8251C203.268 36.8884 203.232 36.8982 203.177 36.9194C203.138 36.9345 203.094 36.9364 203.056 36.9528C202.969 36.9907 202.929 37.0924 202.877 37.1649C202.847 37.2066 202.809 37.2737 202.762 37.2992C202.71 37.3274 202.645 37.3509 202.6 37.3899C202.535 37.4471 202.462 37.4313 202.397 37.3761C202.377 37.3587 202.348 37.283 202.341 37.2592C202.317 37.1805 202.267 37.1022 202.228 37.0298C202.1 36.7979 201.959 36.5743 201.816 36.3524C201.669 36.1253 201.497 35.8611 201.462 35.5864" stroke="white" stroke-linecap="round"/>
<path d="M247.662 33.6782C247.754 33.6782 247.79 33.8774 247.842 33.9425C247.857 33.9611 247.855 34.0381 247.865 34.0645C247.884 34.1168 247.903 34.1733 247.91 34.2279C247.916 34.2768 247.914 34.472 247.986 34.3317C248.009 34.2874 248.015 34.2375 248.031 34.1908C248.042 34.158 248.067 34.1254 248.067 34.0899C248.067 34.0454 248.085 33.9821 248.053 34.0594C247.939 34.3355 247.789 34.5872 247.722 34.8799C247.678 35.0702 247.617 35.2943 247.508 35.4585C247.431 35.5746 247.406 35.7222 247.314 35.8303C247.242 35.914 247.203 36.0165 247.139 36.1062C247.101 36.1609 247.055 36.2162 247.029 36.2783C246.975 36.4052 246.887 36.5099 246.8 36.6159C246.665 36.7803 246.527 36.9435 246.396 37.1111C246.308 37.2234 246.253 37.3561 246.178 37.477C246.101 37.6013 246.021 37.7231 245.963 37.8575C245.916 37.9672 245.898 38.0841 245.838 38.1864C245.773 38.2981 245.606 38.3586 245.61 38.5008C245.614 38.6189 245.739 38.6435 245.836 38.6758C245.861 38.6841 245.888 38.6885 245.912 38.6743C246.017 38.6125 246.113 38.5174 246.201 38.4354C246.483 38.1744 246.801 37.9429 247.045 37.644C247.234 37.4131 247.361 37.1447 247.499 36.8831C247.554 36.7802 247.592 36.6688 247.635 36.5607C247.673 36.4641 247.672 36.3571 247.701 36.2572C247.849 35.7594 247.923 35.2338 248.125 34.7528C248.21 34.5524 248.314 34.3697 248.355 34.156C248.381 34.021 248.39 33.8734 248.433 33.7436" stroke="white" stroke-linecap="round"/>
<path d="M245.911 38.8667C245.911 39.0214 245.877 39.2213 245.77 39.3401C245.738 39.3756 245.78 39.5071 245.715 39.5071" stroke="white" stroke-linecap="round"/>
<path d="M223.27 46.3865C223.152 46.1857 223.137 46.5285 223.128 46.6088C223.091 46.9395 223.147 47.3007 223.147 47.6356C223.147 48.033 223.242 48.4246 223.268 48.8189C223.292 49.1857 223.32 49.5519 223.32 49.9198C223.32 50.101 223.32 50.2822 223.32 50.4634C223.32 50.5656 223.292 50.6467 223.421 50.635C223.801 50.6004 224.184 50.6116 224.566 50.6116C224.729 50.6116 224.887 50.5869 225.049 50.5869C225.19 50.5869 225.409 50.6608 225.538 50.5869C225.604 50.5493 225.703 50.5902 225.76 50.5457C225.871 50.4599 225.76 50.1473 225.741 50.0406C225.7 49.8132 225.686 49.5831 225.656 49.3542C225.619 49.07 225.719 48.7908 225.741 48.5087C225.771 48.1385 225.784 47.7597 225.76 47.3885C225.745 47.1417 225.791 46.8987 225.791 46.6514C225.791 46.4952 225.711 46.4275 225.642 46.3014C225.549 46.1284 225.367 46.2637 225.211 46.2931C224.853 46.3611 224.473 46.3334 224.12 46.4249C224.028 46.4488 223.935 46.4827 223.839 46.4853C223.794 46.4865 223.746 46.4785 223.704 46.4977C223.558 46.5643 223.723 46.9679 223.734 47.103C223.781 47.668 223.744 48.2517 223.74 48.8189C223.738 49.0902 223.672 49.3937 223.754 49.6603C223.809 49.8432 223.914 50.0526 224.072 50.1669C224.334 50.3566 224.649 50.0912 224.849 49.9212C225.165 49.6522 225.176 49.3447 225.198 48.9534C225.229 48.3887 225.198 47.8172 225.198 47.2513C225.198 47.1863 225.254 46.5878 225.118 46.6143C224.981 46.6412 224.828 46.8033 224.731 46.8944C224.611 47.0063 224.456 47.1887 224.399 47.3446C224.314 47.574 224.329 47.8765 224.338 48.1161C224.348 48.3687 224.371 48.6098 224.458 48.8477C224.528 49.04 224.671 49.2558 224.654 49.4695C224.647 49.5632 224.413 49.5354 224.373 49.486C224.324 49.4263 224.308 49.2806 224.283 49.2087C224.223 49.0356 224.209 48.8665 224.209 48.6844" stroke="white" stroke-linecap="round"/>
<path d="M234.925 22.1102C234.996 22.1894 234.994 22.3527 235.004 22.4541C235.012 22.5365 234.924 22.2986 234.852 22.2576C234.805 22.2309 234.742 22.2381 234.687 22.2166C234.641 22.1986 234.508 22.1004 234.516 22.1038C234.577 22.1288 234.619 22.2226 234.643 22.2776C234.699 22.4058 234.748 22.5305 234.814 22.6543C234.956 22.9182 235.006 23.2227 235.141 23.4895C235.195 23.5946 235.205 23.4587 235.213 23.4167C235.247 23.2397 235.267 23.0608 235.285 22.8817C235.351 22.2504 235.438 21.616 235.425 20.9801C235.421 20.7602 235.408 20.5364 235.369 20.3195C235.343 20.1743 235.35 20.6142 235.343 20.7617C235.331 21.0659 235.322 21.3727 235.37 21.6743C235.413 21.9443 235.468 22.2128 235.515 22.4823C235.531 22.5797 235.546 22.68 235.569 22.7762C235.621 22.9946 235.519 22.3299 235.497 22.1065C235.454 21.663 235.419 21.2197 235.4 20.7745C235.393 20.6241 235.396 20.4693 235.376 20.3195C235.34 20.0537 235.429 20.8536 235.465 21.1193C235.551 21.7401 235.552 22.3601 235.597 22.9836C235.598 22.9899 235.656 23.4273 235.669 23.4158C235.682 23.4044 235.69 23.3392 235.693 23.3294C235.724 23.2145 235.756 23.1002 235.787 22.9855C235.875 22.6621 235.967 22.3382 236.075 22.021C236.091 21.9753 236.116 21.8499 236.141 21.8918C236.187 21.9716 236.198 22.1315 236.213 22.2139C236.305 22.6958 236.375 23.1828 236.396 23.6733C236.403 23.8331 236.419 24.3114 236.431 24.1519C236.503 23.1809 236.538 22.2048 236.627 21.2349C236.637 21.1259 236.66 20.8036 236.681 20.9109C236.772 21.3708 236.809 21.8488 236.861 22.314C236.926 22.8929 236.971 23.4728 237.014 24.0537C237.016 24.0794 237.018 24.1052 237.019 24.131C237.023 24.1734 237.021 24.1607 237.021 24.1064C237.021 23.9129 237.02 23.7194 237.018 23.5259C237.01 22.8042 237.024 22.0876 237.08 21.3677C237.097 21.14 237.113 20.9109 237.143 20.6844C237.157 20.5792 237.173 20.5015 237.192 20.6562C237.279 21.3457 237.324 22.0441 237.387 22.7362C237.414 23.0295 237.434 23.3226 237.445 23.6169C237.448 23.6929 237.436 23.8244 237.46 23.9044C237.479 23.9687 237.463 23.7704 237.463 23.7034C237.463 23.5004 237.465 23.2976 237.471 23.0946C237.485 22.5838 237.504 22.0777 237.458 21.5679C237.392 20.8359 237.508 23.0369 237.525 23.7716C237.529 23.9076 237.533 24.3147 237.545 24.1792C237.555 24.0689 237.545 23.9507 237.538 23.8407C237.523 23.5944 237.525 23.3434 237.496 23.0983C237.487 23.0188 237.463 22.9583 237.463 23.0801C237.467 23.6092 237.616 24.1134 237.718 24.626C237.746 24.7649 237.744 24.9119 237.782 25.0472C237.806 25.1347 237.782 24.963 237.782 24.959C237.76 24.7137 237.756 24.4681 237.75 24.222C237.72 22.9694 237.794 21.7181 237.669 20.4696C237.638 20.1585 237.562 19.8695 237.562 19.5552C237.562 19.2559 237.578 18.9556 237.578 18.6581C237.578 18.5914 237.577 18.5246 237.578 18.4579C237.58 18.3783 237.627 18.303 237.627 18.2232C237.627 18.1847 237.031 18.2122 236.95 18.2122C236.644 18.2122 236.351 18.2174 236.048 18.1722C235.94 18.1562 235.187 18.0244 235.187 18.154C235.187 18.2377 235.185 18.3215 235.187 18.4051C235.189 18.4872 235.218 18.5636 235.22 18.6453C235.224 18.8514 235.207 19.0553 235.191 19.2604C235.169 19.5317 235.186 19.7939 235.207 20.0648C235.223 20.2739 235.269 20.479 235.269 20.6889C235.269 20.8354 235.303 20.9706 235.318 21.1157C235.331 21.244 235.406 20.966 235.41 20.9555C235.494 20.6959 235.557 20.4335 235.614 20.1667C235.725 19.6408 235.843 19.1063 236.005 18.5935C236.026 18.5282 236.031 18.5218 236.056 18.5953C236.113 18.767 236.138 18.9486 236.191 19.1221C236.381 19.7489 236.559 20.3786 236.723 21.0128C236.729 21.0353 236.796 21.365 236.773 21.1875C236.754 21.0452 236.699 20.9042 236.669 20.7635C236.616 20.5149 236.575 20.2617 236.565 20.0074C236.557 19.7871 236.558 19.5637 236.564 19.3432C236.566 19.2685 236.582 19.2246 236.613 19.1594C236.651 19.0775 236.683 18.9982 236.697 18.9092C236.703 18.8774 236.749 18.6554 236.779 18.7454C236.892 19.0831 236.907 19.4525 236.939 19.8045C236.969 20.1241 236.988 20.4441 237.018 20.7635C237.021 20.7983 237.015 20.9056 237.041 20.8109C237.094 20.621 237.11 20.4193 237.14 20.2249C237.214 19.7361 237.272 19.2416 237.402 18.7636C237.46 18.5474 237.541 18.3405 237.611 18.1304" stroke="white" stroke-linecap="round"/>
<path d="M236.17 20.0793C236.17 20.1977 236.163 20.3105 236.139 20.4269C236.074 20.7369 236.033 21.0447 236.006 21.3605C235.967 21.8157 235.919 22.2931 235.973 22.7489" stroke="white" stroke-linecap="round"/>
<path d="M236.792 19.2604C236.718 20.1498 236.479 21.0166 236.337 21.8954C236.253 22.4142 236.209 22.9317 236.153 23.4531" stroke="white" stroke-linecap="round"/>
<path d="M203 39L204.5 41L207 44L209 45.5L212 47.5L215 49L217.5 50L219.5 50.5H222H227.5L231 50L233.5 49L236.5 47.5L239 46L242.5 43L245.5 40" stroke="black"/>
<path d="M202.5 39C217.3 29.8 223.667 25.5 225 24.5L245 40" stroke="black"/>
<path d="M210.038 39.6101C210.015 39.8127 210.525 39.4392 210.586 39.4008C211.299 38.9562 212.029 38.4707 212.818 38.178C213.448 37.9445 214.046 37.6087 214.692 37.4242C215.196 37.2803 215.621 37.018 216.085 36.7835C217.06 36.2903 217.975 35.7374 218.79 35.0037C219.778 34.1145 220.425 32.8921 221.388 31.9803C222.275 31.1404 223.095 30.2656 223.911 29.3588C224.308 28.9179 224.793 28.5358 225.075 28.002C225.107 27.9429 225.109 27.9421 225.13 28.0146C225.193 28.2356 225.265 28.4559 225.364 28.6637C225.601 29.1586 225.948 29.6015 226.265 30.0456C227.071 31.1755 227.989 32.1845 229.077 33.0544C229.724 33.572 230.401 34.0494 231.047 34.5682C232.508 35.7408 233.807 37.1177 235.207 38.3622C235.93 39.0044 236.716 39.5929 237.374 40.3011C237.588 40.5311 237.905 40.7787 238.063 41.0528C238.08 41.0817 237.994 41.05 237.965 41.0339C237.725 40.9028 237.495 40.7557 237.253 40.6277C234.848 39.3552 232.338 38.2686 229.883 37.0997C228.731 36.5511 227.59 35.9773 226.428 35.4497C225.461 35.0109 224.462 34.6429 223.505 34.183C223.03 33.9544 222.583 33.6844 222.157 33.3748C221.817 33.1282 221.431 32.8698 221.154 32.5498C220.75 32.0843 221.162 31.4011 221.459 31.0087C221.747 30.6283 221.928 30.0899 222.475 30.0456C223.031 30.0005 223.462 30.5012 223.827 30.8412C224.388 31.363 225.029 31.742 225.616 32.2232C225.75 32.3337 225.543 32.3862 225.452 32.4158C224.791 32.6312 224.054 32.6385 223.367 32.6587C223.12 32.6659 219.363 32.6269 219.386 32.9078C219.403 33.1048 220.452 33.3185 220.519 33.3371C222.215 33.8034 223.98 34.0458 225.716 34.3044C227.307 34.5413 228.902 34.7184 230.507 34.8195C231.123 34.8583 231.039 34.8443 231.545 34.8697C231.614 34.8732 231.945 34.891 231.549 34.897C228.279 34.9461 225.026 34.8468 221.765 35.2006C221.119 35.2707 220.383 35.3035 219.759 35.5167C219.362 35.6526 220.364 35.8364 220.389 35.8413C221.588 36.0751 222.829 36.1251 224.045 36.193C225.601 36.28 227.161 36.2835 228.717 36.3689C228.818 36.3745 230.065 36.4428 229.045 36.461C225.938 36.5167 222.827 36.4729 219.719 36.4234C219.209 36.4152 217.684 36.3243 218.187 36.415C218.356 36.4456 218.53 36.4462 218.702 36.461C219.575 36.5364 220.448 36.6187 221.321 36.6935C223.109 36.8465 224.9 36.9806 226.692 37.0787C227.798 37.1393 228.207 37.1523 229.311 37.1939C230.069 37.2224 230.862 37.2059 231.616 37.3111C231.66 37.3172 231.772 37.3659 231.73 37.3781C231.628 37.4076 231.203 37.4232 231.177 37.4242C228.944 37.5103 226.702 37.4599 224.468 37.464C223.433 37.4659 221.771 37.4671 220.662 37.4849C220.316 37.4905 219.952 37.4283 219.625 37.5415C219.515 37.5795 219.845 37.6212 219.96 37.6378C220.71 37.746 221.467 37.8239 222.219 37.91C226.098 38.3536 230.012 38.4386 233.886 38.9359C233.955 38.9448 234.16 38.9666 234.091 38.9778C233.878 39.0125 233.659 39.0029 233.442 39.0071C231.266 39.0494 229.1 38.8979 226.933 38.7203C224.679 38.5355 222.431 38.3676 220.17 38.3036C219.171 38.2753 218.515 38.267 217.554 38.2575C217.345 38.2555 217.136 38.2544 216.926 38.2534C216.817 38.2528 216.687 38.188 216.6 38.2534C216.531 38.3047 216.77 38.2705 216.855 38.2785C217.166 38.3077 217.458 38.3334 217.772 38.3497C221.781 38.5576 225.801 38.6881 229.814 38.7768C230.257 38.7866 230.704 38.8354 231.143 38.7768C231.543 38.7236 230.343 38.6833 229.941 38.6512C226.955 38.412 223.968 38.1693 220.976 38.0251C218.916 37.9259 216.842 37.8267 214.78 37.9037C214.62 37.9097 213.994 37.9364 213.742 37.9832C213.32 38.0616 214.597 38.0433 215.025 38.0607C217.05 38.1431 219.07 38.2958 221.093 38.4083C223.879 38.5633 226.67 38.6027 229.458 38.7391C229.966 38.764 231.489 38.8449 230.98 38.8543C230.56 38.862 230.222 38.8486 229.772 38.8333C227.201 38.7463 224.632 38.6143 222.06 38.5339C219.705 38.4603 217.32 38.386 214.981 38.7496C214.865 38.7676 214.526 38.8278 214.642 38.8438C215.107 38.908 215.665 38.8298 216.126 38.8187C217.516 38.7853 218.902 38.7378 220.289 38.6428C220.469 38.6305 222.262 38.4963 222.492 38.4753C222.909 38.437 224.059 38.3602 223.704 38.1361C223.39 37.9381 222.41 37.8785 222.217 37.8618C221.309 37.7833 220.506 37.7634 219.59 37.7843C217.106 37.841 214.639 38.1468 212.165 38.3497C211.747 38.3839 211.323 38.3664 210.904 38.3664C210.601 38.3664 210.278 38.3821 209.983 38.2994C209.768 38.239 209.899 38.0272 209.989 37.9016C210.242 37.5492 210.637 37.3287 211.015 37.1373C211.827 36.7274 212.69 36.4334 213.534 36.1009C215.373 35.3767 217.08 34.4242 218.775 33.4229C219.641 32.9114 220.532 32.4104 221.332 31.796C221.339 31.7906 221.637 31.5754 221.518 31.6076C221.059 31.731 220.609 32.049 220.197 32.2692C217.796 33.5531 215.358 34.7984 213.017 36.1888C212.221 36.6618 211.46 37.2214 210.641 37.6524C210.619 37.6637 210.558 37.6885 210.569 37.6671C210.606 37.5971 210.673 37.5473 210.726 37.4891C211.436 36.7188 212.291 36.0962 213.157 35.5146C215.314 34.0669 217.603 32.8349 219.874 31.5825C220.354 31.3181 220.963 31.0637 221.348 30.6486C221.385 30.6092 221.458 30.4691 221.415 30.502C221.037 30.7965 220.675 31.0903 220.27 31.3521C218.021 32.8061 215.609 34.0021 213.379 35.4853C213.065 35.6941 212.761 35.9203 212.487 36.1805C212.469 36.1982 212.414 36.252 212.433 36.2349C212.557 36.1243 212.679 36.0132 212.806 35.9062C213.857 35.0193 215.164 34.3449 216.327 33.6344C217.606 32.8531 218.876 32.0209 220.23 31.3731C220.433 31.276 220.774 31.1725 220.93 31.0171" stroke="black" stroke-width="3" stroke-linecap="round"/>
<path d="M226.847 28.9066C226.999 28.9325 227.075 28.9795 227.186 29.0951C227.487 29.4085 227.746 29.7704 228.023 30.1043C228.702 30.9194 229.339 31.7627 230.092 32.5122C231.254 33.6679 232.543 34.7106 233.964 35.5314C234.652 35.9288 235.37 36.2777 236.08 36.6328" stroke="black" stroke-width="3" stroke-linecap="round"/>
<path d="M229.41 29.698C229.732 30.1312 230.071 30.5443 230.427 30.9501C231.254 31.8912 232.035 32.8293 232.99 33.649C234.439 34.8934 236.104 35.8268 237.513 37.1227" stroke="black" stroke-width="3" stroke-linecap="round"/>
<path d="M231.106 31.0925C231.995 31.0925 232.762 31.8851 233.262 32.5456C233.414 32.7462 233.625 32.8996 233.8 33.0754C234.035 33.3099 234.24 33.6109 234.516 33.8061C234.826 34.0248 235.111 34.2855 235.402 34.5306C235.55 34.6551 235.703 34.7507 235.856 34.8656C236.027 34.9938 236.261 35.1538 236.399 35.3137C236.683 35.6427 236.996 35.9653 237.303 36.2726C237.489 36.4588 237.689 36.6215 237.89 36.7919C238.135 37.0007 238.342 37.2581 238.597 37.4535C239.048 37.7986 239.445 38.2328 239.83 38.647C240.082 38.9176 240.38 39.1444 240.641 39.405C240.659 39.4235 240.861 39.5735 240.856 39.5411C240.81 39.2371 240.425 38.9437 240.249 38.7098C240.095 38.5045 239.961 38.2763 239.791 38.0838C239.554 37.8158 239.982 38.1726 240.057 38.2324C240.642 38.7044 241.369 39.057 241.903 39.5913C242.091 39.7787 242.189 39.9251 242.429 40.0415C242.533 40.0918 242.683 40.2397 242.789 40.2509C242.87 40.2594 242.937 40.2624 243.015 40.2886" stroke="black" stroke-width="3" stroke-linecap="round"/>
<path d="M242.299 40.6278C241.814 40.6762 241.512 41.2855 241.206 41.5909C240.932 41.8652 240.493 41.8985 240.189 42.1353C240.02 42.2661 239.712 42.3718 239.508 42.4368C239.155 42.5492 238.8 42.6655 238.44 42.753C238.362 42.7719 238.202 42.8344 238.178 42.7195C238.112 42.397 238.279 41.9622 238.386 41.6663C238.508 41.3282 238.671 40.9982 238.851 40.6864C238.88 40.6349 239.02 40.3883 239.02 40.4016" stroke="black" stroke-width="3" stroke-linecap="round"/>
<path d="M240.528 41.3816C240.296 42.0547 239.886 42.6587 239.519 43.2577C239.383 43.4787 239.221 43.5788 239.001 43.6974C238.878 43.764 238.606 43.9098 238.606 43.7183" stroke="black" stroke-width="3" stroke-linecap="round"/>
<path d="M241.168 41.6453C241.009 42.0921 240.635 42.6741 240.189 42.8974C240.004 42.9895 239.705 43.0579 239.5 43.0963C238.448 43.2936 237.448 42.9983 236.403 42.8514C235.275 42.6928 234.219 42.2827 233.143 41.9238C231.376 41.3349 229.603 41.0677 227.751 41.013C227.446 41.004 226.528 41.0046 226.834 41.0046C227.617 41.0046 228.401 41.0484 229.183 41.0339C230.054 41.0179 230.929 40.986 231.799 40.9313C232.253 40.9028 231.757 40.849 231.675 40.8455C229.463 40.7503 227.26 40.5228 225.05 40.3911C223.883 40.3216 222.706 40.2987 221.537 40.3283C221.474 40.3299 221.382 40.3317 221.315 40.3451C221.248 40.3585 221.333 40.3641 221.348 40.366C221.94 40.44 222.538 40.4779 223.132 40.5314C224.063 40.6153 226.86 40.7744 225.925 40.7785C222.975 40.7914 220.037 40.4278 217.096 40.2404C216.465 40.2002 216.283 40.1914 215.735 40.1797C215.593 40.1766 215.446 40.1472 215.308 40.1818C215.237 40.1993 215.445 40.23 215.515 40.2467C215.809 40.316 216.045 40.3685 216.35 40.4309C219.474 41.0691 222.674 41.2416 225.833 41.6328C226.252 41.6846 226.671 41.7326 227.09 41.7877C227.22 41.8049 227.358 41.8035 227.479 41.8547C227.529 41.876 227.37 41.8709 227.316 41.8715C226.873 41.8763 226.431 41.8774 225.988 41.8798C224.208 41.8898 222.429 41.887 220.649 41.8421C219.783 41.8203 218.907 41.8245 218.042 41.7605C216.454 41.6429 221.224 41.9098 222.816 41.9406C224.161 41.9666 225.506 41.9701 226.851 41.9845C227.357 41.9899 227.6 41.9917 228.08 42.0034C228.195 42.0062 228.31 42.0105 228.425 42.0138C228.491 42.0158 228.666 42.0624 228.622 42.0138C228.51 41.8902 227.882 41.8296 227.755 41.8003C226.976 41.6199 226.201 41.5073 225.402 41.4569C224.379 41.3923 223.353 41.3724 222.328 41.3354C221.134 41.2923 219.943 41.1987 218.75 41.1386C217.6 41.0807 216.448 41.0773 215.297 41.0444C214.71 41.0276 215.424 41.0078 215.492 41.0067C216.953 40.9835 218.426 40.969 219.883 41.08C220.193 41.1036 220.502 41.1354 220.812 41.1554C221.227 41.1821 219.983 41.1013 219.571 41.0465C217.345 40.7503 215.182 40.2214 213.015 39.6478" stroke="black" stroke-width="3" stroke-linecap="round"/>
<path d="M215.239 43.7182C213.889 43.0983 212.746 42.0723 211.696 41.0402C211.435 40.7836 211.174 40.5257 210.919 40.2634C210.813 40.1547 210.697 40.0523 210.641 39.9116" stroke="black" stroke-width="3" stroke-linecap="round"/>
<path d="M211.922 42.6629C211.154 42.1716 210.392 41.5552 209.753 40.9041C209.618 40.767 209.472 40.6035 209.472 40.4016" stroke="black" stroke-width="3" stroke-linecap="round"/>
<path d="M214.523 45.3388C213.286 45.104 212.037 44.5672 210.948 43.9465C210.539 43.7127 210.127 43.4608 209.749 43.178C209.215 42.7793 208.847 42.2584 208.417 41.7584" stroke="black" stroke-width="3" stroke-linecap="round"/>
<path d="M211.281 44.9997C209.745 44.1358 208.235 43.1123 207.161 41.6936C206.945 41.4081 206.717 41.1081 206.57 40.7786" stroke="black" stroke-width="3" stroke-linecap="round"/>
<path d="M206.57 40.8162C206.348 40.8162 206.189 40.6571 206.005 40.5545C205.846 40.466 205.674 40.4105 205.571 40.2509C205.485 40.1161 205.399 40.0104 205.335 39.874C205.265 39.7272 205.237 39.5843 205.157 39.4406C205.086 39.3126 204.935 39.3922 204.874 39.271" stroke="black" stroke-width="3" stroke-linecap="round"/>
<path d="M206.796 39.8739C206.814 39.3488 207.24 39.0346 207.697 38.8605C208.18 38.6766 208.699 38.608 209.204 38.5172C209.704 38.4273 210.187 38.2976 210.67 38.1403C211.485 37.8747 212.304 37.4686 212.982 36.9384C213.003 36.9219 213.328 36.5919 213.312 36.5908C213.236 36.5854 213.097 36.6655 213.03 36.6872C212.9 36.729 212.77 36.7521 212.638 36.7835" stroke="black" stroke-width="3" stroke-linecap="round"/>
<path d="M205.628 38.5926C205.954 38.5926 206.279 38.5917 206.602 38.5339C206.762 38.5052 207.014 38.4762 207.148 38.3685C207.253 38.2846 207.356 38.3094 207.475 38.2617C207.519 38.2439 207.608 38.2115 207.623 38.157C207.67 37.9941 207.97 37.8501 208.099 37.7508C208.618 37.3512 209.217 37.042 209.82 36.7835C210.147 36.6433 210.436 36.3583 210.636 36.0716C210.823 35.8044 211.113 35.7168 211.365 35.5398C211.626 35.3561 211.882 35.164 212.148 34.9912C212.468 34.784 212.857 34.6701 213.166 34.4384C213.505 34.1836 213.855 33.992 214.217 33.7642C214.372 33.6667 214.495 33.5246 214.638 33.4292C214.808 33.316 214.978 33.2361 215.159 33.1361C215.559 32.915 215.982 32.6587 216.34 32.3739C216.625 32.1471 216.973 31.9697 217.236 31.7332C217.536 31.4631 217.931 31.3296 218.27 31.1134C218.785 30.7861 219.324 30.5687 219.883 30.3304C220.266 30.1669 220.629 29.9534 221.005 29.7734C221.26 29.6514 221.513 29.5567 221.757 29.4195C221.855 29.3641 221.952 29.3195 222.06 29.2834" stroke="black" stroke-width="3" stroke-linecap="round"/>
<path d="M219.422 30.2634C219.457 30.0516 219.578 29.8935 219.753 29.7818C220.025 29.6083 220.303 29.4188 220.59 29.2751C220.761 29.1899 220.963 29.0764 221.147 29.028C221.4 28.9619 221.675 28.7842 221.889 28.6344C222.028 28.5365 222.205 28.504 222.341 28.4083C222.563 28.2522 222.8 28.1069 223.015 27.9434C223.436 27.6231 223.883 27.3873 224.372 27.1897C224.529 27.1261 224.705 27.0609 224.849 26.9761C225.053 26.8561 224.925 26.8224 224.925 26.6453" stroke="black" stroke-width="3" stroke-linecap="round"/>
<path d="M225.905 26.6075C225.764 27.0803 226.048 27.539 226.321 27.9078C226.627 28.3206 227.087 28.594 227.508 28.8689C228.089 29.2475 228.529 29.8349 229.014 30.3199C229.182 30.4881 229.354 30.6757 229.485 30.8747C229.668 31.1529 229.76 31.4748 229.975 31.7332" stroke="black" stroke-width="3" stroke-linecap="round"/>
<path d="M229.937 41.5322C227.814 41.6931 229.883 44.3224 229.9 45.3848C229.9 45.4381 229.893 45.8478 229.902 45.6968C229.943 44.9863 230.259 44.2436 230.486 43.5758C230.562 43.35 230.639 43.1227 230.704 42.8932C230.742 42.7558 230.752 42.7129 230.806 42.8869C230.983 43.4504 231.123 44.0438 231.248 44.6206C231.291 44.821 231.323 45.4347 231.332 45.2299C231.359 44.5954 231.789 44.1803 232.383 43.9611C232.965 43.7462 233.62 43.7082 234.234 43.691C234.566 43.6816 235.132 43.6155 235.457 43.7559C235.683 43.854 235.083 44.0945 234.853 44.1872C234.195 44.4535 233.451 44.5663 232.747 44.6311C232.486 44.6551 232.211 44.6782 231.951 44.6206C231.608 44.5442 232.413 44.5473 232.416 44.5473C233.674 44.5389 234.931 44.4705 236.162 44.1956C236.262 44.1733 236.993 43.9533 236.968 44.1788C236.93 44.5337 236.831 44.8997 236.533 45.1127" stroke="black" stroke-width="3" stroke-linecap="round"/>
<path d="M238.681 44.3966C238.578 44.5078 238.492 44.6848 238.371 44.7735C238.255 44.8581 238.112 44.9056 238.005 44.9996C237.92 45.0734 237.85 45.1823 237.756 45.2425C237.662 45.3021 237.474 45.3419 237.362 45.3765C237.055 45.4711 236.756 45.5844 236.434 45.6403C236.207 45.6799 235.99 45.774 235.758 45.789C235.478 45.8071 235.193 45.7911 234.912 45.7911" stroke="black" stroke-width="3" stroke-linecap="round"/>
<path d="M236.005 45.0751C235.798 45.1211 235.519 45.3288 235.346 45.452C235.017 45.6853 234.665 45.8961 234.326 46.1136C233.884 46.3969 233.354 46.5069 232.843 46.6203C232.737 46.6439 232.602 46.7252 232.508 46.7794C232.338 46.8782 232.155 46.9424 231.981 47.0349C231.816 47.1225 231.292 47.2876 231.478 47.282C231.696 47.2754 231.928 47.1287 232.085 46.9972" stroke="black" stroke-width="3" stroke-linecap="round"/>
<path d="M235.289 45.8665C235.074 45.9619 234.907 46.0897 234.77 46.281C234.663 46.43 234.63 46.5091 234.46 46.5909C234.332 46.6525 234.205 46.7015 234.083 46.7626C233.662 46.9732 233.238 47.0301 232.783 47.129C232.479 47.1951 232.186 47.2779 231.878 47.3007C231.636 47.3187 231.366 47.3793 231.143 47.4661C231.008 47.5188 230.889 47.5713 230.745 47.619C230.697 47.635 230.2 47.7886 230.389 47.7886" stroke="black" stroke-width="3" stroke-linecap="round"/>
<path d="M232.312 47.1479C232.034 47.185 231.858 47.2889 231.637 47.4306C231.53 47.4993 231.478 47.6494 231.351 47.6777C231.23 47.7045 231.168 47.8655 231.08 47.8975C231.069 47.9018 230.732 47.9347 230.808 48.0294C230.829 48.055 231.252 47.8933 231.294 47.8829C231.516 47.8274 231.752 47.765 231.926 47.6086C232.053 47.4948 232.199 47.4239 232.349 47.3448C232.434 47.3004 232.513 47.2294 232.605 47.194C232.715 47.1518 232.775 47.0311 232.877 46.9972" stroke="black" stroke-width="3" stroke-linecap="round"/>
<path d="M230.804 48.5046C231.018 48.5046 230.698 48.6697 230.651 48.6931C230.529 48.7542 230.239 48.7647 230.096 48.7224C229.882 48.659 229.487 48.5022 229.334 48.7308" stroke="black" stroke-width="3" stroke-linecap="round"/>
<path d="M227.856 49.953C227.866 49.9065 227.85 49.8566 227.842 49.8111C227.828 49.7371 227.822 49.6637 227.819 49.5886C227.814 49.4973 227.8 49.4105 227.782 49.3212C227.774 49.2825 227.782 49.2425 227.776 49.2035C227.775 49.1967 227.764 49.1284 227.758 49.1379C227.725 49.1956 227.715 49.2723 227.696 49.3355C227.66 49.4526 227.638 49.5755 227.638 49.6977C227.638 49.7379 227.683 49.8722 227.607 49.8696C227.592 49.869 227.503 49.8683 227.503 49.8471C227.503 49.7903 227.506 49.7252 227.525 49.671C227.543 49.6206 227.534 49.562 227.549 49.5116C227.564 49.4614 227.551 49.3993 227.534 49.3511C227.511 49.2879 227.516 49.2051 227.516 49.1376C227.516 49.083 227.529 49.0317 227.529 48.9768C227.529 48.9149 227.522 48.8532 227.522 48.7914C227.522 48.7529 227.525 48.7136 227.517 48.6759C227.51 48.6399 227.517 48.5996 227.513 48.5628C227.508 48.521 227.508 48.4799 227.514 48.4384C227.533 48.3073 227.518 48.1716 227.535 48.0405C227.541 47.9955 227.542 47.9512 227.541 47.9057C227.541 47.8723 227.529 47.8391 227.529 47.8059C227.529 47.6721 227.529 47.5394 227.529 47.4052" stroke="black" stroke-linecap="round"/>
<path d="M228.728 49.3676C228.667 48.9372 228.568 48.5097 228.507 48.0779C228.417 47.4456 228.359 46.8111 228.279 46.1779C228.227 45.7652 228.16 45.3559 228.187 44.938C228.21 44.5812 228.256 44.226 228.256 43.8679C228.256 43.7929 228.256 43.7178 228.256 43.6428C228.256 43.4795 228.352 43.9552 228.409 44.1081C228.755 45.0299 229.079 45.9743 229.239 46.9484C229.28 47.2006 229.318 47.46 229.325 47.7161C229.325 47.7404 229.254 47.4798 229.242 47.4483C229.099 47.0774 228.93 46.7172 228.786 46.3464C228.543 45.7196 228.324 45.0863 228.103 44.452C228.063 44.3394 228.025 44.2264 227.983 44.115C227.968 44.0779 227.903 43.8871 227.919 44.046C227.944 44.2912 227.995 44.5374 228.034 44.7806C228.138 45.4408 228.19 46.102 228.202 46.7703C228.21 47.1811 228.184 47.5909 228.156 48.0006C228.154 48.031 228.119 48.0256 228.101 48.0475C228.02 48.1461 227.883 48.3933 227.781 48.2408C227.442 47.732 227.391 47.0513 227.328 46.4679C227.229 45.5617 227.28 44.6623 227.287 43.7533C227.287 43.6543 227.287 43.5554 227.287 43.4564C227.287 43.2038 227.383 43.9523 227.436 44.1993C227.541 44.6953 227.69 45.1825 227.764 45.685C227.829 46.1205 227.833 46.5602 227.833 46.9995C227.833 47.101 227.839 47.2931 227.828 47.0589C227.804 46.5566 227.794 46.0539 227.789 45.5511C227.783 44.8988 227.831 44.2525 227.853 43.6014C227.855 43.5318 227.923 43.0229 227.803 43.0021C227.741 42.9913 227.573 43.0246 227.532 43.0325C227.194 43.0983 226.859 43.1804 226.519 43.241C225.199 43.4763 223.857 43.5325 222.519 43.56C221.485 43.5812 220.452 43.5765 219.419 43.5268C219.398 43.5258 218.276 43.4688 218.276 43.4771C218.276 43.5922 222.967 43.5743 223.183 43.5724C224.615 43.5599 226.045 43.4944 227.477 43.4785C227.532 43.4779 227.588 43.4771 227.643 43.4771C227.698 43.4771 227.636 43.482 227.624 43.4826C227.022 43.5149 226.418 43.5242 225.816 43.5434C224.265 43.5928 222.715 43.6545 221.167 43.7698C220.867 43.7922 220.563 43.8112 220.264 43.8486C220.224 43.8535 220.124 43.8586 220.151 43.8886C220.219 43.9655 220.355 43.9092 220.457 43.9148C220.837 43.9356 221.217 43.9556 221.598 43.9687C223.014 44.0175 224.431 44.0407 225.848 44.0681C226.425 44.0793 228.157 44.0985 227.579 44.0985C226.875 44.0985 226.171 44.0969 225.467 44.0999C224.597 44.1035 223.73 44.1175 222.864 44.2076C222.412 44.2546 223.043 44.2797 223.136 44.2835C224.347 44.3328 225.582 44.2854 226.79 44.1786C226.797 44.1779 226.899 44.173 226.805 44.173C226.642 44.173 226.48 44.1751 226.317 44.1786C225.414 44.1981 224.512 44.2172 223.608 44.2283C223.127 44.2342 222.641 44.2655 222.16 44.2462C221.831 44.2331 222.818 44.2216 223.147 44.2241C224.66 44.2355 226.177 44.33 227.687 44.4188C228.71 44.479 225.638 44.3344 224.613 44.3525C224.316 44.3578 224.021 44.3749 223.727 44.4202C223.706 44.4234 223.49 44.4431 223.448 44.4713C223.408 44.4981 223.545 44.4713 223.593 44.4713C223.916 44.4713 224.238 44.4718 224.561 44.4713C225.278 44.4703 225.994 44.4556 226.711 44.4478C226.829 44.4465 227.184 44.4464 227.066 44.4464C226.946 44.4464 226.825 44.4464 226.705 44.4464C225.568 44.4464 224.435 44.4609 223.299 44.492C222.485 44.5143 224.926 44.4464 225.74 44.4464C226.105 44.4464 226.469 44.4464 226.834 44.4464C226.935 44.4464 226.756 44.4812 226.745 44.4837C226.407 44.5655 226.013 44.5187 225.674 44.5155C225.084 44.5099 224.468 44.4537 223.879 44.5072C223.628 44.53 224.374 44.6101 224.624 44.637C225.279 44.7072 225.941 44.7182 226.599 44.7198C226.828 44.7204 227.06 44.7294 227.289 44.7184C227.383 44.714 227.102 44.7012 227.008 44.695C226.622 44.6693 226.235 44.6719 225.849 44.6549C225.285 44.6302 224.723 44.5768 224.159 44.5597C223.443 44.5379 222.705 44.5109 221.988 44.55C221.167 44.5948 220.339 44.6701 219.515 44.6701C217.823 44.6701 222.898 44.5602 224.589 44.4961C225.577 44.4587 226.567 44.446 227.556 44.4092C227.895 44.3965 227.533 44.3968 227.519 44.3967C227.027 44.3941 226.535 44.3903 226.044 44.3829C224.826 44.3646 223.614 44.3057 222.399 44.2338C221.328 44.1704 220.257 44.1652 219.187 44.1123C219.034 44.1047 218.851 44.1024 218.704 44.0488C218.567 43.9991 218.977 43.9459 219.121 43.9217C219.763 43.8132 220.418 43.7483 221.068 43.6925C221.123 43.6878 221.289 43.6764 221.233 43.676C220.953 43.6738 220.673 43.6763 220.392 43.669C219.076 43.6349 217.752 43.5663 216.445 43.4053C216.251 43.3814 216.058 43.3518 215.865 43.3211C215.712 43.2967 215.281 43.2393 215.423 43.1761C215.555 43.117 215.704 43.1038 215.845 43.0739C216.18 43.0036 216.958 42.8746 217.301 42.7646C217.375 42.7408 217.523 42.7161 217.5 42.6417C217.472 42.5547 217.327 42.5777 217.237 42.563C217.061 42.5343 216.881 42.527 216.703 42.5119C216.155 42.4656 215.605 42.4364 215.056 42.4194C214.878 42.414 214.435 42.34 214.251 42.4208C214.238 42.4264 214.256 42.452 214.268 42.4581C214.364 42.5054 214.869 42.6633 214.893 42.6707C215.982 43.0196 217.068 43.3775 218.14 43.7754C218.444 43.8882 219.758 44.1956 219.35 44.7751C219.108 45.1174 218.65 45.4079 218.264 45.5649C217.927 45.7024 217.994 45.3176 218.008 45.0954C218.038 44.6104 218.083 44.1291 218.091 43.6428C218.094 43.4134 218.101 43.1855 218.118 42.9566C218.125 42.8713 218.131 42.786 218.14 42.7011C218.148 42.6279 218.124 42.4534 218.19 42.4857C218.276 42.5276 218.247 42.6684 218.267 42.7619C218.333 43.0696 218.392 43.3718 218.407 43.687C218.449 44.5722 218.447 45.4662 218.436 46.3519C218.433 46.5463 218.432 46.7411 218.414 46.9346C218.387 47.2159 218.333 47.0175 218.291 46.896C217.998 46.0447 217.867 45.1282 217.662 44.2531C217.486 43.4986 217.217 42.7369 217.121 41.9665C217.114 41.9083 217.11 42.0833 217.106 42.1419C217.081 42.5519 217.06 42.9621 217.036 43.3722C216.985 44.2392 216.943 45.106 216.903 45.9736C216.902 45.9967 216.898 46.0657 216.898 46.0426C216.894 45.8676 216.89 45.6929 216.884 45.5179C216.872 45.2086 216.86 44.8991 216.842 44.59C216.836 44.4869 216.83 44.3838 216.823 44.2807C216.813 44.1232 216.74 43.9462 216.815 43.8071C216.827 43.7848 216.871 43.8171 216.884 43.8389C216.971 43.9851 217.151 44.5049 217.19 44.6204C217.339 45.056 217.467 45.4976 217.582 45.9432C217.646 46.1889 217.72 46.4427 217.743 46.6971C217.743 46.7018 217.777 47.0624 217.703 47.0368C217.601 47.0021 217.579 46.8595 217.537 46.7606C217.385 46.4019 217.297 46.024 217.24 45.6394C217.153 45.0517 217.072 44.3079 217.254 43.7284C217.342 43.4476 217.495 43.53 217.656 43.6994C217.977 44.0379 218.219 44.4645 218.444 44.869C218.65 45.2402 218.866 45.6341 218.98 46.0468C219.116 46.543 219.202 47.0723 219.256 47.5836C219.291 47.922 219.195 47.5734 219.179 47.5118C219.075 47.133 218.966 46.7428 219.021 46.3464C219.051 46.1331 219.098 45.9222 219.154 45.714C219.251 45.3492 219.545 44.3997 219.736 44.0543C220.143 43.3216 220.4 44.1396 220.501 44.5141C220.771 45.5071 220.862 46.5662 220.874 47.5919C220.877 47.8043 220.866 48.0173 220.842 48.2284C220.841 48.2401 220.837 48.5558 220.692 48.5294C220.552 48.5039 220.497 48.1057 220.482 48.031C220.39 47.5687 220.362 47.0938 220.349 46.6239C220.328 45.8232 220.359 45.0139 220.471 44.22C220.482 44.1414 220.495 44.0631 220.511 43.9852C220.523 43.9255 220.519 43.8017 220.579 43.8154C220.66 43.8342 220.714 44.2172 220.72 44.2448C220.936 45.3655 221.013 46.5232 221.073 47.6609C221.091 48.009 221.113 48.3589 221.119 48.7076C221.12 48.7782 221.12 48.9127 221.076 48.7545C220.9 48.1197 220.83 47.4546 220.715 46.8076C220.546 45.8525 220.323 44.9034 220.003 43.9866C219.978 43.9145 219.964 43.7476 219.897 43.7837C219.821 43.8241 219.832 44.351 219.832 44.3512C219.796 45.1402 219.768 45.9409 219.808 46.7303C219.87 47.9566 219.779 46.0179 219.84 47.2812C219.844 47.359 219.845 47.4368 219.85 47.5146C219.857 47.6399 219.863 47.5643 219.872 47.4787C219.938 46.8513 219.97 46.2268 220.093 45.6063C220.15 45.3153 220.334 44.4448 220.267 44.7336C220.159 45.1961 220.134 45.7182 220.082 46.1835C220.028 46.6647 219.98 47.1462 219.93 47.6278" stroke="black" stroke-linecap="round"/>
<path d="M221.172 44.7198C221.44 45.1969 221.421 45.7023 221.421 46.2346C221.421 46.7444 221.414 47.2462 221.471 47.7521" stroke="black" stroke-linecap="round"/>
<path d="M221.67 44.5707C221.761 45.1332 221.778 45.6888 221.763 46.258C221.751 46.7274 221.678 47.1859 221.65 47.6526C221.616 48.2257 221.538 48.824 221.645 49.3924" stroke="black" stroke-linecap="round"/>
<path d="M215.63 43.1766C215.605 44.2757 215.545 45.3891 215.666 46.485C215.719 46.9581 215.803 47.4639 216.03 47.8896C216.156 48.1252 216.323 48.3391 216.461 48.5673C216.54 48.697 216.739 48.9401 216.467 48.8815C215.527 48.6782 214.915 48.2746 214.203 47.6185C213.712 47.1661 213.234 46.7038 212.826 46.1738C212.678 45.9807 212.52 45.7795 212.315 45.6409C212.188 45.5549 212.013 45.7265 211.902 45.7703C211.63 45.8783 211.236 45.8723 210.95 45.8104C210.649 45.7448 211.423 46.6213 211.496 46.6944C212.318 47.5227 213.2 48.0312 214.363 48.213C214.735 48.2711 215.215 48.3768 215.593 48.3209C215.667 48.3099 215.486 48.2136 215.423 48.173C214.863 47.8125 214.965 47.8868 214.299 47.4491C213.587 46.9817 212.856 46.5172 212.226 45.9397C212.036 45.7656 211.534 45.193 211.754 45.3267C211.971 45.4581 212.17 45.7284 212.352 45.8997C212.927 46.4392 213.53 46.9366 214.142 47.4337C214.484 47.7121 214.813 48.0105 215.161 48.2808C215.438 48.4952 215.119 48.3105 215.013 48.2469C213.953 47.606 212.899 46.9431 211.847 46.2878C211.665 46.1743 211.108 45.8599 211.311 45.9305C211.671 46.0557 212.033 46.3997 212.33 46.6205C212.654 46.8607 212.988 47.1069 213.258 47.4091C213.267 47.4197 213.531 47.7886 213.43 47.7849C213.294 47.7798 213.066 47.5082 212.974 47.4337C212.651 47.1722 212.363 46.9088 212.121 46.5681C211.569 45.7925 213.316 46.214 213.606 46.2755C215.066 46.585 216.784 47.208 217.736 48.4379C217.766 48.4754 217.984 48.784 217.878 48.863C217.785 48.9326 217.487 48.5303 217.465 48.5057C216.497 47.4241 215.48 46.3788 214.672 45.1666C214.597 45.055 214.393 44.7169 214.428 44.8462C214.523 45.1902 214.782 45.5185 214.989 45.798C215.381 46.3275 215.838 46.7989 216.273 47.292C216.576 47.6347 216.935 48.0153 217.046 48.4749C217.215 49.1721 216.766 48.3134 216.64 48.1268C216.214 47.4987 215.846 46.7346 215.556 46.0352C215.311 45.4462 215.268 46.4416 215.266 46.6451C215.26 47.1233 215.273 47.646 215.432 48.1021C215.482 48.2446 215.399 48.1082 215.374 48.059C215.228 47.7757 215.144 47.4616 215.02 47.1688C214.943 46.989 214.867 46.8003 214.755 46.639C214.639 46.4727 214.989 46.9703 215.115 47.1288C215.361 47.4378 215.605 47.7477 215.805 48.0898C215.834 48.1391 216.038 48.4357 215.996 48.5118C215.932 48.6286 215.558 48.3043 215.537 48.287C215.157 47.9693 214.81 47.6049 214.613 47.1442C214.511 46.907 214.327 46.4769 214.416 46.2077C214.523 45.8824 215.158 45.9699 215.389 45.989C215.808 46.0236 216.214 46.1197 216.612 46.2539C216.788 46.3134 217.142 46.3984 217.225 46.602C217.294 46.7707 216.567 46.5449 216.517 46.5096C215.872 46.0611 215.816 45.0745 215.879 44.3687C215.885 44.3003 215.899 44.0982 215.913 44.1654C215.965 44.4151 216.081 44.667 216.175 44.9016C216.392 45.4478 216.669 45.9548 216.939 46.4757C217.084 46.7565 217.281 47.1135 217.311 47.4399C217.322 47.5542 217.086 47.3653 217.003 47.2859C216.722 47.0161 216.523 46.6639 216.363 46.3125C216.139 45.8229 215.754 44.2608 216.002 44.7384C216.177 45.0735 216.29 45.4403 216.458 45.7795C216.815 46.498 217.263 47.1637 217.681 47.8465C217.872 48.1586 218.059 48.4733 218.254 48.7829C218.424 49.0533 218.187 48.589 218.174 48.5673C217.87 48.0491 216.721 46.6605 217.136 47.0949C217.933 47.9299 218.868 48.6638 219.856 49.2573C220.068 49.3846 220.282 49.5174 220.496 49.6393C220.619 49.7086 220.359 49.3925 220.272 49.2819C219.769 48.6428 219.454 47.8963 218.969 47.2489C218.941 47.2121 218.462 46.6158 218.371 46.7067C218.132 46.9462 219.057 48.4231 219.172 48.6535C219.296 48.9025 219.468 49.1708 219.523 49.4483C219.582 49.7433 219.035 49.195 219.012 49.171C218.687 48.8396 218.423 48.4517 218.174 48.0621C218.055 47.8756 217.837 47.6056 217.801 47.3752C217.781 47.2452 218.387 47.8877 218.411 47.9142C218.832 48.3755 219.39 48.7163 219.917 49.0417C220.252 49.2481 220.44 49.2758 220.841 49.2758C220.93 49.2758 221.144 49.2366 221.171 49.3589C221.187 49.4326 221.181 49.6696 221.285 49.6208C221.397 49.568 221.483 49.5377 221.612 49.5561C221.666 49.5639 221.864 49.7248 221.747 49.7625C221.446 49.8593 221.057 49.6592 220.798 49.5407C220.337 49.3292 219.804 49.0064 219.289 48.9493C218.899 48.906 218.537 49.054 218.149 49.054C218.031 49.054 217.708 48.9937 217.604 49.0632C217.411 49.1918 218.185 49.4767 218.236 49.4976C218.693 49.6855 219.162 49.9541 219.622 50.1075" stroke="black" stroke-linecap="round"/>
<path d="M216.428 48.8211C216.867 48.774 217.299 49.0953 217.675 49.2897C217.869 49.39 218.021 49.4758 218.021 49.7003" stroke="black" stroke-linecap="round"/>
<line x1="226.5" y1="51" x2="226.5" y2="45" stroke="white"/>
<line x1="221.5" y1="51" x2="221.5" y2="45" stroke="white"/>
<line x1="221" y1="44.5" x2="227" y2="44.5" stroke="white"/>
<path d="M225.797 46.1009C225.797 45.9118 225.801 45.7206 225.768 45.5362C225.73 45.3306 225.702 45.2938 225.482 45.3103C224.923 45.3521 224.352 45.2508 223.8 45.3316C223.577 45.3644 223.349 45.4029 223.123 45.4125C223.024 45.4167 222.924 45.4038 222.828 45.4278C222.689 45.4627 222.648 45.4509 222.604 45.585C222.557 45.7237 222.582 45.8966 222.582 46.0414C222.582 46.2426 222.466 45.795 222.451 45.7285C222.429 45.6344 222.392 45.5483 222.335 45.469C222.313 45.4389 222.303 45.3681 222.286 45.4415C222.261 45.5487 222.275 45.6912 222.286 45.7987C222.322 46.1415 222.362 46.4687 222.362 46.8153C222.362 47.1029 222.283 47.3542 222.246 47.6334C222.22 47.836 222.238 47.9802 222.292 48.1738C222.327 48.2971 222.338 48.3303 222.329 48.1494C222.302 47.6131 222.284 47.0769 222.259 46.5405C222.248 46.3116 222.243 46.0812 222.184 45.8583C222.156 45.7534 222.143 45.6785 222.143 45.5682C222.143 45.3606 222.09 45.2291 222.033 45.0294" stroke="white" stroke-linecap="round"/>
<path d="M222.033 48.3539C221.945 48.5071 222.038 48.6871 222.057 48.8408C222.079 49.0203 222.088 49.2221 222.088 49.404C222.088 49.5461 222.09 49.6745 222.115 49.8131C222.13 49.8947 222.17 49.9822 222.17 50.0634C222.17 50.3298 222.727 50.0531 222.842 50.0238C223.273 49.913 223.763 50.1063 224.188 49.9749C224.503 49.8775 224.838 49.7782 225.171 49.8162C225.384 49.8404 225.593 49.8782 225.807 49.894C225.938 49.9037 226.086 49.8901 225.968 50.0085C225.841 50.1356 225.951 50.3909 225.763 50.4359C225.49 50.5011 225.326 50.5133 225.076 50.4145C224.981 50.3767 224.866 50.3716 224.765 50.358C224.606 50.3368 224.453 50.2797 224.292 50.2771C224.005 50.2727 223.699 50.3348 223.419 50.3992C223.052 50.4834 222.692 50.4594 222.32 50.4695C222.284 50.4704 222.104 50.5291 222.162 50.5229C222.378 50.5002 222.587 50.4439 222.802 50.4206C223.424 50.3534 224.03 50.2094 224.649 50.3535C224.711 50.3678 224.753 50.4074 224.812 50.4252C224.913 50.4554 225.02 50.4516 225.122 50.4832C225.246 50.5217 225.366 50.5281 225.495 50.5244C225.638 50.5203 225.789 50.4695 225.934 50.4695" stroke="white" stroke-linecap="round"/>
<path d="M226.099 50.7443C225.79 50.7443 225.487 50.6804 225.192 50.7855C225.098 50.8193 224.938 50.8107 224.841 50.7932C224.679 50.7637 224.516 50.7718 224.351 50.7718C223.935 50.7718 223.519 50.7993 223.104 50.7993C222.948 50.7993 222.703 50.8434 222.567 50.7565C222.481 50.7018 222.295 50.6777 222.472 50.6069" stroke="white" stroke-linecap="round"/>
<path d="M224.588 51.1014C224.552 51.1014 224.547 51.103 224.533 51.074" stroke="white" stroke-linecap="round"/>
<path d="M224.67 51.3213C224.817 51.2678 225.025 51.2014 225.11 51.074" stroke="white" stroke-linecap="round"/>
<path d="M136.855 104.182V74.1818H141.003V77.7188H141.358C141.604 77.2642 141.959 76.7386 142.423 76.142C142.887 75.5455 143.531 75.0246 144.355 74.5795C145.179 74.125 146.268 73.8977 147.622 73.8977C149.384 73.8977 150.955 74.3428 152.338 75.233C153.721 76.1231 154.805 77.4062 155.591 79.0824C156.386 80.7585 156.784 82.7756 156.784 85.1335C156.784 87.4915 156.391 89.5133 155.605 91.1989C154.819 92.875 153.74 94.1676 152.366 95.0767C150.993 95.9763 149.426 96.4261 147.665 96.4261C146.339 96.4261 145.255 96.2036 144.412 95.7585C143.579 95.3134 142.925 94.7926 142.452 94.196C141.978 93.5994 141.614 93.0691 141.358 92.6051H141.102V104.182H136.855ZM141.017 85.0909C141.017 86.625 141.24 87.9697 141.685 89.125C142.13 90.2803 142.774 91.1847 143.616 91.8381C144.459 92.482 145.491 92.804 146.713 92.804C147.982 92.804 149.043 92.4678 149.895 91.7955C150.747 91.1136 151.391 90.1903 151.827 89.0256C152.272 87.8608 152.494 86.5492 152.494 85.0909C152.494 83.6515 152.277 82.3589 151.841 81.2131C151.415 80.0672 150.771 79.1629 149.909 78.5C149.057 77.8371 147.991 77.5057 146.713 77.5057C145.482 77.5057 144.44 77.8229 143.588 78.4574C142.745 79.0919 142.106 79.9773 141.67 81.1136C141.235 82.25 141.017 83.5758 141.017 85.0909ZM170.733 96.4403C168.688 96.4403 166.902 95.9716 165.378 95.0341C163.853 94.0966 162.67 92.785 161.827 91.0994C160.984 89.4138 160.562 87.4441 160.562 85.1903C160.562 82.9271 160.984 80.9479 161.827 79.2528C162.67 77.5578 163.853 76.2415 165.378 75.304C166.902 74.3665 168.688 73.8977 170.733 73.8977C172.778 73.8977 174.563 74.3665 176.088 75.304C177.613 76.2415 178.796 77.5578 179.639 79.2528C180.482 80.9479 180.903 82.9271 180.903 85.1903C180.903 87.4441 180.482 89.4138 179.639 91.0994C178.796 92.785 177.613 94.0966 176.088 95.0341C174.563 95.9716 172.778 96.4403 170.733 96.4403ZM170.747 92.875C172.073 92.875 173.171 92.5246 174.043 91.8239C174.914 91.1231 175.558 90.1903 175.974 89.0256C176.401 87.8608 176.614 86.5777 176.614 85.1761C176.614 83.7841 176.401 82.5057 175.974 81.3409C175.558 80.1667 174.914 79.2244 174.043 78.5142C173.171 77.804 172.073 77.4489 170.747 77.4489C169.412 77.4489 168.304 77.804 167.423 78.5142C166.552 79.2244 165.903 80.1667 165.477 81.3409C165.061 82.5057 164.852 83.7841 164.852 85.1761C164.852 86.5777 165.061 87.8608 165.477 89.0256C165.903 90.1903 166.552 91.1231 167.423 91.8239C168.304 92.5246 169.412 92.875 170.747 92.875ZM199.465 86.9517V74.1818H203.727V96H199.55V92.2216H199.323C198.821 93.3864 198.016 94.357 196.908 95.1335C195.81 95.9006 194.442 96.2841 192.803 96.2841C191.402 96.2841 190.161 95.9763 189.082 95.3608C188.012 94.7358 187.169 93.8125 186.553 92.5909C185.947 91.3693 185.644 89.8589 185.644 88.0597V74.1818H189.891V87.5483C189.891 89.035 190.303 90.2187 191.127 91.0994C191.951 91.9801 193.021 92.4205 194.337 92.4205C195.133 92.4205 195.924 92.2216 196.71 91.8239C197.505 91.4261 198.163 90.8248 198.684 90.0199C199.214 89.215 199.475 88.1922 199.465 86.9517ZM208.766 90.3182V86.767L221.337 66.9091H224.135V72.1364H222.359L213.368 86.3693V86.5966H230.598V90.3182H208.766ZM222.558 96V89.2386L222.587 87.6193V66.9091H226.749V96H222.558ZM239.852 83.0455V96H235.605V66.9091H239.795V77.733H240.065C240.577 76.5587 241.358 75.6259 242.409 74.9347C243.46 74.2434 244.833 73.8977 246.528 73.8977C248.025 73.8977 249.331 74.2055 250.449 74.821C251.576 75.4366 252.447 76.3551 253.062 77.5767C253.688 78.7888 254 80.304 254 82.1222V96H249.753V82.6335C249.753 81.0331 249.341 79.7926 248.517 78.9119C247.693 78.0218 246.547 77.5767 245.08 77.5767C244.076 77.5767 243.176 77.7898 242.381 78.2159C241.595 78.642 240.974 79.267 240.52 80.0909C240.075 80.9053 239.852 81.8902 239.852 83.0455ZM269.071 96.4403C266.921 96.4403 265.07 95.9811 263.517 95.0625C261.973 94.1345 260.78 92.8324 259.938 91.1562C259.104 89.4706 258.688 87.4962 258.688 85.233C258.688 82.9981 259.104 81.0284 259.938 79.3239C260.78 77.6193 261.955 76.2888 263.46 75.3324C264.975 74.3759 266.746 73.8977 268.773 73.8977C270.004 73.8977 271.197 74.1013 272.352 74.5085C273.508 74.9157 274.545 75.5549 275.463 76.4261C276.382 77.2973 277.106 78.429 277.636 79.821C278.167 81.2036 278.432 82.8845 278.432 84.8636V86.3693H261.088V83.1875H274.27C274.27 82.0701 274.043 81.0805 273.588 80.2188C273.134 79.3475 272.494 78.661 271.67 78.1591C270.856 77.6572 269.9 77.4062 268.801 77.4062C267.608 77.4062 266.566 77.6998 265.676 78.2869C264.795 78.8646 264.114 79.6222 263.631 80.5597C263.157 81.4877 262.92 82.4962 262.92 83.5852V86.071C262.92 87.5294 263.176 88.7699 263.688 89.7926C264.208 90.8153 264.933 91.5966 265.861 92.1364C266.789 92.6667 267.873 92.9318 269.114 92.9318C269.919 92.9318 270.652 92.8182 271.315 92.5909C271.978 92.3542 272.551 92.0038 273.034 91.5398C273.517 91.0758 273.886 90.5028 274.142 89.821L278.162 90.5455C277.84 91.7292 277.262 92.7661 276.429 93.6562C275.605 94.5369 274.568 95.2235 273.318 95.7159C272.078 96.1989 270.662 96.4403 269.071 96.4403ZM287.391 66.9091V96H283.144V66.9091H287.391ZM293.105 104.182V74.1818H297.253V77.7188H297.608C297.854 77.2642 298.209 76.7386 298.673 76.142C299.137 75.5455 299.781 75.0246 300.605 74.5795C301.429 74.125 302.518 73.8977 303.872 73.8977C305.634 73.8977 307.205 74.3428 308.588 75.233C309.971 76.1231 311.055 77.4062 311.841 79.0824C312.636 80.7585 313.034 82.7756 313.034 85.1335C313.034 87.4915 312.641 89.5133 311.855 91.1989C311.069 92.875 309.99 94.1676 308.616 95.0767C307.243 95.9763 305.676 96.4261 303.915 96.4261C302.589 96.4261 301.505 96.2036 300.662 95.7585C299.829 95.3134 299.175 94.7926 298.702 94.196C298.228 93.5994 297.864 93.0691 297.608 92.6051H297.352V104.182H293.105ZM297.267 85.0909C297.267 86.625 297.49 87.9697 297.935 89.125C298.38 90.2803 299.024 91.1847 299.866 91.8381C300.709 92.482 301.741 92.804 302.963 92.804C304.232 92.804 305.293 92.4678 306.145 91.7955C306.997 91.1136 307.641 90.1903 308.077 89.0256C308.522 87.8608 308.744 86.5492 308.744 85.0909C308.744 83.6515 308.527 82.3589 308.091 81.2131C307.665 80.0672 307.021 79.1629 306.159 78.5C305.307 77.8371 304.241 77.5057 302.963 77.5057C301.732 77.5057 300.69 77.8229 299.838 78.4574C298.995 79.0919 298.356 79.9773 297.92 81.1136C297.485 82.25 297.267 83.5758 297.267 85.0909Z" fill="black"/>
<path d="M22.0469 113.273V138H18.3281V116.46H6.68892V138H2.97017V113.273H22.0469ZM35.2738 138.374C33.5352 138.374 32.0179 137.976 30.7219 137.179C29.426 136.382 28.4199 135.267 27.7035 133.835C26.9871 132.402 26.6289 130.728 26.6289 128.812C26.6289 126.888 26.9871 125.206 27.7035 123.765C28.4199 122.324 29.426 121.205 30.7219 120.408C32.0179 119.612 33.5352 119.213 35.2738 119.213C37.0124 119.213 38.5297 119.612 39.8256 120.408C41.1216 121.205 42.1277 122.324 42.8441 123.765C43.5605 125.206 43.9187 126.888 43.9187 128.812C43.9187 130.728 43.5605 132.402 42.8441 133.835C42.1277 135.267 41.1216 136.382 39.8256 137.179C38.5297 137.976 37.0124 138.374 35.2738 138.374ZM35.2859 135.344C36.4128 135.344 37.3465 135.046 38.087 134.45C38.8275 133.855 39.3749 133.062 39.729 132.072C40.0913 131.082 40.2724 129.991 40.2724 128.8C40.2724 127.616 40.0913 126.53 39.729 125.54C39.3749 124.542 38.8275 123.741 38.087 123.137C37.3465 122.533 36.4128 122.232 35.2859 122.232C34.1509 122.232 33.2092 122.533 32.4606 123.137C31.7201 123.741 31.1687 124.542 30.8065 125.54C30.4523 126.53 30.2752 127.616 30.2752 128.8C30.2752 129.991 30.4523 131.082 30.8065 132.072C31.1687 133.062 31.7201 133.855 32.4606 134.45C33.2092 135.046 34.1509 135.344 35.2859 135.344ZM47.9483 119.455H51.486V134.873H57.8972V119.455H61.4348V134.873H67.8461V119.455H71.3837V138H47.9483V119.455ZM77.8221 144.955C77.2828 144.955 76.7918 144.91 76.3491 144.822C75.9064 144.741 75.5763 144.653 75.359 144.556L76.2283 141.598C76.8884 141.775 77.476 141.852 77.9911 141.827C78.5063 141.803 78.9611 141.61 79.3555 141.248C79.7579 140.886 80.1121 140.294 80.418 139.473L80.8647 138.241L74.0792 119.455H77.9428L82.6396 133.847H82.8327L87.5295 119.455H91.4052L83.7624 140.475C83.4083 141.441 82.9575 142.258 82.4102 142.926C81.8628 143.602 81.2108 144.109 80.4542 144.447C79.6976 144.786 78.8202 144.955 77.8221 144.955ZM94.7979 138V119.455H98.408V127.23H100.147L106.268 119.455H110.735L103.551 128.474L110.82 138H106.341L100.75 130.587H98.408V138H94.7979ZM122.622 138V119.455H137.751V138H134.213V122.57H126.136V138H122.622ZM142.577 144.955V119.455H146.103V122.461H146.405C146.614 122.075 146.916 121.628 147.31 121.121C147.705 120.614 148.252 120.171 148.952 119.793C149.653 119.406 150.578 119.213 151.729 119.213C153.226 119.213 154.563 119.591 155.738 120.348C156.913 121.105 157.835 122.195 158.503 123.62C159.179 125.045 159.517 126.759 159.517 128.763C159.517 130.768 159.183 132.486 158.515 133.919C157.847 135.344 156.929 136.442 155.762 137.215C154.595 137.98 153.263 138.362 151.765 138.362C150.639 138.362 149.717 138.173 149.001 137.795C148.292 137.416 147.737 136.974 147.334 136.467C146.932 135.96 146.622 135.509 146.405 135.114H146.187V144.955H142.577ZM146.115 128.727C146.115 130.031 146.304 131.174 146.682 132.156C147.061 133.138 147.608 133.907 148.324 134.462C149.041 135.01 149.918 135.283 150.956 135.283C152.035 135.283 152.937 134.998 153.661 134.426C154.385 133.847 154.933 133.062 155.303 132.072C155.681 131.082 155.871 129.967 155.871 128.727C155.871 127.504 155.685 126.405 155.315 125.431C154.953 124.457 154.406 123.688 153.673 123.125C152.949 122.562 152.043 122.28 150.956 122.28C149.91 122.28 149.025 122.549 148.3 123.089C147.584 123.628 147.041 124.381 146.67 125.347C146.3 126.312 146.115 127.439 146.115 128.727ZM167.099 132.941L175.273 119.455H179.161V138H175.623V124.501L167.486 138H163.562V119.455H167.099V132.941ZM186.864 119.455L190.957 126.675L195.086 119.455H199.035L193.251 128.727L199.083 138H195.135L190.957 131.07L186.792 138H182.831L188.603 128.727L182.904 119.455H186.864ZM206.279 132.941L214.453 119.455H218.341V138H214.803V124.501L206.665 138H202.741V119.455H206.279V132.941ZM231.006 138.374C229.211 138.374 227.666 137.968 226.37 137.155C225.082 136.334 224.092 135.203 223.4 133.762C222.707 132.321 222.361 130.671 222.361 128.812C222.361 126.928 222.715 125.266 223.424 123.825C224.132 122.376 225.13 121.246 226.418 120.433C227.706 119.62 229.223 119.213 230.97 119.213C232.379 119.213 233.634 119.475 234.737 119.998C235.84 120.513 236.729 121.237 237.405 122.171C238.09 123.105 238.496 124.196 238.625 125.443H235.111C234.918 124.574 234.475 123.825 233.783 123.197C233.099 122.57 232.181 122.256 231.03 122.256C230.024 122.256 229.143 122.521 228.386 123.053C227.638 123.576 227.054 124.324 226.635 125.298C226.217 126.264 226.008 127.407 226.008 128.727C226.008 130.08 226.213 131.247 226.623 132.229C227.034 133.211 227.613 133.971 228.362 134.511C229.119 135.05 230.008 135.32 231.03 135.32C231.715 135.32 232.334 135.195 232.89 134.945C233.453 134.688 233.924 134.321 234.302 133.847C234.689 133.372 234.958 132.8 235.111 132.132H238.625C238.496 133.331 238.106 134.402 237.454 135.344C236.802 136.286 235.928 137.026 234.834 137.565C233.747 138.105 232.471 138.374 231.006 138.374ZM241.082 122.57V119.455H256.73V122.57H250.681V138H247.155V122.57H241.082ZM260.548 138V119.455H264.158V127.23H265.897L272.018 119.455H276.485L269.301 128.474L276.57 138H272.091L266.5 130.587H264.158V138H260.548ZM281.756 144.955C281.216 144.955 280.725 144.91 280.283 144.822C279.84 144.741 279.51 144.653 279.293 144.556L280.162 141.598C280.822 141.775 281.41 141.852 281.925 141.827C282.44 141.803 282.895 141.61 283.289 141.248C283.692 140.886 284.046 140.294 284.352 139.473L284.798 138.241L278.013 119.455H281.876L286.573 133.847H286.766L291.463 119.455H295.339L287.696 140.475C287.342 141.441 286.891 142.258 286.344 142.926C285.796 143.602 285.144 144.109 284.388 144.447C283.631 144.786 282.754 144.955 281.756 144.955ZM307.73 138V119.455H315.421C317.513 119.455 319.172 119.901 320.395 120.795C321.619 121.68 322.23 122.884 322.23 124.405C322.23 125.491 321.884 126.353 321.192 126.989C320.5 127.625 319.582 128.051 318.439 128.268C319.268 128.365 320.029 128.615 320.721 129.017C321.413 129.411 321.969 129.943 322.387 130.611C322.814 131.279 323.027 132.076 323.027 133.001C323.027 133.983 322.774 134.853 322.267 135.609C321.759 136.358 321.023 136.946 320.057 137.372C319.099 137.791 317.944 138 316.592 138H307.73ZM311.122 134.982H316.592C317.485 134.982 318.186 134.768 318.693 134.342C319.2 133.915 319.453 133.335 319.453 132.603C319.453 131.742 319.2 131.066 318.693 130.575C318.186 130.076 317.485 129.826 316.592 129.826H311.122V134.982ZM311.122 127.182H315.457C316.133 127.182 316.713 127.085 317.195 126.892C317.686 126.699 318.061 126.425 318.318 126.071C318.584 125.709 318.717 125.282 318.717 124.791C318.717 124.075 318.423 123.515 317.835 123.113C317.248 122.71 316.443 122.509 315.421 122.509H311.122V127.182ZM338.026 138.338V135.054H339.511C340.131 135.054 340.642 134.949 341.044 134.74C341.455 134.531 341.789 134.249 342.047 133.895C342.312 133.533 342.533 133.138 342.711 132.712L343.061 131.83L334.368 113.273H338.328L344.811 127.568L350.583 113.273H354.495L345.946 133.714C345.584 134.535 345.166 135.295 344.691 135.996C344.224 136.696 343.6 137.263 342.819 137.698C342.038 138.125 341.004 138.338 339.716 138.338H338.026ZM356.372 138V119.455H359.982V127.23H361.721L367.842 119.455H372.31L365.126 128.474L372.394 138H367.915L362.325 130.587H359.982V138H356.372ZM375.198 144.955V119.455H378.724V122.461H379.026C379.235 122.075 379.537 121.628 379.931 121.121C380.326 120.614 380.873 120.171 381.573 119.793C382.274 119.406 383.199 119.213 384.35 119.213C385.847 119.213 387.184 119.591 388.359 120.348C389.534 121.105 390.456 122.195 391.124 123.62C391.8 125.045 392.138 126.759 392.138 128.763C392.138 130.768 391.804 132.486 391.136 133.919C390.468 135.344 389.55 136.442 388.383 137.215C387.216 137.98 385.884 138.362 384.387 138.362C383.26 138.362 382.338 138.173 381.622 137.795C380.913 137.416 380.358 136.974 379.955 136.467C379.553 135.96 379.243 135.509 379.026 135.114H378.808V144.955H375.198ZM378.736 128.727C378.736 130.031 378.925 131.174 379.303 132.156C379.682 133.138 380.229 133.907 380.945 134.462C381.662 135.01 382.539 135.283 383.578 135.283C384.656 135.283 385.558 134.998 386.282 134.426C387.007 133.847 387.554 133.062 387.924 132.072C388.302 131.082 388.492 129.967 388.492 128.727C388.492 127.504 388.307 126.405 387.936 125.431C387.574 124.457 387.027 123.688 386.294 123.125C385.57 122.562 384.664 122.28 383.578 122.28C382.531 122.28 381.646 122.549 380.921 123.089C380.205 123.628 379.662 124.381 379.291 125.347C378.921 126.312 378.736 127.439 378.736 128.727ZM401.58 138.411C400.405 138.411 399.342 138.193 398.392 137.759C397.442 137.316 396.69 136.676 396.134 135.839C395.587 135.002 395.313 133.975 395.313 132.76C395.313 131.714 395.515 130.852 395.917 130.176C396.32 129.5 396.863 128.965 397.547 128.57C398.231 128.176 398.996 127.878 399.841 127.677C400.686 127.476 401.548 127.323 402.425 127.218C403.536 127.089 404.437 126.985 405.129 126.904C405.822 126.816 406.325 126.675 406.639 126.482C406.953 126.288 407.11 125.974 407.11 125.54V125.455C407.11 124.401 406.812 123.584 406.216 123.004C405.628 122.425 404.751 122.135 403.584 122.135C402.369 122.135 401.411 122.405 400.71 122.944C400.018 123.475 399.539 124.067 399.274 124.719L395.881 123.946C396.283 122.819 396.871 121.91 397.644 121.217C398.424 120.517 399.322 120.01 400.336 119.696C401.35 119.374 402.417 119.213 403.536 119.213C404.276 119.213 405.061 119.302 405.89 119.479C406.727 119.648 407.508 119.962 408.232 120.42C408.965 120.879 409.565 121.535 410.031 122.388C410.498 123.234 410.732 124.332 410.732 125.685V138H407.206V135.464H407.061C406.828 135.931 406.478 136.39 406.011 136.841C405.544 137.292 404.944 137.666 404.212 137.964C403.479 138.262 402.602 138.411 401.58 138.411ZM402.365 135.513C403.363 135.513 404.216 135.316 404.924 134.921C405.641 134.527 406.184 134.012 406.554 133.376C406.932 132.732 407.122 132.044 407.122 131.311V128.92C406.993 129.049 406.743 129.17 406.373 129.283C406.011 129.387 405.596 129.48 405.129 129.56C404.663 129.633 404.208 129.701 403.765 129.766C403.322 129.822 402.952 129.87 402.654 129.911C401.954 129.999 401.314 130.148 400.735 130.357C400.163 130.567 399.704 130.868 399.358 131.263C399.02 131.649 398.851 132.164 398.851 132.808C398.851 133.702 399.181 134.378 399.841 134.837C400.501 135.287 401.342 135.513 402.365 135.513ZM415.54 138V119.455H419.15V138H415.54ZM413.814 116.545C413.25 116.545 412.755 116.335 412.328 115.917C411.902 115.49 411.689 114.999 411.689 114.444C411.689 113.84 411.902 113.337 412.328 112.935C412.755 112.532 413.25 112.331 413.814 112.331C414.417 112.331 414.92 112.532 415.323 112.935C415.733 113.337 415.939 113.84 415.939 114.444C415.939 114.999 415.733 115.49 415.323 115.917C414.92 116.335 414.417 116.545 413.814 116.545ZM420.913 116.545C420.35 116.545 419.855 116.335 419.428 115.917C419.001 115.49 418.788 114.999 418.788 114.444C418.788 113.84 419.001 113.337 419.428 112.935C419.855 112.532 420.35 112.331 420.913 112.331C421.517 112.331 422.02 112.532 422.422 112.935C422.833 113.337 423.038 113.84 423.038 114.444C423.038 114.999 422.833 115.49 422.422 115.917C422.02 116.335 421.517 116.545 420.913 116.545ZM436.576 127.17V130.297H426.53V127.17H436.576ZM427.545 119.455V138H424.007V119.455H427.545ZM439.099 119.455V138H435.574V119.455H439.099ZM443.929 138V119.455H447.539V138H443.929ZM445.752 116.593C445.124 116.593 444.585 116.384 444.134 115.965C443.691 115.539 443.47 115.031 443.47 114.444C443.47 113.848 443.691 113.341 444.134 112.923C444.585 112.496 445.124 112.283 445.752 112.283C446.38 112.283 446.915 112.496 447.358 112.923C447.809 113.341 448.034 113.848 448.034 114.444C448.034 115.031 447.809 115.539 447.358 115.965C446.915 116.384 446.38 116.593 445.752 116.593Z" fill="#FF7A00"/>
</svg>
